/* XPM */
static char *result[] = {
/* columns rows colors chars-per-pixel */
"50 50 231 2 ",
"   c #38571F",
".  c #3C651F",
"X  c #315221",
"o  c #355B23",
"O  c #385E26",
"+  c #366320",
"@  c #396423",
"#  c #3B6C24",
"$  c #3C6429",
"%  c #3E6C29",
"&  c #3C7322",
"*  c #3D7B21",
"=  c #4B7C1D",
"-  c #40711F",
";  c #54781C",
":  c #486C1D",
">  c #436B23",
",  c #406D2B",
"<  c #466D23",
"1  c #437325",
"2  c #4B7322",
"3  c #417B25",
"4  c #4B7B23",
"5  c #417429",
"6  c #457C2B",
"7  c #4A792C",
"8  c #567F24",
"9  c #457530",
"0  c #C46E01",
"q  c #C97B02",
"w  c #D67C01",
"e  c #4A861E",
"r  c #59861D",
"t  c #568A1D",
"y  c #59981E",
"u  c #648B19",
"i  c #69931C",
"p  c #6A9B1A",
"a  c #63981D",
"s  c #749C16",
"d  c #57A21D",
"f  c #58B71F",
"g  c #6CA91B",
"h  c #7AAB19",
"j  c #76A719",
"k  c #6BBA1C",
"l  c #66B31D",
"z  c #7CB51A",
"x  c #428322",
"c  c #4E8323",
"v  c #448B23",
"b  c #4A8D24",
"n  c #468429",
"m  c #49842C",
"M  c #4B8C2B",
"N  c #478929",
"B  c #558E24",
"V  c #53892B",
"C  c #588526",
"Z  c #459421",
"A  c #4A9425",
"S  c #479921",
"D  c #4B9D24",
"F  c #4C952B",
"G  c #4D9B2A",
"H  c #5D9324",
"J  c #50952B",
"K  c #519B2C",
"L  c #5B9C2D",
"P  c #599925",
"I  c #4B8531",
"U  c #4D8B32",
"Y  c #508C34",
"T  c #519333",
"R  c #539B32",
"E  c #589B39",
"W  c #4F9033",
"Q  c #608F26",
"!  c #679523",
"~  c #6E9D23",
"^  c #679B27",
"/  c #729B26",
"(  c #4BA421",
")  c #4EAB22",
"_  c #4EA228",
"`  c #51A426",
"'  c #5EA224",
"]  c #50AC25",
"[  c #52A32C",
"{  c #5AA52D",
"}  c #53AA29",
"|  c #5BAB28",
" . c #4FB122",
".. c #51B324",
"X. c #5CB422",
"o. c #51B921",
"O. c #55B12C",
"+. c #5BB32D",
"@. c #5BBC2A",
"#. c #5DBD20",
"$. c #55A333",
"%. c #5AA432",
"&. c #5BAC32",
"*. c #5AAD35",
"=. c #5DB631",
"-. c #67A826",
";. c #78A925",
":. c #66B729",
">. c #78B626",
",. c #63A535",
"<. c #62B833",
"1. c #6DC51C",
"2. c #79C51B",
"3. c #78C61C",
"4. c #7CD31D",
"5. c #57C124",
"6. c #5AC425",
"7. c #5EC729",
"8. c #62C32D",
"9. c #63CB2B",
"0. c #69C926",
"q. c #76CB27",
"w. c #65D32B",
"e. c #69D52D",
"r. c #6CDB2E",
"t. c #6AD226",
"y. c #7DD525",
"u. c #74D42C",
"i. c #76D927",
"p. c #65C431",
"a. c #69CC31",
"s. c #67CC30",
"d. c #6CD531",
"f. c #7CE32B",
"g. c #75E12E",
"h. c #70E030",
"j. c #5DA441",
"k. c #8AA917",
"l. c #85B917",
"z. c #95BD18",
"x. c #9EAC12",
"c. c #B4B60E",
"v. c #A4BB18",
"b. c #ACB010",
"n. c #83BB22",
"m. c #929313",
"M. c #D98601",
"N. c #DD9904",
"B. c #D99A12",
"V. c #D78712",
"C. c #E18D01",
"Z. c #E79401",
"A. c #E89301",
"S. c #E79C01",
"D. c #EA9D01",
"F. c #CCBC0B",
"G. c #C1AA09",
"H. c #E6A201",
"J. c #EDA301",
"K. c #E7AA01",
"L. c #EDAC01",
"P. c #EEB301",
"I. c #EEBB01",
"U. c #EDBF0D",
"Y. c #F1B500",
"T. c #F1BB01",
"R. c #E9A109",
"E. c #DBA92C",
"W. c #E9BF2F",
"Q. c #D08F2A",
"!. c #89C519",
"~. c #96C714",
"^. c #8CDB1A",
"/. c #87D71B",
"(. c #9CD514",
"). c #92D41B",
"_. c #98DA1A",
"`. c #B8C80D",
"'. c #A8D316",
"]. c #B8D714",
"[. c #AFD111",
"{. c #93E81E",
"}. c #97E217",
"|. c #A4E816",
" X c #ACF116",
".X c #B6EA11",
"XX c #86C722",
"oX c #86D722",
"OX c #91D023",
"+X c #8AE322",
"@X c #87E525",
"#X c #94E220",
"$X c #C9C60A",
"%X c #DDC206",
"&X c #DAC508",
"*X c #C9D30D",
"=X c #D5DD09",
"-X c #EDC202",
";X c #EDCB02",
":X c #E4C804",
">X c #F4C401",
",X c #F6CA01",
"<X c #F8CA01",
"1X c #E9D403",
"2X c #F5D201",
"3X c #F8D201",
"4X c #F6DC01",
"5X c #F8DE01",
"6X c #EAC71B",
"7X c #D8EA0A",
"8X c #ECE803",
"9X c #F6E501",
"0X c #F6EA01",
"qX c #F8E901",
"wX c #F7F404",
"eX c #F8F401",
"rX c #F7F801",
"tX c #F7F608",
"yX c #F8F705",
"uX c #F7F81F",
"iX c #F8F91F",
"pX c #EDF003",
"aX c #E1C333",
"sX c #F7F921",
"dX c #F8F921",
"fX c #F7F720",
"gX c #DCB945",
"hX c #E7D14D",
"jX c #F6F74A",
"kX c #F6F84B",
"lX c #EFE750",
/* pixels */
").$., % U } } _ 5 f r A + m 0.(.R ,.m 7.=.E X E &.a.*.E y '.y & F -.}.T p.I <._.<.@ > T =...=.% ..= ",
"f.XXX # P OX+.M 3 4.` H h # M #.m I 3 8.8.5 X R >.n.p.O [ a.:.S %.$ 8.S 9 m J f.L X # &.<.} n 6 +.l.",
"%.oXq.N A k N [ x :.o.` y.:.O ] , 1 % 6 a.e.8.7 u.:.%.<.x @.#.G o.& M G o 6 o %.^.( N G +.B <.F ` f.",
"o <.9.C 8 m ] I &.6 ..( 3 N X ` # XXx.$X2X5X5X5XqX0X7X*Xz.J o.x D O + Z ; j x o [ o.6 1 ! ).C [ 6 @.",
"* G T c b ( M x [ x W o.1 3 = ;.x.;X<XT.T.T.T.T.-X;X2X4X8X`.!.D S & @ ] = y.* * G R & e ).L x v x n ",
"v % + x K Y N } * V ^.K o...z.%X>XY.L.J.L.L.L.Y.Y.P.I.-X-X0XwX].f S ( & # w.o.v 5 + r -.9 x } N m f.",
"v + ( * o.& 6 F 3 # q.7.-.`.2XT.J.J.J.J.J.L.J.L.L.P.P.P.I.I.,X9X7Xj ( ( X .._ v + 2.3 r.n 6 %.i > f.",
"Z + @.D _ x + 6 ) & o.-.c.1XY.L.J.J.J.D.J.J.L.T.P.L.P.P.P.I.-X-X0X=Xz @.Z D 1 Z + 9.l.<.x # m q.& @.",
"N u &.( m G  .Z U # o.c.4X;XL.L.L.J.J.D.D.J.H.0X>XL.P.L.Y.P.I.T.;X9X=XF ` c !.N * G 8.m A o.A T & @.",
"o q.n.o.& v $.T x o 2.0X,XY.P.L.L.L.J.J.J.K.8XrX0X,XL.P.P.P.P.I.T.;X9X[.2 1 0.o '.n.r.3 x R T * + p.",
"Z 8.A 5.} ~ b ; @ e *X4X-XI.P.P.L.L.L.J.S.1XrXrXrXeXP.L.L.P.P.I.I.I.;XpX'.# }.D 8.G 5.+.8 K ; $ # & ",
"} @.e ] XX/.a ).& ~.eX-XI.I.I.Y.Y.L.L.J.-XeXrXrXrXrX4XP.L.Y.L.Y.I.I.I.qX7X` _ D ..v ..c ).! ^.u ( ( ",
"S <.x 6 X.#.K r.i.*X4X-X-XI.I.P.Y.Y.Y.-XeXeXeXeXeXeXeX9X>XP.Y.L.P.P.I.2XpX!.5 Z D x 6 !.r.[ h.d.[ w.",
"[ N e :.@X-.@.6.;.1X>XI.-X-X-XT.>X2X4X9XqXqX9XqXqX9XqXqX9X4X,X>XI.P.P.I.8X].& G 3 e l.f.%.@.w.[ G R ",
"1 & M r.r.x L L m.,XI.P.P.I.;X2X4X9X4X4X5X9X5X9X5X5X4X4X4X5X4X4X<X-XL.K.;X=X& 5 # A f.w.x V T + A 3 ",
"A o 1 6.a.C (.; $X>XL.Y.N.q 2X2X<X<X3X3X<X2X<X3X2X<X3X<X3X2X<X<X;XH.S.H.I.9XA A o 1 7.) $ s ; Z m ..",
"[ Z ( e.0.).| x :XY.J.L.K.M.N.>X<X<X<X<X<X<X<X<X<X<X<X<X<X>X<X<XS.Z.S.H.P.qX% [ } ( o.| ~.z J o.[ U ",
"( G ..F [ 6.v C :XY.J.J.K.P.0 K.<X<X>X<X<X<X<X>X<X<X<X>X<X<X<X>XN.S.S.H.P.9XX ( K d.%.0.r.[ Q Y U & ",
"O.) T $ x o.B ).U.P.D.D.J.L.H.q P.<X<X<X<X>X<X>X<X>X<X<X<X<XT.Z.S.S.S.S.P.4XP =.] T $ -.h.H ).G h # ",
"7 ..x r H G g t.F.T.J.J.J.J.L.M.q >X<X<X<X<X<X<X<X<X<X<X<X<XK.C.A.A.S.D.P.1Xo.5 ] n * 3 &.-.r.7 i.k ",
"C !.* *.D + q.+Xc.T.J.D.A.D.D.D.0 >X2X2X3X2X2X3X3X2X3X2X3X3XP.Z.A.A.S.S.P.1X[ = XXm } G $ y.h.A 8.w.",
"& q.o 6 % X ] w.k.I.J.A.A.A.A.A.w ;XqX0XqXqXqX9XqXqXqXqX0XqXI.Z.A.A.A.D.-X*X7 c k o 6 5 X ..6.v ..7.",
"x ..6 & _ & F 6.Q :XY.A.A.A.A.Z.w 1XyXtXtXtXtXtXtXtXtXtXtXtXU.Z.A.A.A.D.-Xz.@.t o.3 # ` # F ..3 ..F ",
"..R O # I $.} R 4 `.Y.A.A.A.A.Z.w 6XuXuXiXiXuXdXsXsXsXfXsXfXU.S.S.A.A.L.%X8 ) y.J o # m K ) K N r.n ",
"0.).+ # _ ..G n 1 ;.;XD.Z.Z.Z.A.w hXkXkXjXjXjXaXaXlXkXkXkXjXW.S.S.S.S.>Xm.x 5 o.( + & D ) G x 5 -.2.",
"6 u.y.M x _ A *.G ` [.Y.S.A.Z.C.C.gXlXhXW.E.B.N.N.B.E.E.hXlXW.S.S.S.L.F.; # & 6  .o.T N [ -._ A [ +X",
"X %.t.& & x } % [ , q.;XL.Z.Z.Z.C.Q.E.V.M.D.S.H.K.K.K.N.q Q.B.H.H.K.,Xz > S 6 X E o.& & s q.% n.% p.",
"Z A 9 4 b *.* ( x A E z I.I.Z.Z.A.C.A.Z.A.S.S.S.H.K.K.P.K.K.L.J.I.1Xx.G & f x ] $.5 r ^ =.6 !.A A ;.",
"6 z & c | % F R & 7 }.-.].&XL.D.A.A.A.A.A.A.Z.S.S.J.K.K.P.K.P.-X8Xx.!.& # .. .n # >.x ` $ F $.5 6 {.",
"Z 6.o.N ^.e $ Z v # r...R ].-XT.D.A.A.A.A.A.A.Z.S.S.H.K.K.I.1X8X'.e 0./.o ( F Z : {.3 o.x % l.j # r.",
"Z M O.( G v * % ) & o.C 1 ..1 v.:XI.J.D.Z.Z.A.A.S.S.L.I.2XpX].i N x G q.( A i _ $ p.D F e x 7 O.& 5.",
"5 l.A  .6 G @.O.6 # ..c !.P X > ~ b.I.U.Y.Y.P.L.P.I.;X&X`.z t ~.'.1 o m F 4 +X5 y K t.n G 8.p.6 @ o.",
"+ 9.[ o.x 3 ,.9 * o G x f. X@ . l % g h b.$X$X$XG.c.k./ X , 3 8.r.( X Z r # r.@ ).' 5.v M -.9 m o F ",
"Z 8.A #.G a z s o k.C n r.h.) & /.e n  .A 6.x ..k.!.< ! ; l.o ] #.o.Z Z q.& h.S 0.y  .F i ! * o v & ",
"+.8.J | ! {.p @Xv 8.|.% 7.f } o.t..Xa ..e f A L @X| X.7.x f.h F o.9.K o.o.( v Z ] P | _.{.v o.v ( o.",
"` &.b P {.@.} 7.o._ 7.5.I O.Z P q.6.v A * ] o ;.w.K oX5...+.5._ M 5.& G o.o.6 ` $.b ).f.p.S o.f [ ..",
"F 1 x ^.w.v _ ..m L m ) o A v 1 4 ..D % x S * t.o.3 @.*.M 6 D 3 o ) @ = F ..6 F * x i.r._ D ..I M 6 ",
"& @ 3 7.o.3 / V + !.a P o ! Q !.g 9 7 u # e x o...o U & # ..N & X R 2 |.7 9 & & @ 3 7.e.N V V + D v ",
"$.+ 3 o.f ~.oX< ( 7 ..B z >.).4 R ; z.;.x O ( w.N + M x x R 3.(.; +XA M M k.-.[ $ m h.p.o h < ..5 ) ",
"_ _ o. .| w.S b ) [ 7 ^. .G e.[ g ^.M g P ..7.} _.|.= } } M F d.A oX0.#  Xu.o _ <.h.d.:. X:.M } [ 5 ",
"O.G ..F } o.d ' m U % n ) U ..I ] ] # A z -.| V f.3.< -.F U $ +.O.{ [ i e.&.X ( _ 8.R :.t.J ~ U I & ",
"*.] I o N  .P 0.a (.e & & % A S o.[ h >.:.v 5 1 } ' !.P a.@.o x W x & t.o.3 k F ) 3 + V o.a oXx ] x ",
"% } x Z Z n ` 6.1 e._.= # } $ ( &.$ ( x K ..; (.C ' u.@.R +Xl.> Z 3 # _ F # w.& [ x D D n ) h.3 f }.",
"& } & *.F o ) ^.p 8.i.z + w.X M x _ %.1 !.-.C u.< B g.h.n @X/.u (.p o =.1 { %.& [ & *.A o @.7.e d i.",
"& ) + @ * X -.i.e k :.K D o.Z * * o...: 7.A X N o # w.h.n r.d.M r.w.# ( & o.v & k + # n X =.h.v ) 8.",
"A ..6 % G Z _ ..& k c h & *.) ) [ } { ).| [ X U { D [ +.3 a.A @ +.] ( &.( G ) l oX6 > R Z [ a.6 ] M ",
"|.>.# # v T } F * ) * oXr 7 $. .6 I 5 i.oX5 X v U _ ) % ) X.4 v T & ) x I # Z f R o # B L ] K 3 ..e ",
"p.{.l 3 _ o.P l.& [ 4.j /.d # @.3 # # T i.P x * o._ F x 6 oXk _ o.@ F ) X N $ ` ..G 3 k 1.N N 3 ' ^.",
"% O.o.U 6 T OX:.$.K i.` M G X S X Z + * &.9.` @ W G } j.D p.9.6 ] % # & 3 # e % @.h.U 6 W ( R G $.}.",
"& R _ & & Z { C ' 1 G o.& & + D x o.N & 1 [ 3 Z + @.n | 5 n 7.` y.@ + ] r 2.& + F =.& & Z G & G x } "
};
