/* XPM */
static char *result[] = {
/* columns rows colors chars-per-pixel */
"50 50 236 2 ",
"   c #3C5A1F",
".  c #3B641F",
"X  c #315221",
"o  c #355B23",
"O  c #385E26",
"+  c #366320",
"@  c #396424",
"#  c #3B6C24",
"$  c #3B6429",
"%  c #3E6C29",
"&  c #3C7322",
"*  c #3E7B21",
"=  c #466B1D",
"-  c #4B7C1D",
";  c #40711F",
":  c #52761B",
">  c #567B1D",
",  c #587F1F",
"<  c #446C23",
"1  c #406D2B",
"2  c #466D23",
"3  c #427326",
"4  c #4A7421",
"5  c #417B25",
"6  c #4B7B23",
"7  c #417429",
"8  c #457C2B",
"9  c #4A7A2C",
"0  c #567F23",
"q  c #457530",
"w  c #497E32",
"e  c #6B7F20",
"r  c #4D871E",
"t  c #59861D",
"y  c #59891E",
"u  c #5A961E",
"i  c #4F911D",
"p  c #63891B",
"a  c #69931C",
"s  c #6A9B1A",
"d  c #64971C",
"f  c #73971B",
"g  c #57A41D",
"h  c #58B71F",
"j  c #6DA21A",
"k  c #6AAD1A",
"l  c #7AAB19",
"z  c #74A81B",
"x  c #6BBA1C",
"c  c #66B31D",
"v  c #7EB31B",
"b  c #77B71B",
"n  c #428322",
"m  c #4D8323",
"M  c #448B23",
"N  c #4A8C24",
"B  c #468429",
"V  c #49842C",
"C  c #4B8C2C",
"Z  c #478929",
"A  c #558E24",
"S  c #52852A",
"D  c #538A2B",
"F  c #598625",
"G  c #459421",
"H  c #4A9425",
"J  c #479921",
"K  c #4B9D24",
"L  c #4C952B",
"P  c #4D9B2A",
"I  c #5D9324",
"U  c #5B9B23",
"Y  c #51942C",
"T  c #519B2C",
"R  c #5B9C2D",
"E  c #579726",
"W  c #4B8631",
"Q  c #4D8B32",
"!  c #508F32",
"~  c #50853B",
"^  c #529332",
"/  c #539B32",
"(  c #589B39",
")  c #4F9033",
"_  c #608F26",
"`  c #688A21",
"'  c #6B9C24",
"]  c #669825",
"[  c #649A32",
"{  c #4BA422",
"}  c #4DAB22",
"|  c #4EA228",
" . c #51A426",
".. c #5EA224",
"X. c #50AD25",
"o. c #52A32C",
"O. c #5AA52D",
"+. c #53AA2A",
"@. c #5AAC2C",
"#. c #5CAB25",
"$. c #4EB121",
"%. c #51B324",
"&. c #5DB422",
"*. c #51B921",
"=. c #5DBC21",
"-. c #55B12C",
";. c #5BB32C",
":. c #5BBC2A",
">. c #55A332",
",. c #5BA533",
"<. c #57AD32",
"1. c #5BAC32",
"2. c #5FAD39",
"3. c #5DB431",
"4. c #5DB930",
"5. c #67A827",
"6. c #79AA27",
"7. c #63B42C",
"8. c #67B827",
"9. c #79B727",
"0. c #63A535",
"q. c #61B433",
"w. c #61BB31",
"e. c #64BA38",
"r. c #6EC71C",
"t. c #79C51B",
"y. c #79C71D",
"u. c #7CD31D",
"i. c #57C124",
"p. c #5AC425",
"a. c #5EC62A",
"s. c #62C42C",
"d. c #63CB2B",
"f. c #69C925",
"g. c #77CC27",
"h. c #65D32B",
"j. c #69D52D",
"k. c #6CDA2E",
"l. c #6AD226",
"z. c #7DD525",
"x. c #76D829",
"c. c #65C431",
"v. c #68CA33",
"b. c #6CD631",
"n. c #7CE32B",
"m. c #75E12E",
"M. c #70E030",
"N. c #5DA441",
"B. c #AF9C0B",
"V. c #87AB17",
"C. c #89BD16",
"Z. c #86B817",
"A. c #92B915",
"S. c #9FAD16",
"D. c #B9A308",
"F. c #A2A012",
"G. c #A5BC13",
"H. c #BBBA0B",
"J. c #84BA22",
"K. c #8F971D",
"L. c #DE9504",
"P. c #D88C0F",
"I. c #EB9400",
"U. c #E59C01",
"Y. c #EC9A00",
"T. c #E29B07",
"R. c #F19D00",
"E. c #E59914",
"W. c #CAAB03",
"Q. c #D4AA00",
"!. c #D9AE00",
"~. c #DDB300",
"^. c #DFBD04",
"/. c #DEA51D",
"(. c #CFBC0A",
"). c #EAA301",
"_. c #ECAC00",
"`. c #E7A701",
"'. c #F5A500",
"]. c #F5AC00",
"[. c #E2B500",
"{. c #EDB601",
"}. c #E7B900",
"|. c #EDBC00",
" X c #F4B400",
".X c #F5BB00",
"XX c #F9B900",
"oX c #E8BD1F",
"OX c #E6B62F",
"+X c #86C41B",
"@X c #89C719",
"#X c #98C814",
"$X c #8CDB1A",
"%X c #88D71B",
"&X c #9CD514",
"*X c #92D41B",
"=X c #99DB19",
"-X c #A5D913",
";X c #B1D413",
":X c #93E81E",
">X c #97E318",
",X c #A5E815",
"<X c #ACF116",
"1X c #B7EC10",
"2X c #86C723",
"3X c #86D823",
"4X c #96D821",
"5X c #91C725",
"6X c #84E426",
"7X c #8AE323",
"8X c #8EE923",
"9X c #94E220",
"0X c #C6CC0B",
"qX c #C4D20D",
"wX c #D7D708",
"eX c #D5C00C",
"rX c #ECC503",
"tX c #E5CF05",
"yX c #F4C400",
"uX c #F9C600",
"iX c #F2CB02",
"pX c #FECC00",
"aX c #EED604",
"sX c #FED200",
"dX c #FCDB00",
"fX c #F4D701",
"gX c #FEE300",
"hX c #F1E001",
"jX c #FEF300",
"kX c #FEFC01",
"lX c #FFFC08",
"zX c #E7EA05",
"xX c #FEFD35",
"cX c #F8E72A",
"vX c #EDD446",
"bX c #F3E352",
/* pixels */
"4X>.1 % ! +.+.| % h y H + V f.=X/ 0.V d.3.( X ( 1.v.N.>.U &Xu & H 6.=X^ c.W w.=Xq.$ % ^ 4.+.3.& %.- ",
"n.2XX # E 5X;.L & %X .I z # C :.V V 3 a.c.q X >.9.9.c.$ o.v.5.K 1.$ s.G q C Y n.U X 3 ,.e.+.B 3 #.C.",
",.3Xt.N H 8.C o.n s.h  .z.c @ } 1 7 % 8 g.4X2Xf 4XJ.J.J.N p.p.P %.* C P X 9 @ O.%X} Z K :.A 7.L +.m.",
"o q.a.D m V } W <.8 $.{ 8 B   | . d.y G.wXaXaXfXiXiXrX|.eXF.h M K o + G - j B o o.%.9 & ] *XF T 8 :.",
"* P Y m y { C n o.n ^ *.& 8 * T r 6XzXiX|. X].].uXpXpXpXpXpXrXj G . # } - z.& * P / & r *XT M Z n C ",
"M 1 + B P ~ Z X.5 S $XT *.*.5.E F zXrX|. X X].].'.XXdXpXpXpXpXiX#XH { 7 # h.*.M 7 @ t 5.q Z +.N V n.",
"M + { * *.& 8 L * @ z.s.o.*.6 x.0XiX.X X X.X].'.'.].sXdXpXpXpXpXiXa { { X %. .Z @ t.6 k.6 B >.a < n.",
"G + *.K | M @ 8 $.& *.^ 3 *.8 9XhX|.|. XXXjX|.'.].]..XgXpXpXpXpXpX(.{ :.G K 3 G + d.Z.4.n + W v.& *.",
"B a ,.{ V T $.G Q & *.r z L o 0XyX|. X XdXkXdX].].XX.XdXdXpXpXpXpXpXe ) +.m @XM & P s.V H *.K ^ 7 i.",
"o g.J.h & M >.! 5 o X.& 3X1X  aX|.{. XuXkXkXkX{.XXXX.XiXgXiXpXpXpXpXD.M % 3 l.X &XZ.k.B M ^ ! 5 O c.",
"G s.H i.X.' N : % . 7 & *.*.Z.iX{. XiXgXjXjXjXgXiXXXuXuXsXiXpXpXpXpXyXk +X# :XK d.Y i.;.0 Y : $ . 7 ",
" .a.n } 2X%Xd =X& g &X@ *.i.;X X|.dXdXgXgXgXgXgXgXdXuX.XiXuXuXpXpXpXpXC.n.u | K %.M X.S *Xd $Xp } { ",
"K :.n 8 &.h K k.k.o.*.*.L *.;X).U.uXsXpXsXsXsXpXsXpXP.].XXuXyXuXpXpXpXA.k.$.8 G { * 9 +Xk.o.M.k.o.h.",
"O.V r 8.8X5.w.p.T P C %.@ P 0X).U.{.pXpXpXpXpXpXpX{.L.].XXyX|.yXuXiXpXK.| %.& H 8 r C.n.,.:.h.o.L / ",
"% # C k.k.n R ^ @ C._ K o V 0X).U.U.pXpXpXpXpXpXpXU.].].XXrX|.yXyXuXuXA.7 C # 7 # H m.h.n D Y O P * ",
"K o 7 p.j.0 &X0 | V d.' a  .qXY.Y.I.uXpXsXpXpXpX XU.].'.].}.}.|..XyXuXV.M > K H o 7 a.$.$ f > G V %.",
"| J { k.8.*X+.n p.H V %X8.G ;X).I.I.fXgXgXgXgXgX|.I.R.R.XX[.[.}.|.rXyX` #X3X% | +.{ %.#.#Xb Y %.o.Q ",
"| L %.L +.p.M I [ D # / d.L C._.I.U.gXlXlXlXlXlXrXI.I.I. X!.[.[.}.|.^.p k.3.X { / b.,.f.M.o.I ! C 7 ",
"-.} ) @ Z h A *Xj Z.4 3 C % @.`.U.U.cXxXxXxXxXxXoXI.I.R.{.Q.!.~.[.}.F.+Xd.V E 4.%.^ $ 5.M.I *XH b # ",
"9 -.n t u P j l.w x.=X& 4 y 8 H.).U.vXvX/.T.OXbXOXL.I.].~.Q.Q.!.~.~.> %.| # i.& X.n * 6 <.5.m.8 z.x ",
"r +X3 -.P @ g.7XZ d.d.G # p.X V.{.)./.L._._.Y.E.E.I.I.XX!.Q.Q.Q.!.D.o o.7 M o.r 2X8 -.P o z.M.N c.h.",
"3 g.o 8 % X } h.P s.h.G v p.* 4 H.{._.[.].).R.I.I.I.XX[.Q.Q.Q.Q.W.f.4 >X& *.8 m r.o w & X %.p.Z %.p.",
"n %.B # | & L a.N :.@X,XY X.{ } U wXrX`.).Y.Y.I.I. X}.Q.Q.Q.Q.D.6.*.H s.r } i.I X.3 & | & P %.* %.H ",
"%.( O & W >.X.P * $.& ;.C.8 <.} 8 ] wXrX).I.Y.'.XX}.Q.Q.Q.Q.F._ Q 8 %.Z / $ | z.L o % V ^ } T C b.B ",
"f.*X+ & P %.P B 7 T @X%X8.n B a.5 , y G.tXyXiXyX~.W.W.D.F.l U | $.o ;.} o Z & -.{ . 7 K } P n 7 0.t.",
"9 l.u.Q Z | H <.P K h.X.P -.o K O a @ 7 +.h -.# P 5.7.O.N &.>XE $.3 & Z + $ & & $.h Y B T 5.| H  .7X",
"X 0.d.& & Z X.% o.1 c.j.5 * X { * x.B 7 % c.M M o =X^ M 8 B l.H ;.X . { & J 8   / *.& & z g.% J.# v.",
"G H q - r -.8 K n H R &.j i P V C 6X=X| N Q @ G C L N ,X> 5.<.b { M * L & $.M X.<.% t ] ;.8 @XH H 6.",
"B v & m #.% L / & 8 >X7.8Xf.B G o v.h.c.@ n X { 8 & P >.o C.=X7.*.M t.& % %.*.B % b B o.$ L ,.7 6 8X",
"G a.$.Z $Xn $ G r # k.} Y >X5 k.M & +.1.. Z.V.{ %.$ @ %.o ;.k.q.4.* f.%X  { C G < :X* *.n $ Z.z % k.",
"G N -.{ / M * & } & *.F 3 %.# 3.p.M S @X= B 6XD %.+ n V J | T 5 B r L g.{ H a  .+ c.K L n n 8 -.& i.",
"7 v H $.8 L :.-.8 % %.m @XI X @ Q G v 7.5 M d.| 8 } } Z & G n #X,X7 o B L 6 7X8 i T h.V P s.c.V + h ",
"# s.O.h M 5 0.9 5 o L 6 n.<X@ . c % | J y r.O.$.o >.W C X 7 3 s.k.| o G t # M.. %X..:.M N [ 8 V o L ",
"G s.G i.P a z f o V.t B M.M.} & %X* B h H p.n %.v +X3 a : Z.o X.i.h G J g.& M.J f.d *.L a ] - o M & ",
";.s.L +.] :Xs 6Xr a.:X7 s.*.X.%.l.1Xd %.n *.H ] 8X@.h p.Z x.l H %.a.L *.*.{ H G } L +.=X:XM %.M { *.",
" .3.M ] :X:.+.p.*.X.s.i.C -.J E z.i.r H n $.o 5.h.T %Xi.} 3.i.{ H i.& | %.$.8  .>.H *X6Xa.J *.*.| } ",
"C 3 n $Xh.M | %.W ] V { o H M = V X.{ % n G * l.*.* :.<.Q 8 | 8 o } @ : L :.8 L * n x.M.o.K %.V Q V ",
"& # * a.%.* ' D + @Xu U o _ _ @Xj 8 9 p % M r *.+.O Q & & } M # X ( 4 ,X8 q & & @ 5 p.d.C S D + K M ",
">.@ * *.p.#X%X2 { 8 -.E Z.8.=X6 / : #X6.n O { d.Z @ Z r n / y.&X: 7XH L V V.5.>.@ C M.v.o l 2 %.& X.",
"| | h $.O.h.K Z } o.7 *X%.P h.O.j $XC s R %.p.;.=X,X5 +.+.C L j.K 3X=.# <Xg.o { w.M.b.7.<X8.Z @.o.7 ",
"%.P -.L X.*.g ..V Q 7 n | C %.W } X.# N v 5.X.D 6Xy.7 ' ) ! o ;.%.O.o.a k.@.X } T s./ 9.h.Y s Q C # ",
"q.} W o B %.E f.a =Xr & 7 % G K *.O.l 9.8.M 1 4 <.U @XE d.:.o n ) B & f.*.6 c L } 8 O N *.u 7X5 { r ",
"% >.n G G V +.p.7 l.=Xn # +.$ { <.@ K r P %.> *Xm 5.x.:.( 8X+X< G 8 # +.C # h.# | n { K V X.M.3 h =X",
"& X.& <.L o } $Xs s.z.b + h.X C B K >.7 @X5.F x.2 A m.M.n 6X%Xy &Xs o 3.& @.2.* +.% <.L o *.d.r } n.",
"& } + # * X k x.r x &.T K *.G & n *.h = :.K X Z o # d.M.6 M.j.C k.h.# { & *.n . x + # 8 X 4.M.Z { s.",
"H X.8 % / G P } & x S z & <.{ %./ X.O.%X#.o.X C O.K | :.B j.H @ ;.} K <.{ P %.h 3X8 % T G | v.8 X.C ",
",X9.@ & B / } L * } * %Xp 9 >.%.8 Q 7 x.3Xq X M Q | } % | &.6 M / % $.n W # H h T o # Y R X.T * X.r ",
"c.:Xc 3 { *.U v 8 T u.z %Xg # :.& # & ^ x.u n 8 *.K L n 8 3Xx | *.# L } X Z @  .%.T * b r.Z M 8 o.$X",
"% -.*.Q 8 Q 4X7.>.P k.u L P X J X G + n O.a.o.# ^ P X.N.P c.a.8 } 1 @ 5 3 # r # -.M.Q 8 ) | P P >.,X",
"& / | & * H O.0 5.& T *.& & @ K n %.M & % +.* G + :.W +.7 B a.g g.+ . %.t t.& . L 4.& * G P & P n +."
};
