/* XPM */
static char *result[] = {
/* columns rows colors chars-per-pixel */
"50 50 236 2 ",
"   c #39591F",
".  c #3B641F",
"X  c #3F761F",
"o  c #315221",
"O  c #355B23",
"+  c #385E26",
"@  c #366320",
"#  c #396424",
"$  c #3B6B24",
"%  c #3B6429",
"&  c #3E6C29",
"*  c #3C7322",
"=  c #3E7B21",
"-  c #48681D",
";  c #4B7C1D",
":  c #40711F",
">  c #55791C",
",  c #486E22",
"<  c #406D2B",
"1  c #436B23",
"2  c #427326",
"3  c #4B7321",
"4  c #417B25",
"5  c #4B7B23",
"6  c #417429",
"7  c #457C2B",
"8  c #4A7A2C",
"9  c #547D25",
"0  c #457530",
"q  c #497E32",
"w  c #637820",
"e  c #59861D",
"r  c #59891D",
"t  c #5A961E",
"y  c #4E8A1D",
"u  c #678A19",
"i  c #69931C",
"p  c #6A9B1A",
"a  c #65981D",
"s  c #759418",
"d  c #57A41D",
"f  c #58B61F",
"g  c #6BA71A",
"h  c #7AAB19",
"j  c #74A71B",
"k  c #6BBA1C",
"l  c #66B31D",
"z  c #7FB41A",
"x  c #77B71B",
"c  c #428322",
"v  c #4E8323",
"b  c #448B23",
"n  c #4A8C24",
"m  c #468429",
"M  c #49842C",
"N  c #4B8C2B",
"B  c #478929",
"V  c #598220",
"C  c #558E24",
"Z  c #52852A",
"A  c #538A2B",
"S  c #598727",
"D  c #459421",
"F  c #4A9425",
"G  c #479921",
"H  c #4B9D24",
"J  c #4C942B",
"K  c #4D9B2A",
"L  c #5D9324",
"P  c #5B9B22",
"I  c #50952C",
"U  c #519B2C",
"Y  c #5B9C2D",
"T  c #569725",
"R  c #4B8631",
"E  c #4D8B32",
"W  c #508F32",
"Q  c #50853B",
"!  c #529332",
"~  c #539B32",
"^  c #589B39",
"/  c #4F9033",
"(  c #608F26",
")  c #6C9D24",
"_  c #669926",
"`  c #6C9929",
"'  c #4BA422",
"]  c #4DAB22",
"[  c #4EA228",
"{  c #51A426",
"}  c #5EA224",
"|  c #50AD25",
" . c #52A32C",
".. c #5AA52D",
"X. c #53AA29",
"o. c #5BAC2C",
"O. c #5CAB25",
"+. c #4EB121",
"@. c #51B324",
"#. c #5DB422",
"$. c #51B921",
"%. c #5DBC21",
"&. c #55B12C",
"*. c #5BB32C",
"=. c #5BBC2A",
"-. c #55A332",
";. c #5BA533",
":. c #57AD32",
">. c #5BAC32",
",. c #5FAD39",
"<. c #5DB431",
"1. c #5DB930",
"2. c #68A727",
"3. c #77AA27",
"4. c #63B42C",
"5. c #67B828",
"6. c #78B626",
"7. c #63A535",
"8. c #61B433",
"9. c #61BB31",
"0. c #64BA38",
"q. c #6EC71C",
"w. c #79C51B",
"e. c #78C61C",
"r. c #7CD31D",
"t. c #57C124",
"y. c #5AC425",
"u. c #5EC62A",
"i. c #62C42C",
"p. c #63CB2B",
"a. c #69C925",
"s. c #76CB26",
"d. c #65D32B",
"f. c #69D52D",
"g. c #6CDA2E",
"h. c #6AD226",
"j. c #7DD525",
"k. c #76D828",
"l. c #65C432",
"z. c #68CA33",
"x. c #6CD631",
"c. c #7CE32B",
"v. c #75E12E",
"b. c #70E030",
"n. c #5DA441",
"m. c #AA9B0A",
"M. c #86AE13",
"N. c #87B817",
"B. c #94B915",
"V. c #B5A70B",
"C. c #B2B412",
"Z. c #ABAE0E",
"A. c #83BB22",
"S. c #959410",
"D. c #DB9300",
"F. c #DC930B",
"G. c #E58D03",
"H. c #EC9500",
"J. c #EB9B00",
"K. c #E39600",
"L. c #EB9B0B",
"P. c #D4AA00",
"I. c #D9AE00",
"U. c #C4B30D",
"Y. c #DDB100",
"T. c #D7BA06",
"R. c #C2A707",
"E. c #EAA301",
"W. c #EBAC01",
"Q. c #E6A601",
"!. c #F4A500",
"~. c #F5AB00",
"^. c #F8AE00",
"/. c #E2B500",
"(. c #EDB401",
"). c #ECBB00",
"_. c #F4B400",
"`. c #F5BC00",
"'. c #F8BC00",
"]. c #F8B300",
"[. c #E1A81D",
"{. c #E4B32D",
"}. c #86C41B",
"|. c #89C719",
" X c #98C814",
".X c #8CDB1A",
"XX c #88D61B",
"oX c #9CD514",
"OX c #92D41B",
"+X c #98DB1A",
"@X c #B4D60F",
"#X c #A6CD15",
"$X c #A6DB13",
"%X c #BDC310",
"&X c #93E81E",
"*X c #98E317",
"=X c #A5E815",
"-X c #ACF116",
";X c #B7EC10",
":X c #86C723",
">X c #86D723",
",X c #91DA23",
"<X c #91C725",
"1X c #84E426",
"2X c #8AE322",
"3X c #8EE923",
"4X c #94E220",
"5X c #C6C90C",
"6X c #DBCB0A",
"7X c #D8C007",
"8X c #D1D50A",
"9X c #EDC302",
"0X c #E9C806",
"qX c #F4C300",
"wX c #F9C500",
"eX c #F4CA01",
"rX c #FECC00",
"tX c #EBD702",
"yX c #F5D202",
"uX c #FDD400",
"iX c #FEDA00",
"pX c #F3DB01",
"aX c #F5D51D",
"sX c #EFE402",
"dX c #FDE400",
"fX c #FDE900",
"gX c #F2E601",
"hX c #FEF300",
"jX c #FEFD00",
"kX c #FEFB0B",
"lX c #FAF009",
"zX c #ECCB33",
"xX c #F2D333",
"cX c #FDFD31",
"vX c #FBF62D",
"bX c #F6EA4C",
/* pixels */
",X-.& & E X.|  .6 f e F @ M a.oX~ 8.8 p.<.^ o ^ 8.z.8.^ t +Xt * B 3.*X~ z.R 9.+X8.% $ ! 9.X.<.6 f ; ",
"1XA.o $ U <X4.N 6 r.{ L h $ N =.M R 4 i.l.0 o ~ A.6.z.%  .s.2.G >.+ i.D < M I c.Y o 2 ..0.X.m 4 o.N.",
";.1Xw.B G 5.B  .c a.f H s.k # ' 6 2 % 7 :X#X5XT.0X6X6X8X8X@Xe.K $.* N J o 7 @ ;..X' b J $.S 8.J ' c.",
"O 8.p.S V M | M :.7 @.] 7 m o | $ z.V V.rXrXrXrXuXyXwX'.9XyXgXB.{ + @ D > j m O  .$.7 6 _ ,XS [ 7 =.",
"= K ~ v C ' B c  .c W $.= = = U c ,X0XrXrXrXrXuXwX^.^._._.(.).gX X= $ ] ; j.* c K ~ * v OXT c b c M ",
"b < @ m K Q B X.= Z .X~ @.@.3.L w 0XrXrXrXrXuXrX^.!.!.~._.`.(.`.sXN.' 6 $ d.$.b 6 # e 2.0 b | R M v.",
"b @ ] * $.* m J = $ k.i.-.$.c x.U.rXrXrXrXrXiX`.~.!.!.~.qX`._.).eX5X] ' O @.[ b # w.4 x.7 7 ;.i 1 c.",
"D @ $.H [ c @ 7 ] * f ~ * +.7 <XeXuXrXrXrXiXiX`.^.!.!.qXhXqX_._.).tXx $.b H 2 D @ a.}.9.b . m s.* t.",
"m i ;.] m U +.D N * $.e h F O U.rXrXrXrXrXdXrX`.].^.W.fXjXpX`._.).eX5XJ X.v |.v = F i.M F @.G W 2 $.",
"o s.A.f * b ^ / c O ] * k.;X- qXrXrXrXrXrXdXeX'.`._.eXjXjXhX`._._.).sXH & 2 h.o oXN.g.7 c ~ ! = @ l.",
"D i.F t.#.) n > # $ & * f $.B.rXrXrXrXrXeXuXqXqX'.rXfXhXhXhXdXqX_._.tXB.}.$ 2XH z.J y.*.Z T > % $ 6 ",
"{ u.c ] :XXX( .X* f  X$ %.p.C.rXrXrXrXqXrXeX`.eXuXdXfXdXdXdXfXiXyX).).@X1Xt ' H @.b | v OX_ .Xu ] ' ",
"G 9.c 8 5.f H g.g. .@.$.J @.T.rXrXrXqXqXrX'.Q.qXiXiXuXiXiXiXuXiXuXQ.W.@Xg.@.6 G ' c 8 |.b.U b.g.-.p.",
"..M c 5.3X2.5.u.K J J | # [ 9XrXrXwXqX`.qX].~.D.rXrXrXrXrXrXrXrX(.J.Q.%X[ $.* F 7 c N.c.;.=.d. .K ~ ",
"* & F g.g.c Y ~ # B.L H o M 9XrXqXqX9X).qX^.~.D.`.rXrXrXrXrXrXrXE.J.E.@X* E $ 6 * B c.h.c A ! @ H 4 ",
"F O 6 y.d.9 oX> [ M u.2.i X.0XrXqX9X).).`.^.~.~.D.rXrXrXrXrXrXqXJ.J.J.%XB > F F + = u.] % p > D 7 $.",
"[ F ' g.5.OXO.4 y.F E |.k D 6XqXqX).).Y.`._.!.^.G.rXuXuXuXuXuX'.K.J.E.C. X>X6  .X.' $.O. X6.I $.X.M ",
"' K @.J X.y.b L 7.A $ I z.J C.qX).).).Y.)._.H.H.G.pXfXfXfXfXfXeXH.J.E.Z.g.<.o ' I x.>.5.g. .( A E 6 ",
"X.] / # b $.C OXp N.5 4 N 6 N.).9X).Y.Y./.~.H.H.G.fXkXkXkXkXkXyXJ.G.W.#Xu.m U 1.| ~ % 2.b.L OXK j $ ",
"8 &.c e L K g h.q k.+X$ 3 r S /.Y.Y.Y.I.I.`.H.H.G.vXcXcXcXcXcXaXJ.H.).=.X.$ $.6 X.c : m o.2.v.6 k.q.",
"V :X* &.H # s.2Xb i.p.D $ y.o V.Y.Y.I.P.P.).!.H.F.bXbXzX{.zXbXxXJ.E.R.K * b  .> }.M &.H % j.b.F i.h.",
"= s.O q & o | d.U i.d.D z y.= > I.Y.P.P.P./.].H.G.{.L.J.W.Q.F.[.E.).s $X* $.7 v e.O 7 & o @.u.b @.u.",
"c @.7 * [ * K u.B =.|.=XT X.G ] Z.P.P.P.P.P._.J.L.H.H.E.E.(.(.Q.(.5XF u.b | =.t @.= & [ $ J @.4 @.J ",
"@.-.O $ M -.] U 4 +.* *.}.7 o.] v m.P.P.P.P.Y.qXH.H.H.H.!.Q.W.(.0X) @.M ~ & ' j.J O $ M ~ ] K B g.7 ",
"a.OX. $ H @.K c 2 K XXXX5.= m p.4 u R.P.P.P.P.).].H.J.H.J.Q.W.pX#XO =.' O m 6 $.' O 2 H ] K c 6 2.e.",
"7 k.k.N m  .F >.J [ d.X.K &.O H + i - S.P.P.P.P.(.wX~.J.J.(.pXB.@.4 * m @ $ * 7 $.$.J m  .2. .F  .2X",
"o 7.d.* * c | &  .& l.h.4 4 o ' 4 k.m 6 3 B.m.V.m.T.T.0X/.C.XXH X.o . ] * G 7 o ^ $.* * j s.& A.& l.",
"D B 0 ; n &.7 H c F Y 4.g y H M N 1X+X .B E # D A K v =X9 2.>.x ' b = F * $.b { -.6 e _ 1.6 |.n F 3.",
"7 N.* v O.< J ~ * 2 *X4.3Xa.m D o l.f.l.# c o ' 6 * K ~ o }.$X4.+.b }.* # @.+.m & x c X.& J ;.2 5 3X",
"D =.$.b .Xb & b b $ g.@.~ *X4 g.D * X.7.. N.M.] $.% $ $.O *.g.<.9.c a.XX@ ' J D - &X4 $.c % N.j $ g.",
"D F &.' U b = 6 ] * $.S 1 @.$ <.y.b N |.- m 1XA &.@ = R D ' U 7 m c I s.' F i [ + l.H J c c 7 &.* y.",
"6 z F +.7 F =.X.7 # $.v |.L o # / F h 5.4 m p.' 7 ] @.b & D c  X=X2 O m J 5 2X7 t  .p.M K i.i.7 $ @.",
"# p. .$.c 4 7.7 4 o K m v.-X$ . g $ X.D r q. .+.@ -.R N o < 4 i.g.' o D e $ b.. OX} t.b M 7.7 M O J ",
"D i.J $.K i x s O M.V m b.b.] X XXc m f G y.c @.z N.2 i > N.O X.t.$.D D s.* b.D a.P @.J i _ ; O b * ",
"o.p.T o._ &Xp 1Xb 9.=X& l.$.X.@.h.;Xt @.c $.F ` 3XX.#.u.b k.h J $.u.U f $.' D D | U X.oX&Xb +.D ' $.",
"{ >.F L &X=.X.u.f | u.t.M @.D T s.u.b F c +.+ 2.f.[ XXt.] <.t.' J t.* K $.@.7 {  .n OX1Xl.G $.+. .@.",
"J * c .Xd.b { @.R _ M ] O F D , 5 @.[ $ c D = h.$.= =.:.E m H 7 O ] # > J &.7 J = c k.g. .' ] R N 7 ",
"* % c u.+.4 ) A @ |.a P   L ( |.g 0 8 u 1 b c $.| + E * $ | b * o ^ 3 =X7 7 * * # 4 u.f.B S A @ H b ",
"-.# = +.%.oX:X, ' * X.C N.5.OX9 ~ > B.3.c + ] p.M @ R c c ~ e.oX> 2XG I M M.2.~ # B b.z.O h , &.6 | ",
"[ [ $.@.X.d.H b | -.8 XX@.K d. .g .XN j T $.y.o.+X=X; | X.N J x.D >Xi.. -Xk.O [ 9.b.x.4.-X5.b X. .6 ",
"&.K &.J X.+.O.} R E 6 m X.N @.R X.+.$ n z 2.X.A c.e.2 ` / E @ *.&.>. .i g.X.o ' U i.~ 6.d.I ) A M * ",
"8.] R O m $.F q.p OXc * * & D G $. .h 6.5.b 6 3 o.} |.T z.=.O c / c * a.$.5 l K ] 7 O N $.t 2Xc ] v ",
"& X.c D D M { u.2 h.*X= $ X.% ' o.% H c K @.> OXv 2.k.=.~ 3X}.1 D = # X.J & d.&  .c H H M X.g.4 f .X",
"* | * :.F O | .Xp i.j.z . f.o E m H >.4 |.2.S k., C v.b.c 1XXXu oXp O <.* o.;.* [ 2 :.H O $.p.c +.j.",
"* ] @ $ = o 2.k.c k 4.U H $.D * c $.| - u.F o R O $ p.b.c v.z.M g.d.$ ' * $.b * k @ $ 7 o 9.g.b ] i.",
"F | 0 $ ~ D ' ] 2 k v h * :.+.] [ ] ..OXO.| o M X.H  .*.7 d.F $ *.X.' :.' [ ] l >X7 $ ~ D  .z.7 | N ",
"=X3.$ $ B ~ ] J : +.= >Xu 8 -.] 7 R 6 k.:X0 o D E K ] & [ #.5 b ~ & ] c M $ D f ~ O * C Y | U 4 +.y ",
"l.&Xl 4 H $.P N.=  .r.g XXd $ =.7 $ $ ! k.d c 7 $.' J c 7 >Xk [ $.$ J ] o m % X.+.U 4 x q.B b 4 ...X",
"6 &.@.Q 7 / XX4.-.~ k.d N K o D o D @ = ;.u. .# ! K X.,.F l.p.4 ] < # 4 4 $ c $ $.b.Q 7 ! ' ~ K -.=X",
"* ~ | * = D >.w } * K $.* * $ H c $.b * * :.4 D $ $.R  .6 M i.| s.@ . @.e w.6 . J *.* = D K * F = o."
};
