/* XPM */
static char *result[] = {
/* columns rows colors chars-per-pixel */
"50 50 237 2 ",
"   c #39591F",
".  c #3B641F",
"X  c #315221",
"o  c #355B23",
"O  c #385E26",
"+  c #366320",
"@  c #396424",
"#  c #3B6C24",
"$  c #3B6429",
"%  c #3E6C29",
"&  c #3C7322",
"*  c #3D7B21",
"=  c #466B1D",
"-  c #4B7C1D",
";  c #42711F",
":  c #52761B",
">  c #567C1D",
",  c #67791A",
"<  c #446C23",
"1  c #486F23",
"2  c #406D2B",
"3  c #416521",
"4  c #437325",
"5  c #4B7321",
"6  c #417B25",
"7  c #4B7B23",
"8  c #417429",
"9  c #457C2B",
"0  c #4A7A2C",
"q  c #547F24",
"w  c #457530",
"e  c #497E32",
"r  c #4D871E",
"t  c #59861D",
"y  c #59881D",
"u  c #5A961E",
"i  c #4F911D",
"p  c #68891B",
"a  c #69931C",
"s  c #6A9B1A",
"d  c #64991D",
"f  c #729218",
"g  c #57A41D",
"h  c #58B61F",
"j  c #4DA31F",
"k  c #6AA81B",
"l  c #7AAB19",
"z  c #74A71B",
"x  c #6BBA1C",
"c  c #66B31D",
"v  c #7FB41A",
"b  c #77B81B",
"n  c #428322",
"m  c #4E8323",
"M  c #448B23",
"N  c #4A8C24",
"B  c #468429",
"V  c #49842C",
"C  c #4B8C2B",
"Z  c #478929",
"A  c #558E24",
"S  c #52852A",
"D  c #538A2B",
"F  c #598625",
"G  c #459421",
"H  c #4A9425",
"J  c #479921",
"K  c #4B9D24",
"L  c #4C952B",
"P  c #4D9B2A",
"I  c #5D9324",
"U  c #5B9B22",
"Y  c #51942C",
"T  c #519B2B",
"R  c #5B9C2D",
"E  c #569726",
"W  c #4B8631",
"Q  c #4D8B32",
"!  c #508F32",
"~  c #50853B",
"^  c #529332",
"/  c #539B32",
"(  c #589B39",
")  c #4F9033",
"_  c #608F26",
"`  c #6C8820",
"'  c #6C9D24",
"]  c #669A26",
"[  c #649A32",
"{  c #4BA421",
"}  c #4DAB22",
"|  c #4EA228",
" . c #51A426",
".. c #5EA224",
"X. c #50AC25",
"o. c #5CAA24",
"O. c #52A32C",
"+. c #5AA52D",
"@. c #53AA2A",
"#. c #5BAC2C",
"$. c #4EB121",
"%. c #51B324",
"&. c #5DB422",
"*. c #51B921",
"=. c #5DBD20",
"-. c #55B12C",
";. c #5BB32C",
":. c #5BBC2A",
">. c #55A332",
",. c #5BA533",
"<. c #57AD32",
"1. c #5BAC32",
"2. c #5FAD39",
"3. c #5DB431",
"4. c #5DB930",
"5. c #67A726",
"6. c #75AA28",
"7. c #63B42C",
"8. c #67B828",
"9. c #75B326",
"0. c #63A535",
"q. c #61B433",
"w. c #61BB31",
"e. c #64BA38",
"r. c #6EC71C",
"t. c #79C51B",
"y. c #78C61C",
"u. c #7CD31D",
"i. c #57C124",
"p. c #5AC425",
"a. c #5EC62A",
"s. c #62C42C",
"d. c #63CB2B",
"f. c #68C925",
"g. c #76CB27",
"h. c #65D32B",
"j. c #69D52D",
"k. c #6CDA2E",
"l. c #6AD226",
"z. c #7DD525",
"x. c #76D828",
"c. c #65C432",
"v. c #69CB33",
"b. c #6CD631",
"n. c #7CE32B",
"m. c #75E12E",
"M. c #70E030",
"N. c #5DA441",
"B. c #869717",
"V. c #88AE13",
"C. c #86B916",
"Z. c #92BE16",
"A. c #99A914",
"S. c #AAA70F",
"D. c #BBA107",
"F. c #B8B60B",
"G. c #A6AC15",
"H. c #83BB22",
"J. c #89AF20",
"K. c #A5970E",
"L. c #D78500",
"P. c #DC980C",
"I. c #E48901",
"U. c #ED9500",
"Y. c #EC9B00",
"T. c #E29802",
"R. c #F29C00",
"E. c #DCB100",
"W. c #DBBC05",
"Q. c #CBAD06",
"!. c #EAA301",
"~. c #ECAB00",
"^. c #E6A000",
"/. c #F5A500",
"(. c #F5AC00",
"). c #EDB400",
"_. c #EDBC01",
"`. c #E3B801",
"'. c #F5B500",
"]. c #F5BB00",
"[. c #F8BA03",
"{. c #EBB614",
"}. c #DEA52B",
"|. c #E5B52C",
" X c #86C31B",
".X c #8BC419",
"XX c #88C919",
"oX c #96C814",
"OX c #8CDB1A",
"+X c #88D71B",
"@X c #9CD514",
"#X c #92D41B",
"$X c #99DB19",
"%X c #B8C713",
"&X c #A4DC16",
"*X c #ACCA16",
"=X c #93E81E",
"-X c #98E318",
";X c #A5E815",
":X c #ACF116",
">X c #B9F30F",
",X c #86C722",
"<X c #86D822",
"1X c #92D421",
"2X c #91C725",
"3X c #85E526",
"4X c #8AE322",
"5X c #8EE923",
"6X c #94E220",
"7X c #DDC707",
"8X c #CBD40B",
"9X c #EAC403",
"0X c #F5C300",
"qX c #FBC500",
"wX c #F3CB01",
"eX c #FECC00",
"rX c #F2D301",
"tX c #FDD300",
"yX c #F4DC01",
"uX c #FEDC00",
"iX c #E5D705",
"pX c #D3E50A",
"aX c #E8E704",
"sX c #F4E501",
"dX c #FEE200",
"fX c #FEEB00",
"gX c #F5EB01",
"hX c #FEF604",
"jX c #FEFA01",
"kX c #EEF103",
"lX c #FEFD23",
"zX c #FCF722",
"xX c #F5E53F",
"cX c #ECCE31",
"vX c #FBF84D",
"bX c #F2E341",
"nX c #EAC546",
/* pixels */
"1X<.% % Q @.X.| 8 h t H . V f.@X/ 0.V d.3.( X ( 1.v.2.( u $Xu & L 6.$XY c.W w.$Xq.O < ^ 4.@.3.8 j - ",
"n.H.X # E 2X;.Q 8 u. .u l # C :.V W 6 s.g.` , J.*X*X1X, #.l.6.J <.O s.G w Z L 3XR X 4 ,.e.+.B 6 #..X",
"0.3Xt.Z J 8.C O.n s.h  .g.x @ } 2 0 p Q.eXeXtXuXrXtXyXdXaXpX+XP *.* C L o 9 o >.+X} M P *.E 7.L  .x.",
"o 3.d.F F V X.V <.9 $.{ 9 Z X  .< %XeXeXeXqX'.(.(.'.'.'.0XrXgX%X..O + G : z Z o O.*.9 % ] 1XF P 9 a.",
"* P Y m i { C n O.n ^ *.& n * [ W.eXtXeX'././.(.(.'.'.'.'.].9XyXkXy @ } - z.& * P / & r #XR Z Z B C ",
"Z 2 + B Y ~ Z X.6 S OX/ *.*.6.W.eXuXuX'.(././././.(.'.'.'.].]._.rXkXc 8 & h.h Z 8 @ t 5.8 Z X.m V n.",
"Z . } & *.& 9 L * # u.s.O.*.G.eXtXdX0X'.(.(./././.yXfX].'.].].].9XyXpXj X %. .M + t.9 k.9 9 <.a . n.",
"G + *.K | M + 9 } & *./ 8 c 0XeXfXuX].[.'.(.(./.).jXjXyX'.'.].].)._.sX+XG K 8 G + d.C.w.r + 9 b.& i.",
"B a #.{ V P $.G Q & *.t z G.tXuXfXwX].].'.'.(.~.hXjXjXjXtX'.'.'.].).wXaX@.V XXZ * L s.B L %.J Y 8 *.",
"o g.H.*.& M >.^ 6 o } & <XtXeXdXtXqX0X0X[.'.qXsXjXjXjXjXhXtX].'.].)._.gXf 4 r.o @XH.k.B n / ! 6 @ s.",
"G s.G :.-.' N : @ & % & b eXeXuX0X].0XqXeXuXdXfXfXfXfXfXfXfXdXtXqX).).wX8X# =XK s.K i.;.m R : $ # 8 ",
" .a.n } ,X+Xa #X& g @X# Z.eXeXeX'.].).tXuXuXuXuXuXuXuXuXuXuXuXyXuX9X!.).pXK  .P o.N } S #Xa OXp } { ",
"K :.n 9 &.h K k.j.O.$.*.G.eXeXqX(.'.L.).tXeXeXtXtXeXeXeXeXeXeXeXeXT.^.~.aX$.8 G { n 9 .Xb.O.M.k.O.d.",
"+.V r 8.3X9.s.p.| L L X.S.qXeXqX/.(.(.L.qXeXeXeXeXeXeXeXeXeXeXeX!.Y.!.^.iX*.& P 9 n C.n.1.:.h.O.T / ",
"& # C k.k.B R ^ $ Z.I  .K.qXqX[././.(.T.T.eXeXeXeXeXeXeXeXeXeX'.U.T.^.^.iXW & % & N n.h.n S ^ + P 6 ",
"H O 8 p.d.q @X> | V a.] S.0X0XqX/././.(.L.].eXeXtXeXtXeXtXtXeX!.U.Y.Y.^.7X> H L o 6 p.} $ s > G 9 *.",
"| H } j.s.#Xo.n p.H Q XXZ.0X0XqXR.R.R.R.L.).dXdXdXdXdXdXdXdXdX(.U.U.Y.!.iXz.% O.@.{ *.o.oX9.Y h  .Q ",
"{ L %.L  .p.Z I [ D # Y g.9X_.eXR.U.U.U.L.9XhXhXhXhXjXjXhXhXhX'.U.T.U.).&X;.X { P b.0.c.M.O._ ! Q 9 ",
"-.} ) @ N *.y #Xk C.7 6 S Q._.qX(.U.U.U.I.{.lXlXlXlXlXlXlXlXzX{.Y.U.I.].g.V T :.%.^ @ 5.k.I #XT z # ",
"0 -.n t I P  .u.e x.$X# 5 B.`.`.qX/.U.U.I.|.vXvXbXcX|.cXxXvXvX{.Y.Y.~.8X .# :.% X.n & m 3.5.x.6 x.x ",
"t ,X8 -.K O g.4XZ s.d.G @ f.D.`.0X'.Y.U.I.}.nX}.T.Y.~.T.P.}.|.{.!.!.9X5.& M O.> ,XV -.K O z.M.N d.j.",
"& g.o 9 % X X.h.T s.h.G v p.p `.`.qX/.U.U.I.U.U.Y.!.~.~.).~.!.T.!.9XG.;X& *.9 m x o 9 8 X %.p.M %.p.",
"B $.6 & | & L a.N :.XX;XE @.j V.E.E.].(.U.U.U.U.R.Y.!.(.~.).~.).wX8XH :.M X.:.u %.6 # | # L %.6 %.C ",
"$.( O & W >.X.T * $.& ;. X9 <.{ B.Q.E.].'.Y.U.U.U.U.Y.!./.~.9XaX%XV %.C / %  .x.L O # V / X.P C k.B ",
"r.#X+ # K %.P B & / +X+X=.* B d.- ` D.Q._.qX[.!.R.U.Y.!.).yXaXb X.o ;.} o n % *.{ o 4 K X.P n 8 5.y.",
"9 b.u.Q B | H <.L K h.@.P #.o K O a   p A.F.W.`.wXqX0X9XF.XX-XY X.6 8 Z + # & 9 *.*.L B O.5.T H O.4X",
"X 0.l.& & n @.% | % c.j.n 6 X j * x.V 8 % w.M M O $XY Z 9 V l.H %.X o $.& J 9 X ( $.& & z g.% H.% v.",
"G H w - N -.9 { r H [ &.s H P V Z 3X$X .Z Y $ G C L A ;X> 5.1.b j M 6 L & $.r } O.0 t ] ;.9 XXN H 6.",
"9 v & m o.% L ( 4 4 -X7.4Xf.B G o c.h.c.@ n X { & & / >.o C.&X7.*.M t.& @ %.*.B % b 9  .% L ,.4 5 5X",
"G p.*.Z OXn $ G M # k.%./ -X6 k.G & @.1.. C.V.} *.@ @ $.o ;.k.4.4.* f.+Xo { C G = =X* *.n $ C.z # k.",
"G L -.K / G * & X.& *.D 5 } # 4.i.Z S XX= Z 3XD -.@ n V G { T 9 B r L g.} L a  .@ c.| L n n 9 -.& p.",
"8 v H %.* L :.#.8 # *.m XXI X @ Q H v 7.6 n d.| 9 } %.M % G n oX;X4 o V L - 4X0 i O.d.B P s.c.9 # *.",
"+ d.O.*.r * 0.w 6 o L 6 n.:X. . c 2  .G y r.@.$.o >.W C X 2 6 s.k.{ X J t # M.. #X..:.M C ] w C X L ",
"G s.H =.T a b s o V.F B M.M.$.& +X* B h H p.n $.v  X< a : C.o X.i.h G G g.& M.G f.U *.L a ] * o M * ",
";.s.Y @._ =Xs 3XM s.;X& c.*.@.%.l.>Xd $.n *.L [ 3X#.h a.Z x.l L $.d.Y *.*.{ G G %.P  .$X5XM h r | *.",
" .3.Z ] =X4.@.p.$.@.a.:.C %.G E g.p.M H * $.O z h.P +Xp.$.;.i.| L p.& | *.$.9  .>.N #X3Xs.J *.*.| %.",
"C * n OXj.M  .%.W R V } o H M 5 7 %.| # B J * l.*.6 :.<.Q 9 P 6 X %.@ : L %.9 ^ & n x.M.| | X.Q Q 9 ",
"& @ * p.*.* ' D + .Xd U o _ _ .Xk w 0 p # M n h X.@ Q & # %.M & X ( 5 ;X9 w & & @ n p.f.Z D S + K M ",
">.@ 6 *.=.oX<X1 { 8 -.A C.8.$X7 T : Z.6.n O { d.Z . Z n n / y.@X: 4XJ ^ C V.5./ @ C M.v.o l 1 %.& X.",
"| | h $.O.j.K Z  .@.9 OXj P j.O.z OXC z E %.p.;.$X;X7 @.@.C L j.H <X=.# :Xx.O K w.M.b.7.:X8.Z @. .8 ",
"-.P -.L  .*.o...V ! * B @.Q %.V  .%.# H C.5.X.D 3Xt.4 ' L ^ O ;.%.+.O.a k.<.X { | c./ 9.h.Y ' D Q # ",
"2.} V O Z $.E f.a $Xn . & % G K *.O.l 9.8.Z 2 1 <. ..XE v.:.X n Q B & l.*.7 c L } 8 O C *.u 4Xn } r ",
"& O.n G G B  .p.8 l.$Xr # @.@ | <.@ K n P %.> #Xq 5.x.:./ 4X X< J 6 # | C # h.# O.n K J V @.k.6 h -X",
"& @.& <.L o $.OXs s.x.v + j.X C B { ,.4 .X5.F x.< A m.M.B 3X+Xp @Xs O 3.& #.<.& @.& <.P o *.d.n j x.",
"& } . + * X 5.x.r x 7.T K *.G * n *.h = a.H X B o # d.M.n k.b.V b.j.# { & *.n & x + # 9 X w.k.M } s.",
"J -.9 % / G | } & x m z % #.} $./ } +.+X#.O.X C @.J +.;.9 j.H # ;. .{ <.{ P %.c <X9 % T G O.v.9 X.C ",
";X6.@ & Z L @.L * } n +XI 8 >.$.9 Q 8 x.,X0 X G C | } % | &.0 M ^ % $.n W # J h T o # A +.X.T 6 } r ",
"c.=Xc 6 | *.U C.& O.u.z XXg # :.8 # & Q x.g n 9 *.| L n 9 <Xx { *.# L } X B $  .%.T 6 b r.Z Z 6 +.OX",
"8 -.*.~ 9 ) #X7.>.P j.U L P X J X M + n ,.s.| @ ) K X.N.K c.a.9 } % @ * 8 # r # *.M.~ 9 Q | / P >.;X",
"& /  .& * G +.F 5.& T *.& & + K n *.M & & <.6 G . :.W @.8 V p.o.z.+ + %.y t.& + ) 4.* * G K & P 6 X."
};
