/* XPM */
static char *result[] = {
/* columns rows colors chars-per-pixel */
"50 50 231 2 ",
"   c #39591F",
".  c #3B641F",
"X  c #315221",
"o  c #355B23",
"O  c #385E26",
"+  c #366320",
"@  c #3A6424",
"#  c #3B6C24",
"$  c #3C6429",
"%  c #3E6C29",
"&  c #3C7322",
"*  c #3D7B20",
"=  c #466B1D",
"-  c #4B7C1D",
";  c #40711F",
":  c #52761B",
">  c #557C1D",
",  c #5A791E",
"<  c #446C23",
"1  c #486F23",
"2  c #406D2B",
"3  c #416521",
"4  c #427326",
"5  c #4B7321",
"6  c #417B25",
"7  c #4B7B23",
"8  c #417429",
"9  c #457C2B",
"0  c #4A7A2C",
"q  c #547F24",
"w  c #587721",
"e  c #457530",
"r  c #497E32",
"t  c #4D871E",
"y  c #59861D",
"u  c #59891D",
"i  c #5A961E",
"p  c #4F911D",
"a  c #648B19",
"s  c #69931C",
"d  c #659C1E",
"f  c #6A9B1A",
"g  c #64931B",
"h  c #7A9817",
"j  c #57A41D",
"k  c #58B61F",
"l  c #6DA11A",
"z  c #6CAC1A",
"x  c #64AB1C",
"c  c #74A21C",
"v  c #74AD1D",
"b  c #7AAB19",
"n  c #75A416",
"m  c #6BBA1C",
"M  c #66B61D",
"N  c #7FB41A",
"B  c #79B71B",
"V  c #428322",
"C  c #4E8323",
"Z  c #448B23",
"A  c #4A8C24",
"S  c #468429",
"D  c #49842C",
"F  c #4B8C2B",
"G  c #478929",
"H  c #5A8221",
"J  c #558E24",
"K  c #52852A",
"L  c #538A2B",
"P  c #598827",
"I  c #459421",
"U  c #4A9425",
"Y  c #479921",
"T  c #4B9D24",
"R  c #4C952B",
"E  c #4D9B2A",
"W  c #559325",
"Q  c #5D9324",
"!  c #5B9B22",
"~  c #51952C",
"^  c #5B9529",
"/  c #519B2B",
"(  c #5B9C2D",
")  c #539C24",
"_  c #4B8631",
"`  c #4D8B32",
"'  c #518E32",
"]  c #50853B",
"[  c #4F9033",
"{  c #529332",
"}  c #539B32",
"|  c #589B39",
" . c #608F26",
".. c #669523",
"X. c #6D9C23",
"o. c #669D28",
"O. c #649A32",
"+. c #4BA422",
"@. c #4DAB22",
"#. c #4EA228",
"$. c #51A426",
"%. c #5EA224",
"&. c #50AD25",
"*. c #5CAB25",
"=. c #52A32C",
"-. c #5AA52D",
";. c #53AA29",
":. c #5AAB2C",
">. c #4EB121",
",. c #51B324",
"<. c #5DB422",
"1. c #51B921",
"2. c #5DBD20",
"3. c #55B12C",
"4. c #5BB32C",
"5. c #5BBC2A",
"6. c #55A332",
"7. c #5BA533",
"8. c #57AD32",
"9. c #5BAC32",
"0. c #5FAD39",
"q. c #5DB431",
"w. c #5DB930",
"e. c #65A322",
"r. c #68A424",
"t. c #68AA2A",
"y. c #77AA27",
"u. c #6DB523",
"i. c #63B42C",
"p. c #60BB2D",
"a. c #66B827",
"s. c #78B626",
"d. c #63A535",
"f. c #61B433",
"g. c #61BB31",
"h. c #64BA38",
"j. c #6EC71C",
"k. c #79C51B",
"l. c #79C71D",
"z. c #7BD31D",
"x. c #57C124",
"c. c #5AC425",
"v. c #5ECA27",
"b. c #5EC22C",
"n. c #6BCE24",
"m. c #62C32C",
"M. c #63CB2B",
"N. c #68C726",
"B. c #7ACC24",
"V. c #76CA29",
"C. c #65D32B",
"Z. c #69D52D",
"A. c #6CDA2E",
"S. c #6AD226",
"D. c #7DD525",
"F. c #74D42C",
"G. c #77DA27",
"H. c #65C431",
"J. c #69CD31",
"K. c #67C834",
"L. c #6CD431",
"P. c #6EDA32",
"I. c #7CE32B",
"U. c #75E12E",
"Y. c #70E030",
"T. c #5DA441",
"R. c #899612",
"E. c #919514",
"W. c #A59A0C",
"Q. c #85AA16",
"!. c #9CA715",
"~. c #84B416",
"^. c #88BC16",
"/. c #8ABB18",
"(. c #92BE15",
"). c #ABAC0F",
"_. c #A4A00E",
"`. c #BCA809",
"'. c #BDB60B",
"]. c #A4AB10",
"[. c #A7B814",
"{. c #B9BB12",
"}. c #83BB22",
"|. c #D5AB00",
" X c #CAB90A",
".X c #DCB000",
"XX c #D6B908",
"oX c #C0BB12",
"OX c #E2B500",
"+X c #EBBC00",
"@X c #E4BF04",
"#X c #85C31B",
"$X c #8BC419",
"%X c #88C919",
"&X c #97C915",
"*X c #8DD41B",
"=X c #8CDB1A",
"-X c #85D81B",
";X c #9CD514",
":X c #92D41B",
">X c #92DC1D",
",X c #9CDA18",
"<X c #B9C30D",
"1X c #B6C30D",
"2X c #A1DE14",
"3X c #B8D314",
"4X c #93E81E",
"5X c #98E317",
"6X c #A6EA14",
"7X c #A4E716",
"8X c #ACF116",
"9X c #B7EC10",
"0X c #85C222",
"qX c #88CF24",
"wX c #82DC23",
"eX c #86D622",
"rX c #91D023",
"tX c #84E426",
"yX c #8AE322",
"uX c #8EE923",
"iX c #94E220",
"pX c #D6C40A",
"aX c #DACA0B",
"sX c #D9C709",
"dX c #C0CE11",
"fX c #D1CE0B",
"gX c #ECC503",
"hX c #E6C906",
"jX c #F4C501",
"kX c #F4C903",
"lX c #FDCB00",
/* pixels */
">X6.% % ' =.;.=.8 k y U + D N.,X} f._ M.q.| X | 0.J.f.| g ,Xi & U t.5X} H._ g.,Xf.@ 3 { w.&.f.8 k - ",
"tX}.X # / rX4.F 4 z.$.Q b # F c.0 D 6 p.K.e X } V.s.H.O E L.y.Y 7.O m.U 2 D ~ I.-.X 8 7.h.;.S 6 :.~.",
"7.tXB.S Y a.C =.V N.1.+.B.m @ #.2 8 w _.aXaXaXXXaXsXpXaXXXpXfX!.m * F R o 0 @ 7.=X+.G U 3.W i.R $.U.",
"o f.v.P H D @._ 9.9 &.+.9 S X &.# H.h  XkXkXkXkXjXkXkXkXkXkXkX XQ.O . I > f V o 6.,.S & ..:XP =.9 b.",
"* E } C J +.G V =.V { 1.& 9 * / t A.[.hXlXlXlXlXlXlXlXlXlXlXlXhX].t @ &.- D.& * E } & t :X( V G V D ",
"Z % + S E ] G ;.6 K =X/ 1.1.t.W $ V.3XlXlXlXlXlXlXlXlXlXlXlXlXlX1Xh +.8 # C.1.Z % # y e.8 S ;.F D I.",
"G . @.& 1.& S R 6 # z.m.=.1.7 A.7 R.fXlXlXlXlXlXlXlXlXlXlXlXlXlXdXh @.+.o ,.#.Z + k.7 P.S 9 7.s < I.",
"I + 1.T #.V + 9 @.& 1.{ 4 1.9 L.L.].aXlXlXlXlXlXlXlXlXlXlXlXlXlX X!.+.5.Z T 4 U + M.#Xw.V @ D S.* 1.",
"S g 9.+.D / >.I ` & 1.y b ` o 9 f.dXhXlXlXlXlXlXlXlXlXlXlXlXlXlX X!.$ F &.C %XV * U m.S U ,.Y { 4 x.",
"X B.s.k & Z 6.{ 6 o @.& wX9XX 3 h  XhXlXlXlXlXlXlXlXlXlXlXlXlXlXkX).X Z % 4 n.o ;X}.P.V V } { 6 o H.",
"I v.U c.3.f A : $ . 8 & 1.1.+.# M.XXhXlXlXlXlXlXlXlXlXlXlXlXlXlXhX1X* j #X# 4XT m.~ c.4.q / : $ # 8 ",
"$.b.t &.0X-X..>X& k &X$ 1.c.@./.Z.pXkXlXlXlXlXlXlXlXlXlXlXlXlXlXaX<X/ m tXp $.T ,.A &.K :Xs =Xa +.+.",
"Y 5.V 9 a.k E A.A.=.>.1.R 1.I +.k hXgXlXlXlXlXlXlXlXlXlXlXlXlXlXsX<X& ,.A.>.e I +.* 9 #XP.) Y.A.=.C.",
"-._ V u.tXu.5.c.#.E [ @.@ #.I % S hXkXlXlXlXlXlXlXlXlXlXlXlXlXlXXX<X. 0 ;.1.& U 9 t ^.I.9.5.C.=.R } ",
"% & F A.A.V ^ ^ @ /...) X D D :.~ hXgXlXlXlXlXlXlXlXlXlXlXlXlXlXXXoX# +.& _ & 8 # U I.C.S K ' @ T 6 ",
"U o 8 c.J.q ,X> #.S b.r.g ;.p.D 4.XXkXlXlXlXlXlXlXlXlXlXlXlXlXlXXXaXs E G > U U o 8 v.@.$ f > I S ,.",
"=.Y @.C.H.:X$.t c.U ` %Xm I M.*.X.hXkXlXlXlXlXlXlXlXlXlXlXlXlXlXXXdXtX9 &XeX8 #.=.+.1.*.&Xu.W 1.$.` ",
"+.R ,.R $.c.Z  .O.D # } K.F 1.' u.sXgXlXlXlXlXlXjXlXlXlXlXlXlXjXaX1X=.H A.4.X +.} L.7.N.A.-. .' ` 8 ",
"3.@.[ @ G k J :Xl ~.w * F 8 ;.A z. X@XjXlXjXjXjXjXjXjXlXlXjXjXjXXX).S #XM.D ) w.&.| $ X.Y.Q :X) v # ",
"9 3.t u Q U e.S._ G.>X# 5 u 9 +.,.`.XX+X+X+X+X+X+X+X+X+X+X+X+X+XXX{.# ,.;.# 1.8 &.V * V q.e.P.8 G.m ",
"C 0X6 3.T o D.yXG m.M.Y # c.X R D '. X+X+X+X+XOX+X+X+X+X+X+X+XOXoXR.o =.% Z 6.t 0XD ;.E o D.Y.U M.S.",
"& B.o e % X @.C./ m.C.I N c.* # V 3X'.OXOXOXOXOX.XOX.XOXOXOXOXOX'.(.- 2X& 1.9 C m o 0 8 X ,.c.G 3.c.",
"S >.S # #.& R v.A 5.%X6X^ @.+.@.Z B.).|..X.X.X.X.X.X.X.X.X.X.X.X).s.U b.t @.1.g ,.6 # #.& R ,.6 &.R ",
">.| O & G | &./ 6 >.& 3.0X9 ;.@.9 G R.|.|.|..X|..X|.|.|.|..X|.|.!.P >.G } % #.F.R O & D } @.E F A.S ",
"j.:X+ # T 3.E S 4 E %X*X2.* S m.4 , R. X|.|.|.|.|.|.|.|.|.|.|.`.~.. 4.+.o S & 5.+.+ 8 T ,.E S 8 t.l.",
"9 F.z.` S #.U :.R #.C.3.=.3.o T O a : W.|.|.|.|.|.|.|.|.|.|.|._.x 6 4 S + # & 9 >.1.~ S / e.#.U #.yX",
"X 0.M.& & S &.% =.% H.Z.6 6 X +.* G.S 2 $ b.Z Z X ,X~ G D D S.U :.X + @.& Y 8 X | 1.& & c V.% }.% K.",
"I U 0 - A 8.* +.V U ( <.l p E S F tX5X#.G [ $ I F R C 6Xq e.:.B +.Z 6 R & 1.t @.-.e y ..5.9 #XR U y.",
"S N & C *.% R } & 8 5Xi.yXn.S I o K.C.H.+ V X T 9 & } 6.X #X,Xi.1.Z #X& $ >.k 9 $ B S &.$ R 7.& 5 uX",
"I b.k V =XZ % I t # A.,.} 5X6 A.Z & ;.9.. ^.~.+.>.@ @ >.o :.P.p.5.V N.-Xo +.R I = 4X* >.V $ ~.b # P.",
"I R 3.#.} I & % &.& 1.P < >.# 4.c.Z K %X< S tXL ,.+ V D I #./ 6 V V R B.@.U s $.o K.#.R V V 9 3.& c.",
"% N I >.9 U 5.3.9 @ 1.C %X^ X $ [ U b i.7 V C.+.e @.>.S & I V &X7X8 o S R 7 yX8 ) -.M.V E M.H.S + k ",
". m.=.1.V 6 d.9 * o R S U.8X+ . z # $.Y u j.;.>.o 6._ F X 2 6 m.A.+.X I y # Y.+ :X%.1.A F O.0 F o U ",
"I M.U x./ s v h o Q.H S Y.Y.@.; wXV V 1.U v.V >.N #X< g : /.o &.c.k I I B.& Y.I n.! 1.R s ..* o Z & ",
"4.M./ ;...4Xd tXZ b.7X& H.1.;.1.S.9Xg >.V 1.U O.yX;.k M.G G.b R 1.v.~ 1.>.+.Z I &.E *.,XuXV 1.t #.1.",
"$.9.Z ..4X5.;.c.k ;.m.x.G ,.I ( V.c.I U 6 ,.O c C./ -Xc.,.3.x.#.F c.& #.1.1.9 $.6.A :XI.M.Y 1.1.#.,.",
"F 4 S =XC.Z $.,.` ^ 0 &.o U Z 5 C @.#.$ V Y * n.1.6 5.8.` 9 T 6 X ,.@ w R ,.9 ~ * t G.P.=.T @.` F 9 ",
"& $ * v.1.* X.L . $Xd ) o  . .$Xz e 0 a < Z V 1.&.O ` & # >.Z # X | 5 7X9 e & & @ 6 c.J.F K L + T Z ",
"-.+ * 1.2.&XqX5 +.8 3.J ~.u.>Xq } : (.y.V O @.M.F . G V V } k.,X: yXY R D ~.r.=.+ G Y.J.o b 1 ,.8 &.",
"#.#.1.>.=.C.T G #.;.9 *X>.E C.=.n =XF l ( ,.c.:.,X7X7 ;.;.R F A.U eXN.+ 8XF.O #.g.Y.L.i.8Xi.A ;.$.8 ",
",.E 3.R @.k j %.F ` % S @.` ,._ &.,.# A ~.t.&.L tXl.5 o.R { o 4.5.=.-.s A.-.X +.#.g./ u.A.~ X.F _ # ",
"0.&.D + S ,.) N.g ;Xt & & % I Y 1.=.b s.a.Z 2 5 8.$.$X! J.5.o S ` S & N.1.V m R @.9 o F 1.g yXV &.V ",
"% ;.V I I D $.c.6 L.>XV # ;.$ #.;.$ +.V E ,.> :Xq %.G.5.} yX^.< I * $ @.R # C.% #.S T U D ;.Y.8 k 5X",
"& ;.% 8.R o >.=Xf m.z.N + C.X F S #.7.4 $Xt.P F.1 J U.P.S tX-Xu ;Xf o f.& :.7.& ;.& 8.E o 1.M.V @.D.",
"& @.+ + * X t.G.V B <./ T 1.I * V 1.&.= m.U X D o & M.Y.7 Y.L.A L.C.# +.& 1.V & m + # 9 X 5.Y.G @.m.",
"U 3.9 % } I #.@.& m C b 4 :.@.@.#.@.-.:X4.#.X G ;.U =.4.S Z.U $ 5.;.Y 8.+./ >.M wX9 % } I =.J.9 &.F ",
"6Xy.# # G R 3.R * >.* qXu 0 6.>.9 ` & G.qX8 X I ` #.;.% #.k 0 Z } % >.Z D # I k / o # W ( @.~ 6 >.t ",
"K.4XM * +.1.! ~.8 #.z.v *Xj # 5.9 # % { G.i V 9 1.#.U V 9 eXm +.1.. E #.X G $ #.,./ * B j.F Z 6 -.=X",
"% 3.>.` 9 [ rXi.6.E G.j F E X Y o Z + * 7.v.#.$ { E ;.T.E H.v.9 @.% $ * 4 # t % 3.Y.` 9 [ #.} E =.6X",
"& } ;.& * I 7.H e.& } 1.& & + T V 1.Z & & 8.6 I # 1.D ;.8 D b.j B.+ + 1.u k.& + R w.& * I E & E * ;."
};
