/* XPM */
static char *result[] = {
/* columns rows colors chars-per-pixel */
"50 50 237 2 ",
"   c #3C641F",
".  c #325521",
"X  c #355B23",
"o  c #3A5D21",
"O  c #366321",
"+  c #3A6524",
"@  c #3B6C24",
"#  c #3C6629",
"$  c #3E6F28",
"%  c #3D7324",
"&  c #3E7B21",
"*  c #3F7128",
"=  c #436A1E",
"-  c #46691E",
";  c #4D7B1F",
":  c #447C1F",
">  c #557B1E",
",  c #617F1D",
"<  c #426C23",
"1  c #416B28",
"2  c #427425",
"3  c #4B7421",
"4  c #427C25",
"5  c #4B7C24",
"6  c #427429",
"7  c #447B2A",
"8  c #497A2B",
"9  c #517D23",
"0  c #607A20",
"q  c #CC7D03",
"w  c #3F8020",
"e  c #59881D",
"r  c #5C941F",
"t  c #55991F",
"y  c #4A8F1F",
"u  c #628A1D",
"i  c #639B1D",
"p  c #6B9C1C",
"a  c #66931D",
"s  c #799D17",
"d  c #728E1C",
"f  c #5AA51E",
"g  c #57B91F",
"h  c #6EAC1C",
"j  c #66A61D",
"k  c #75AC1C",
"l  c #77A91B",
"z  c #69B81D",
"x  c #76B31F",
"c  c #73BA1C",
"v  c #7BBC1C",
"b  c #7BB61C",
"n  c #438324",
"m  c #4A8325",
"M  c #448C23",
"N  c #4B8C25",
"B  c #46832A",
"V  c #4A852B",
"C  c #478A29",
"Z  c #4A8B2B",
"A  c #538325",
"S  c #528B25",
"D  c #5A8D23",
"F  c #548C29",
"G  c #568425",
"H  c #469222",
"J  c #4A9425",
"K  c #4A9C24",
"L  c #4C932B",
"P  c #4D9B2A",
"I  c #479B20",
"U  c #549424",
"Y  c #5A9323",
"T  c #539C25",
"R  c #5C9C25",
"E  c #51952D",
"W  c #529D2B",
"Q  c #5B9C2C",
"!  c #4B8930",
"~  c #518F34",
"^  c #4E9230",
"/  c #529733",
"(  c #618D21",
")  c #639423",
"_  c #669C26",
"`  c #4CA322",
"'  c #4EAB23",
"]  c #4FA329",
"[  c #54A224",
"{  c #52AB26",
"}  c #5CAB25",
"|  c #53A42A",
" . c #5BA32B",
".. c #54AA2A",
"X. c #59AD2C",
"o. c #5CA424",
"O. c #4FB220",
"+. c #51B324",
"@. c #53BA22",
"#. c #59BD26",
"$. c #56B229",
"%. c #5BB42C",
"&. c #5DBB2B",
"*. c #5BB325",
"=. c #54A331",
"-. c #5BAB32",
";. c #58A530",
":. c #5DB331",
">. c #5DBC30",
",. c #64A324",
"<. c #6AA222",
"1. c #6BAC24",
"2. c #63AC2B",
"3. c #65A927",
"4. c #73AC23",
"5. c #64B524",
"6. c #6CB423",
"7. c #64BC23",
"8. c #6DBC22",
"9. c #64BB2C",
"0. c #6AB72B",
"q. c #73BB24",
"w. c #78B624",
"e. c #62BB32",
"r. c #63B833",
"t. c #61A333",
"y. c #69C61E",
"u. c #7BC11C",
"i. c #78C91C",
"p. c #76D01F",
"a. c #5BC526",
"s. c #5DC329",
"d. c #5DC826",
"f. c #64C324",
"g. c #6DC424",
"h. c #65CA24",
"j. c #63C42D",
"k. c #63CB2C",
"l. c #6BC927",
"z. c #72C321",
"x. c #74CC23",
"c. c #78C525",
"v. c #65D22B",
"b. c #69D42C",
"n. c #6CDA2E",
"m. c #6DD023",
"M. c #7BD423",
"N. c #7DDC25",
"B. c #73D42A",
"V. c #76D827",
"C. c #67C831",
"Z. c #6CD631",
"A. c #70CF34",
"S. c #74E12E",
"D. c #7FE127",
"F. c #70E030",
"G. c #97A816",
"H. c #82BC1B",
"J. c #86B519",
"K. c #95AF15",
"L. c #BCBB0F",
"P. c #A2B713",
"I. c #AFA50D",
"U. c #83BC25",
"Y. c #8D9114",
"T. c #D48606",
"R. c #DC9603",
"E. c #DC9E13",
"W. c #E28C01",
"Q. c #E79301",
"!. c #E89401",
"~. c #E79C01",
"^. c #E99B01",
"/. c #E3960B",
"(. c #E09B1C",
"). c #C7B90B",
"_. c #D5B608",
"`. c #CAAD09",
"'. c #E6A302",
"]. c #EDA401",
"[. c #E6AB01",
"{. c #EDAB01",
"}. c #EAAC0D",
"|. c #F1AB00",
" X c #F0A300",
".X c #EEB401",
"XX c #EEBB01",
"oX c #E4BB04",
"OX c #F1BC01",
"+X c #F1B301",
"@X c #E1AE1D",
"#X c #DEAF23",
"$X c #83C41B",
"%X c #88C719",
"&X c #95C917",
"*X c #84D41D",
"=X c #8BD51C",
"-X c #8CD91C",
";X c #97DA1A",
":X c #B9C70E",
">X c #A8C813",
",X c #BAC813",
"<X c #8CE21E",
"1X c #98E61A",
"2X c #85CC22",
"3X c #86DD23",
"4X c #88D622",
"5X c #91D721",
"6X c #84E225",
"7X c #8AE323",
"8X c #93E520",
"9X c #C8CB0C",
"0X c #D6C407",
"qX c #D9D407",
"wX c #EDC101",
"eX c #E7CA02",
"rX c #F2C401",
"tX c #F6CC01",
"yX c #F8CB01",
"uX c #EAD603",
"iX c #F2D501",
"pX c #F8D001",
"aX c #F5DD01",
"sX c #D8E00A",
"dX c #EBE203",
"fX c #F7E401",
"gX c #F6E601",
"hX c #F7F101",
"jX c #F8F901",
"kX c #F7F614",
"lX c #F8F715",
"zX c #F6EB13",
"xX c #E6C735",
"cX c #F5F53D",
"vX c #F3EB39",
"bX c #ECD947",
"nX c #F7F840",
/* pixels */
"6XM.:...' H &.k.@ # C.k. .+ @ f ; #.{   B ~ ^ @ + z.1Xr...+.& I '   $ $.#.] @ + o.; ..j.@ n / t.9 . ",
"#.{ Q m ' H %.n.j.N | _ 1.= % V.5.| O.M O % L I 4 j.A.Q B +.n K #.' % I L H &   7.%X1.k.M # 8  .g.5 ",
"O.y v l F m # 8 r...Q 1X6.; G t.#.C V H ` ` N C n $...j t N % # 7 P { N i z @ : E s...! C I +.n / 4 ",
"J M { M.%Xp . < 4.4 % k.C 5 u.w.{ ` * w ;.^ Z % X L W z.1Xu.4 . O m V 5 8.1.X b w.2.b.2 M | ^ L 6 X ",
"5 @ I @.#.O.M 2 k.I % &.+.M #.| w O.N e R 5 D # : m < 9.n.d.@.n : %Xz % 3.M.n &...M a.W ) 6.5 u + @ ",
"%Xp Z { h.O.[ %Xb.a.I C +.n { | n L ) =X1.H.=Xi o.=Xb W 9.@.@.K | h.<Xf n +.& ` H n P D 4X_ $X5Xa J ",
"{ g ' C { O.& P ..s.s.4 N 4 P H 6 k 4X&.u.h.#.$.| ..l.*.Z ] O.w C %.k.+.M C & H y @ a 7XA.W b.Z.k.%.",
"m P L + M ' @ 2 B | #.P % C n M p 3X6Xx H O.' ^ L B L C + n O.% # 7 ] O.` % L 7 n r -XS.E K k.$.L L ",
"c P i - 4 -.7 e.X.4 8 G a 3 # n { v.f.L < _ V 2 E 9.| D = > U.A N I 6 8 6 % & $ B P v.#.% < _ 8 + n ",
"=.[ c.H.n k.&.7 Q D l J.1.N @ n #.#.] - p ) S e./ =.| 6.[ U 6X$XD E 5 l o.L L % 4 ` #.| 3 s ) M ` M ",
"7 _ V.s.J { s.-.i 1Xg.# U q.X.@.+.] 5.1Xc d J.,X9X,XK.5XM.o.k.k.X.,.1Xx.V & J X.s.d...g.1X6X7  .| X.",
"5 o %.-.W C L m i.h.L o h M.%.-.| 4 o.$XL.oXwXOXrXrXtXuXsX>Xw.L S c.b.E 6 n ' | :.r.8 4XF.r.u 4.Q E ",
"J.= M 2 A B n O.@.' 5 ;X| { I 2 # 0 _.rX X X X|.|.{..XXXXXiXuX:Xf d.h.Z %.e.r.{ B 6 . ^ A.J ;X8.W -X",
"N.c @ 2 q.% + O.W Z 2 s.M ,.} M s qXOX{.]. X]. X{.+X{..X.XXXrXdXJ.[ C % I M B %.L % I n / ,.n.j.B -.",
"a.@.@ = f.M X L J u %X/ 7 5.} 9 qXtX|.|.{.].].].iXfX.X{..X.XXXwXdX>Xn ` =.6 k %XZ 6 X.B X o.n.n.N | ",
"N.=XH.b #.O.& I H T b.` & ` ' l iXXX.X.X{.].].oXgXhXtX.X{..XXXXXiXdXI +.' m T +.% . B & O n +.O.& H ",
"[ Y x.<.P P ' O.Z ] L P O.} 3.,XrXXXXX.X|.{.'.gXjXjXhXOX{..X.X.XXXaX%XZ L z.6.] * . C C J ] ] ] B ..",
"z H.x.y.C $ X.$.% 1 u @ { x.J.eXwXwXOXOXOXrXiXhXhXhXhXgXtXXXOX.X.XrX:X5 @ W @.P @ O B L | P ` * B -.",
"h.N.| | ' & B +.* < G X C %.>XwXXXXXrXtXiXfXfXaXfXfXfXfXaXaXpXtX.X[.0Xe + 2 P ' ` ..7 ` { U E P C N ",
"%.k.| B L #   { : Y 6.5 2 6 ).+X[.T.wXpXpXyXyXtXtXpXtXyXyXpXtXwXR.'.eXl & 2 + | O.H m * _ *XQ Y 3.B ",
"_ :.y.i f 4 4 L E U 8Xx J 5 ).|.{.'.T.XXtXtXyXyXyXyXyXyXtXyXrX~.~.~.wX%X` J 4 / ^ # h 5 2.Q D $XY n ",
"7Xz.c.5Xp.[ ` M @ B k.k.:.< `.|.^.].~.T.XXtXyXtXrXyXyXtXyXyX[.Q.^.^.oXH.O.{ % < 1.e | J 6 4 ;.0.5 + ",
"b.f.=.W x.j { v.M @ ] | Q   I.|. X X^.R.T.tXtXpXyXyXpXpXpXtX^.!.^.^._.k ] P & = *X5.P O.& % G U.i + ",
"+.T <.G P n C ;.#.` Z ) H.; Y.|.^.!.!.W.q fXgXgXgXgXgXgXgXfX].Q.!.^.0Xi D 6.4 + X.d.L P w & L Z | & ",
"{ y q.*X) A . # L L 5 *X .3 s oX!.!.!.W.q kXkXkXlXlXkXkXlXzX[./.Q.^.L.D x g.+ y | j.k.6 L %.j.| Z + ",
"m 4 9.n.8X8.  = v i @ #.H N c ).!.!.!.W.q cXcXcXcXvXnXnXnXvX}.~.Q..XG.% %.j.@ u.h J a.n F w.8 7 6 X ",
"l 5 X.Z.v.a.` 4 p.i.e L ' M *.K. X!.!.W.T.bXbXxX@XE.#XxXbXbX}.~.'.oXz M X.a.& 5.o.N +.<.b 4.: H O w ",
"V.q.X.X.@.O.N #.N.D.i.% I & I y _.}.!./.T.(./.Q.^.{.'.'.E.E.'.'.wX&X@.` n P & ` T N w.8XV.N O.O.` K ",
"E +.| 2 P ' % 7 Q +.@.C n n M M ( 9X].Q.!.!.!.Q.~.~.'.[.[.[.XXeXd N { #.{ Z J L M Y 7XF.-.P g +.] P ",
"j N m o 5 3.; J.,.7 Z 5 9 7 % M M c )..X].!.Q.Q.Q.~.'.[..XeXuXP.l 1.B Z Z @ B % & M k.n.N 6 Q C $ C ",
"9.J w.p ) -Xl S | 5 u l w.5 + % ` a.$., I.`.[.|.].{..XeX9XP.M.M F 2.7 ( p U L # 4 X.n.j.< > _ m H 7 ",
"V ,.x.y.N k.V.C ) &X$XG _ R H ` a.9.q.%XH.) s K.P.G.K.;X=Xo.8Xz H ) &X2X<.B / | C.n.Z.0.%X-Xm L +.] ",
"F 2 { { P P ..B | h.[ . U x 4.+.| Q M.6Xh A _ Z ^ Z 1 %.&.P 9.X.F h V.%.< & I W j.j./ x.V.C.5 _ E ^ ",
"U X M 7 C % & ` @.&.S %X1.8.z 7 6 9 Q 7.R v q.P j.X.% C n 7 J n K l.+.S j T P ' n 6 # _ @.M $Xq.N I ",
"*Xj % # ..5 @ O.../ @ l.N P ] w D J._ C ,.V.k.E e.3Xv 5 % y * % H { C 7 9.P Z ' M % ] n L M B.f.4 I ",
"y.*Xm   a.| X L M 4 { =.7 $X2X* F 0.Y . 3.S.n.T } 6X6Xe k 1XR + B E n ..:.7 M ' * 6 ] B X H b.d.n M ",
"y.2.2 M @.{ @ M M w @.} e 7.l.# + C & . C k.n.W X.n.Z.B } B.f.% n M M @.' % M z 3 X ^ 4 . C Z.b.M M ",
"j ) 3 2 &.] I +.] ` | 0.$X} $.5 X Z =.P P ..&.Z ..C.| @ 7 :.' ` ' W ` ] ] ` v 3XL X V P M K >.C.B M ",
"I t H.a Q 7 +.+.B ^ 7 ! N.2X .X X n C =.{ ] n n } 5.e M C Z 8 ' ' C Z 6 * ] y.| # . n D  .{ | ! n K ",
"g.b q.u.j @ L s.4 X 7 o -.V.8.& & n ` O.L L n B T 4Xu.K ` I O J ' n . 4 @ C O.' N n 4 u.z L P n % L ",
"l.p.N C K * @ ' # @ & @ & Q C.+.J % C L ] W =./ L C.b.M L ] @ @ H % U n + * 4 $.b.j.B n ^ P P L P C ",
"E $.` 2 M O O | w w ' & * & W | n n % H ..Z P W 4 E :.{ h <.+ @ H w k u.N 4 O L :.Z w @ K ' B M Z n ",
"=X5.9.*Xi.I K % * w +.O.` % 6 + < h F ~ ! | $.7 * ` ' $.h.g P | C # | N.y.+.% * @ . w & B * P { & $ ",
"N.p.' | g M I O.n # $.$.1.<   ` % 8.i.& 6 ^ P % + $.s.' | @.4 I ' & 2 f.z.%.% O H % I ' * & ! ] 4 . ",
"a.X.L U ' H | C.b.| L A 3.@ @ y.=X3.9.M + % C | N ' ' C 4 ] & H O.O.w L Z H & O ` O.C { w @ % B ` & ",
"#.H ` 2X1.5 # 8 :.:.E %X0.% 2 E h.L 7 L ` ` M B 4 ` I j U M % + 6 P { C U 6.@ % H ' I C C ` ' w C 2 ",
"L n ` b.h.M = ;XJ.A 2 V.P A u.f X.' % & | ! Z % X Z E q.1Xp.w X @ w 7 5 u.8.X f 6.| @.% L =.! C % . ",
"4 @ ` v.N.M... .N.q.2 C.+.N z.h H O.C % L @ % O % n @ { h.d.@.w % z j % W @.& [ [ N O.N ) 2.@ & X e ",
"O.M L e.n.h.| M.n.v.' 4 ' M j.| n F p ;Xp I O.M H O.I J ' O.O.P ' d.<Xf n ] & I I w L p 4XR %X%Xy I ",
"' O.' C &.#.7 U.>.@.+.& M B -.L < k *XA.P O.O.O.{ +.#.] C :.a.n C %.n.#.H H & H M + a 3XA.-.@.@.g { "
};
