/* XPM */
static char *result[] = {
/* columns rows colors chars-per-pixel */
"50 50 236 2 ",
"   c #39591F",
".  c #3B641F",
"X  c #315221",
"o  c #355B23",
"O  c #385E26",
"+  c #366320",
"@  c #396424",
"#  c #3B6C24",
"$  c #3B6429",
"%  c #3E6C29",
"&  c #3C7322",
"*  c #3E7B21",
"=  c #466B1D",
"-  c #4B7C1D",
";  c #40711F",
":  c #52761B",
">  c #567C1D",
",  c #446C23",
"<  c #416D2B",
"1  c #466D23",
"2  c #427326",
"3  c #4B7321",
"4  c #417B25",
"5  c #4B7B23",
"6  c #417429",
"7  c #457C2B",
"8  c #4A7A2C",
"9  c #547F24",
"0  c #457530",
"q  c #497E32",
"w  c #4D871E",
"e  c #59861D",
"r  c #59891D",
"t  c #5A961E",
"y  c #4F911D",
"u  c #65881A",
"i  c #69931C",
"p  c #6A9B1A",
"a  c #65981D",
"s  c #779D19",
"d  c #57A41D",
"f  c #58B61F",
"g  c #6BA81A",
"h  c #7AAB19",
"j  c #74A71B",
"k  c #6BBA1C",
"l  c #66B31D",
"z  c #7EB31B",
"x  c #76B81A",
"c  c #428322",
"v  c #4D8323",
"b  c #448B23",
"n  c #4A8C24",
"m  c #468429",
"M  c #49842C",
"N  c #4B8C2C",
"B  c #478929",
"V  c #5A8321",
"C  c #558E24",
"Z  c #51852B",
"A  c #538A2B",
"S  c #598827",
"D  c #459421",
"F  c #4A9425",
"G  c #479921",
"H  c #4B9D24",
"J  c #4C952B",
"K  c #4D9B2A",
"L  c #5D9324",
"P  c #5B9B23",
"I  c #51942C",
"U  c #519B2C",
"Y  c #5B9C2D",
"T  c #579726",
"R  c #4B8631",
"E  c #4D8B32",
"W  c #508F32",
"Q  c #50853B",
"!  c #529332",
"~  c #539B32",
"^  c #589B39",
"/  c #4F9033",
"(  c #608F26",
")  c #6A8527",
"_  c #679523",
"`  c #6C9D24",
"'  c #669D27",
"]  c #6B992A",
"[  c #4BA422",
"{  c #4DAB22",
"}  c #4EA228",
"|  c #51A426",
" . c #5EA224",
".. c #50AD25",
"X. c #5CAB26",
"o. c #52A32C",
"O. c #5AA52D",
"+. c #53AA2A",
"@. c #5BAC2C",
"#. c #4EB121",
"$. c #51B324",
"%. c #5DB422",
"&. c #51B921",
"*. c #5DBC21",
"=. c #55B12C",
"-. c #5BB32C",
";. c #5BBC2A",
":. c #55A332",
">. c #5AA432",
",. c #57AD32",
"<. c #5BAC32",
"1. c #5FAD39",
"2. c #5DB431",
"3. c #5DB930",
"4. c #6AA324",
"5. c #68A928",
"6. c #77AA27",
"7. c #6EB622",
"8. c #64B42C",
"9. c #64B929",
"0. c #78B626",
"q. c #63A535",
"w. c #61B433",
"e. c #61BB31",
"r. c #64BA38",
"t. c #6EC71C",
"y. c #79C51B",
"u. c #79C71D",
"i. c #7CD31D",
"p. c #57C124",
"a. c #5AC425",
"s. c #5EC62A",
"d. c #62C42D",
"f. c #63CB2B",
"g. c #69C825",
"h. c #77CC27",
"j. c #65D32B",
"k. c #69D42D",
"l. c #6CDA2E",
"z. c #6AD226",
"x. c #7DD525",
"c. c #74D42C",
"v. c #77DA27",
"b. c #65C431",
"n. c #69CC31",
"m. c #67C834",
"M. c #6CD431",
"N. c #6EDA32",
"B. c #70CE30",
"V. c #7CE32B",
"C. c #75E12E",
"Z. c #70E030",
"A. c #5DA441",
"S. c #868E17",
"D. c #B49F0A",
"F. c #87AB15",
"G. c #89BD16",
"H. c #86B617",
"J. c #94BC17",
"K. c #AAAD0F",
"L. c #84BC22",
"P. c #90B224",
"I. c #DD9200",
"U. c #D78A08",
"Y. c #ED9500",
"T. c #E69D01",
"R. c #EC9B00",
"E. c #E79701",
"W. c #F19C00",
"Q. c #E28E05",
"!. c #C8B50A",
"~. c #D9B503",
"^. c #D7AC09",
"/. c #ECA300",
"(. c #ECAB00",
"). c #E6A400",
"_. c #F4A400",
"`. c #F5AC00",
"'. c #EDB300",
"]. c #EDBC01",
"[. c #E1B702",
"{. c #F5B400",
"}. c #F5BB00",
"|. c #F9B900",
" X c #FAB600",
".X c #D79427",
"XX c #DCA92A",
"oX c #E5BC27",
"OX c #E2A62F",
"+X c #86C41B",
"@X c #89C719",
"#X c #97C915",
"$X c #8CDB1A",
"%X c #88D71B",
"&X c #9CD514",
"*X c #92D41B",
"=X c #99DB19",
"-X c #A3DC16",
";X c #BAD00E",
":X c #93E81E",
">X c #97E318",
",X c #A5E815",
"<X c #B7E814",
"1X c #ACF116",
"2X c #B9F30F",
"3X c #86C722",
"4X c #98C923",
"5X c #85D823",
"6X c #91D820",
"7X c #84E426",
"8X c #8AE322",
"9X c #8EE923",
"0X c #94E220",
"qX c #CBD60A",
"wX c #D3D30A",
"eX c #ECC402",
"rX c #EBCB03",
"tX c #F4C300",
"yX c #FAC500",
"uX c #F4CA01",
"iX c #FDCC00",
"pX c #EDDE02",
"aX c #FCD300",
"sX c #FEDB00",
"dX c #F3D601",
"fX c #FCE400",
"gX c #FEEA00",
"hX c #F0E902",
"jX c #FEF402",
"kX c #FEFB00",
"lX c #EEE70C",
"zX c #FDFD25",
"xX c #EDD136",
"cX c #F0DF42",
"vX c #FDFD52",
"bX c #FBF149",
/* pixels */
"6X:.% % / +...} 6 f e F @ M g.=X~ w.R f.2.^ X ^ <.n.w.Y t &Xt & N 4.>X~ b.R e.=Xw.$ % ! 3...2.% f - ",
"V.3XX # U 4X-.N 6 i.| L h # N ;.8 M 4 e.b.6 X ~ 3X0.b.O o.B.7.G ,.$ m.D 6 M / 7X .X & >.r.+.B 7 @.G.",
"q.5Xy.B G 9.N o.c g.&.| h.l @ { < 2 $ 7 n.M.d.5 c.9.1.r.m &.;.K &.& R K o 7 o >.$X[ B H =.C 8.J [ V.",
"o 2.f.S 9 M { R ,.7 #.[ 5 m X ... f.2 4 Z 5XL.P.S.4XP.P.4.J &.c [ o + D : j c o o.&.7 % _ *XS o.7 ;.",
"* K I v r [ N c o.c ! &.* 7 * U c Z.2.h qXpXdXyXiXiXaXaXtX!.0.F D & + =.- x.* * K ~ & w *XU c b c N ",
"b < + m K Q B ..4 Z $XU &.&.5.C $ k.<XhXuX}.}.}.{.`.`. XiXaXtXJ.&.H [ & # j.&.b 6 # e 4.0 c +.N M C.",
"b + [ * &.& 7 J * # i.d.o.$.5 M.v qXpX}.}.}.{.`.`.`._._.{.aXaXiXK.b { [ X =.| B + y.5 N.m 7 >.u , V.",
"D @ &.H } b @ 7 { & &.~ 2 $.7 B.<XpX}.}.}.}.{.fX`._._.`.`.|.fXaXiXs } &.D H 6 D o f.+X3.b @ M c.2 &.",
"m i <.[ M U #.D E # &.v h J o i hXeX].}.}.{.sXkXuX_.`.`.{.}.yXgXiX!.1 N +.v @Xc * K d.M F $.H I & p.",
"X h.0.f & b >.W c o ..& 5X<XX ;XuX'.}.{.`.uXkXkXkX'.`.`.}.|.}.fXsXyXS.b % 2 t.o &XH.l.m c ~ W 4 O b.",
"D d.F a.X.p n : $ . 6 & &.&.d pX].{.{.{.yXjXkXkXkXgX}.}.|.tXtXaXgXiXK.g @X# :XH b.I p.-.V U : $ # 6 ",
"| a.w ..h.%X_ =X& f #X# &.a.#XdX'.}.iXfXgXgXgXgXgXgXgXsXyXtXtX}.sXiXrXx v.P } H $.b ..v *X_ $Xu [ [ ",
"H ;.c 7 8.f H l.l.o.$.&.J $.;X].).tXsXsXsXsXsXsXsXsXsXsXsXtX).}.iXiXuX7.l.#.0 D [ c 8 @XN.U l.l.o.j.",
"o.M c 7.7X7.*.d.o.J J ..+ } qX(.T.T.iXiXiXiXiXiXiXiXiXiXiXI._.`.|.iXiX) } &.& K 4 c G.V.<.;.k.o.J ~ ",
"6 & N l.l.c Y ! @ @Xi U o M wX(.T.E.(.iXiXiXiXiXiXiXiXiX).I.`.`.|.yXyXj 6 N % & & n v.k.c A ! + H 4 ",
"F o 6 a.n.9 &X> | 7 s.' i | wX).T.Y.E.iXiXiXiXiXiXiXiXyXU.`._._.|.yXuX4.b > F F o 4 s.{ $ p > D m $.",
"} G [ k.9.*XX.c a.D E @X7.G ;X(.E.Y.Y.aXfXsXsXsXfXsXsX).E.W.W._.yXtXeXV &X5X% } +.[ &.X.#X7.I f o.E ",
"[ J &.K +.p.b L q.A # ~ m.J +X].Y.Y.Y.fXjXjXjXjXjXjXjX[.Y.Y.Y.W.yXtX~.( N.@.X [ U M.>.g.N.o.( W E & ",
",.{ ! $ b $.C *Xp H.3 * N 2 X.[.E.E./.zXzXzXzXzXzXzXzX^.Y.Y.Y._.tX].K.u.f.M U 3...~ $ 4.Z.L *XJ 7.# ",
"8 =.* e _ K g z.R c.=X# 3 r m K.(.E.R.cXvXcXoXoXxXvXvXXXY.Y.Y. X].'.u &.| # f 6 ..c & m @.5.C.7 x.k ",
"w +X4 =.H O h.8XN d.f.D # a.X ' eX).)..XU.).'.(.Y.Q.OX.XY.Y._.yX~.K.o } & b O.- 3XM =.H O x.Z.n f.j.",
"2 h.o 0 % X ..j.K d.j.D H.a.* # F.uX(.(.'.{.`./.Y.Y.Y.E.Y._.}.[.~.7.2 -X& $.7 v x o q % X $.a.b $.s.",
"c =.m # } & K s.B *.@X,XI ..G { b -XdX[.'.(._.R.Y.Y.Y.Y._.tX[.^.7.;.F ;.b { ;.t $.* % } & K ..4 $.J ",
"&.~ O & R :.{ U * #.& -.+X7 @.{ 7 N s pXrX(.R.Y.Y.Y._.|.eX^.D.( E 7 $.N ~ % [ x.J o & M ! { } N M.5 ",
"t.*X+ # H =.H m & K @X%X9.* 7 f.* > V  .-XrXtX}.yXyXtX~.D.H.Y } ..o -.[ o b 6 $.[ + & H { K 4 7 q.y.",
"8 k.x.J m } F ,.K } j.+.o.=.o H O i @ 2 +.&.=.& } 4.8.O.b %.>XC $.2 2 B + % & 7 #.&.! m } 4.o.D [ 8X",
"X 1.g.& & c ..% o.% d.j.4 4 X [ * v.m 2 % e.b b o =XI b 7 B z.H ..X + { & G 7 X ^ &.& & j h.% L.% n.",
"D J 6 3 n =.7 H c J ' 8.g y H M N 7X=X| B ! @ D N J n ,X> ' ,.x [ b * J & #.b { o.0 r _ 2.8 @Xn J 6.",
"m z & v X.< J ~ & 2 >X8.8Xg.m D o m.n.b.$ c X [ 6 & ~ ~ o +X-X8.&.b y.& # ..&.7 % x m | $ F 1.6 5 9X",
"D d.&.c $Xb % b b # l.$.~ >X5 l.D & ..<.. G.F.[ &.@ # $.o @.N.2.2.w g.%Xo [ J D = :X* $.c % H.j # l.",
"D N =.H U b * 6 { & &.S 2 { # 3.p.b M @X, c 7XA =.+ c M D [ K 5 m c I h.{ b i | @ b.[ J * c 7 =.& a.",
"% H.D &.7 F ;.+.7 # $.v @XL X @ E J z 8.5 c f.[ 7 { $.c 6 D c @X,X2 o m J v 8X8 y o.f.M K f.b.7 + f ",
"# d.O.&.b 4 q.7 * o J m V.1X# . l < | D r t.o...+ o.q N X < 4 d.l.| X D e # Z.. %X .p.b N ' 0 N o J ",
"D f.F &.K i j s o F.S m N.Z.{ & %X4 m f F a.c $.z 3X2 i : H.o ..p.&.D G h.& Z.D g.P &.J i _ * o b & ",
"-.d.U +._ :Xp 7Xb b.,X& s.f ..$.z.2Xa $.c &.J ' 9XX.f a.b v.h J $.f.I &.&.[ D D ..K X.-X:Xb $.b [ &.",
"| 2.b _ :X;.+.a.&.| d.&.M $.D Y h.p.D b * #.O j j.U 5Xp.{ -.p.[ J p.& } &.$.8 } O.b 6Xv.b.G &.&.} ..",
"N 4 w $Xj.b o.$.R Y M { o F b 3 v $.[ % c G * g.&.* ;.,.E 7 } 7 X $.@ : J =.5 J * c v.l.o.[ ..M N m ",
"& @ 4 a.&.* ` A o #XP P o ( ( @Xg 0 8 u , b c &.{ O E * # ..b # X ~ 3 ,X7 8 & 2 @ 4 a.j.N Z A + H w ",
":.@ * &.*.#X5X1 [ 6 =.C H.7.*X5 ! : J.6.c O [ z.N + N * c ~ y.&X: 8XH W N F.5.U @ N Z.m.o h 1 %.6 ..",
"} } $.$.o.j.H b { +.6 6X$.H j.O.j $XN g P $.a.-.=X,X5 +...J N N.J 5Xf & 1Xc.o } e.Z.N.8.1X8.B +.o.6 ",
"$.K =.J | &.d  .M E 2 c } J { R | $.# n z 5...A V.y.2 ' J ! o -.=.>.o.i l.O.X { U d.~ k k.I ` E R # ",
"1...M o m f U g.i *Xw & 6 % D G &.o.h 0.9.b < 3 @. .@XP n.;.o c / c * g.&.5 l J { 7 o Z &.a 5Xc ..w ",
"% +.c G D M +.a.4 c.$X4 # +.$ [ ,.$ [ w K $.> *Xv 4.c.9.~ 8X+X1 D * @ +.J # j.% o.c H H B +.Z.4 f $X",
"& +.% ,.F o { $Xp d.5Xx + j.X E B H :.2 @X5.S c., C C.Z.m 7X%Xr &Xp o 2.& @.<.& } & ,.K o &.s.w { V.",
"& { + # * X 5.v.w k 8.U H &.D * * &.$.= s.H X B o # f.Z.m l.c.N N.j.# [ & &.w & k + % 4 X 3.Z.b [ d.",
"G ..7 % ~ D [ { & k v j 2 @.{ { o.{ O.*X@.o.X E +.H o.-.4 k.F @ -.+.[ @.H U { f 8X7 # ~ D o.n.8 { J ",
",X6.$ & B ! { / * { c %XV 8 :.#.7 R 6 v.3X6 X b E } +.% | %.8 b ! & { b M # F &.~ X # C >.{ ~ * ..w ",
"b.:Xl * [ &.P H.* U i.j %Xd # ;.7 # % W v.d c * &.[ J c 7 5Xk [ &.. K } X B $ { $.U * x t.N B & P $X",
"< =.$.Q 7 / *X8.:.U v.| N K X G X w + * ,.a.o.$ ! K +.A.K b.s.7 +.% # * & # b % &.Z.Q 7 / [ K K :.,X",
"& ~ ..& * D :.V  .2 K &.& & # H c &.b & & ,.4 D # &.M +.6 M s.d h.+ . $.r y.& . ! 2.& * D K & J m .."
};
