/* XPM */
static char *result[] = {
/* columns rows colors chars-per-pixel */
"29 38 122 2 ",
"   c #020404",
".  c #060908",
"X  c #0A0C0B",
"o  c #10110D",
"O  c #0B0E11",
"+  c #0E1112",
"@  c #121413",
"#  c #1B1710",
"$  c #1F1B15",
"%  c #131719",
"&  c #161A1C",
"*  c #1A1C1C",
"=  c #262217",
"-  c #24211B",
";  c #2A241A",
":  c #2F281D",
">  c #1D2327",
",  c #252522",
"<  c #292926",
"1  c #21262A",
"2  c #232A2B",
"3  c #2C2D2A",
"4  c #31312C",
"5  c #252D30",
"6  c #2B2E31",
"7  c #2F3130",
"8  c #2C3439",
"9  c #2F383C",
"0  c #323433",
"q  c #373836",
"w  c #3A3A36",
"e  c #303439",
"r  c #31383B",
"t  c #3A3B3A",
"y  c #403F3D",
"u  c #3E403F",
"i  c #40403D",
"p  c #353D43",
"a  c #374348",
"s  c #3A444B",
"d  c #3D494E",
"f  c #424443",
"g  c #474948",
"h  c #4C4D4D",
"j  c #4E504F",
"k  c #51514F",
"l  c #414C52",
"z  c #444D5B",
"x  c #4B5052",
"c  c #47515A",
"v  c #4A555C",
"b  c #565655",
"n  c #5C5D5D",
"m  c #60605F",
"M  c #4A5463",
"N  c #4D5863",
"B  c #515E67",
"V  c #5E6161",
"C  c #55656D",
"Z  c #646464",
"A  c #676A6B",
"S  c #6C6D6D",
"D  c #6B7276",
"F  c #63727C",
"G  c #697378",
"H  c #737575",
"J  c #797A7A",
"K  c #637283",
"L  c #697B84",
"P  c #677B8A",
"I  c #71848F",
"U  c #6E8293",
"Y  c #728692",
"T  c #758B9C",
"R  c #7E8E9D",
"E  c #7D939F",
"W  c #828382",
"Q  c #848A8C",
"!  c #8C8E8D",
"~  c #8C9090",
"^  c #959696",
"/  c #939698",
"(  c #909A9E",
")  c #9B9C9C",
"_  c #8197A5",
"`  c #8F9EA6",
"'  c #869DAB",
"]  c #8B9FAA",
"[  c #89A0AE",
"{  c #9BA6AC",
"}  c #8AA4B2",
"|  c #90A6B3",
" . c #99ABB6",
".. c #93ACBA",
"X. c #99AEB9",
"o. c #A3A4A4",
"O. c #AEAEAD",
"+. c #A3AEB4",
"@. c #ADB1B2",
"#. c #B4B4B4",
"$. c #B1B6B8",
"%. c #BBBBBB",
"&. c #9BB4C3",
"*. c #9BB7C8",
"=. c #9DBACB",
"-. c #ABBCC5",
";. c #A1BBCA",
":. c #A8BFCD",
">. c #B3BDC4",
",. c #BDC3C7",
"<. c #BCCDD6",
"1. c #C3C4C4",
"2. c #CCCCCD",
"3. c #CACFD1",
"4. c #D3D3D3",
"5. c #D2D9DC",
"6. c #DCDCDC",
"7. c #D6DCE0",
"8. c #D9DEE1",
"9. c #DEE1E2",
"0. c #E5E5E5",
"q. c None",
/* pixels */
"q.q.q.q.q.q.q.q.q.q.q.q.q.q.q.q.q.q.q.q.q.q.q.q.q.q.q.q.q.",
"q.q.q.q.q.q.q.q.q.3 S ) o.) J f @ q.q.q.q.q.q.q.q.q.q.q.q.",
"q.q.q.q.q.q.q.q.A 6.0.0.0.0.0.0.%.3 q.q.q.q.q.q.q.q.q.q.q.",
"q.q.q.q.q.q.q.l 9.0.0.0.0.0.0.0.0.%.. q.q.q.q.q.q.q.q.q.q.",
"q.q.q.q.q.q.@ } 0.0.0.0.0.0.0.0.0.0.g q.q.q.q.q.q.q.q.q.q.",
"q.q.q.q.q.q.c ;.6.0.0.0.0.0.0.0.0.0.) q.q.q.q.q.q.q.q.q.q.",
"q.q.q.q.q.q.L &.6.0.6.m i 1.0.0.0.W ) X q.q.q.q.q.q.q.q.q.",
"q.q.q.q.q.q._ X.4.0.! 3 4 b 0.0.#.< < t q.q.q.q.q.q.q.q.q.",
"q.q.q.q.q.q.[ ..4.0.H k w t 0.0.! y , f q.q.q.q.q.q.q.q.q.",
"q.q.q.q.q.& ..} 4.0.! k h b 0.0.o.h , H q.q.q.q.q.q.q.q.q.",
"q.q.q.q.q.2 &.[ 0.0.4.g t O.0.0.6.u Z ^ q.q.q.q.q.q.q.q.q.",
"q.q.q.q.q.s ;.[ 0.0.0.0.0.0.0.0.0.0.0.o.q.q.q.q.q.q.q.q.q.",
"q.q.q.q.q.C =.{ 0.6.) %.#.^ ^ ^ ^ ) #.! q.q.q.q.q.q.q.q.q.",
"q.q.q.q.q.' =.@.0.6.g g g b k b 0 - , A q.q.q.q.q.q.q.q.q.",
"q.q.q.q.8 =...2.0.0.n f y b n b 4 3 o W q.q.q.q.q.q.q.q.q.",
"q.q.q.q.Y =. .0.0.0.O.f b b b k 4 3 b J q.q.q.q.q.q.q.q.q.",
"q.q.q.a =.=.:.9.0.0.0.J f b b u 4 < 1.k q.q.q.q.q.q.q.q.q.",
"q.q.2 Y s ..=.7.0.0.0.0.%.S f q Z 2.6.o q.q.q.q.q.q.q.q.q.",
"q.  + . a *.E ,.9.0.0.0.0.0.0.0.0.0.^ q.q.q.q.q.q.q.q.q.q.",
"q.q.q.. d % C <.0.%.2.0.0.0.1./ 0.5.2 q.q.q.q.q.q.q.q.q.q.",
"q.q.    q.% ..3.( G >.0.+.,.[ +.9.L q.q.q.q.q.q.q.q.q.q.q.",
"q.q.q.q.q.F X...[ v X.Q ..I ' -.| + h ^ * q.q.q.q.q.q.q.q.",
"q.q.q.q.9 *.| v + d c ~ c @ [ &.2 q.S x e D q.q.$ @ @ ; o ",
"q.q.q.. d 2 . q.q.C Q 0.0.A _ 2 q.q.C ] e 3 : ; o @ & . q.",
"q.q.q.q.q.q.q.q.% C ` 0.0.V + @ - - ! @.W S q.q.  6 s 1 q.",
"q.q.q.q.q.q.q.q.  . L 6.0.b ; # X q.b f t 7 q.q.q.8 N s q.",
"q.q.q.q.q.q.q.q.q.o r -.5.D q.q.q.q.q.q.q.q.q.q.q.p P B q.",
"q.q.q.q.q.q.q.q.q.q.q.q.c 8 q.q.q.q.q.q.q.q.q.q.q.M T l q.",
"q.q.q.q.q.q.q.q.q.q.q.q.q.q.q.q.q.q.q.q.q.q.q.q.  z K 8 q.",
"q.q.q.q.q.q.q.q.q.q.q.q.q.q.q.q.q.q.q.q.q.q.q.q.X c R O q.",
"q.q.q.q.q.q.q.q.q.q.q.q.q.q.q.q.q.q.q.q.q.q.q.q.1 U F q.q.",
"q.q.q.q.q.q.q.q.q.q.q.q.q.q.q.q.q.q.q.q.q.q.q.. z P % q.q.",
"q.q.q.q.q.q.q.q.q.q.q.q.q.q.q.q.q.q.q.q.q.q.q.& M > q.q.q.",
"q.q.q.q.q.q.q.q.q.q.q.q.q.q.q.q.q.q.q.q.q.q.X 8 % q.q.q.q.",
"q.q.q.q.q.q.q.q.q.q.q.q.q.q.q.q.q.q.q.q.q.  X X q.q.q.q.q.",
"q.q.q.q.q.q.q.q.q.q.q.q.q.q.q.q.q.q.q.q.  q.q.q.q.q.q.q.q.",
"q.q.q.q.q.q.q.q.q.q.q.q.q.q.q.q.q.q.q.q.q.q.q.q.q.q.q.q.q.",
"q.q.q.q.q.q.q.q.q.q.q.q.q.q.q.q.q.q.q.q.q.q.q.q.q.q.q.q.q."
};
