/* XPM */
static char *result[] = {
/* columns rows colors chars-per-pixel */
"50 50 232 2 ",
"   c #060A06",
".  c #0C140C",
"X  c #0B1408",
"o  c #121B0D",
"O  c #161917",
"+  c #0E1111",
"@  c #14250D",
"#  c #1A350E",
"$  c #192416",
"%  c #1C3212",
"&  c #1E3E11",
"*  c #28261A",
"=  c #243B19",
"-  c #233717",
";  c #312B1F",
":  c #1D2224",
">  c #1F272B",
",  c #292925",
"<  c #2C2E2C",
"1  c #242827",
"2  c #273629",
"3  c #31312C",
"4  c #3C3325",
"5  c #282E32",
"6  c #2C3133",
"7  c #2D353B",
"8  c #2F393A",
"9  c #343533",
"0  c #3C3C3B",
"q  c #333A3C",
"w  c #312C22",
"e  c #191D21",
"r  c #2A4B1B",
"t  c #264716",
"y  c #344C1B",
"u  c #2B5C15",
"i  c #2D541B",
"p  c #2B5617",
"a  c #315C1B",
"s  c #365619",
"d  c #2D460D",
"f  c #2E6516",
"g  c #34631D",
"h  c #376B1A",
"j  c #39751D",
"k  c #387819",
"l  c #2E4A22",
"z  c #315321",
"x  c #355B23",
"c  c #385E26",
"v  c #355028",
"b  c #3E413F",
"n  c #304427",
"m  c #366321",
"M  c #396524",
"N  c #3B6B24",
"B  c #3B6428",
"V  c #3E6C29",
"C  c #3C7322",
"Z  c #3D7A21",
"A  c #3E7028",
"S  c #1F480E",
"D  c #4A7B19",
"F  c #54791B",
"G  c #4A6A11",
"H  c #41423D",
"J  c #426C24",
"K  c #426C28",
"L  c #4A7321",
"P  c #417B25",
"I  c #417429",
"U  c #457C2B",
"Y  c #477826",
"T  c #547F24",
"R  c #457530",
"E  c #343B41",
"W  c #383E43",
"Q  c #3B4349",
"!  c #4D4D4D",
"~  c #434646",
"^  c #4E504F",
"/  c #434E58",
"(  c #49545D",
")  c #565656",
"_  c #555858",
"`  c #51514F",
"'  c #5C6358",
"]  c #60605F",
"[  c #515E67",
"{  c #4C5862",
"}  c #586267",
"|  c #5C6C76",
" . c #5B6978",
".. c #5C7079",
"X. c #676868",
"o. c #65727A",
"O. c #767878",
"+. c #3D831C",
"@. c #3E8B1B",
"#. c #3F8021",
"$. c #4A861B",
"%. c #58881C",
"&. c #46961D",
"*. c #5A9719",
"=. c #67971A",
"-. c #6A9119",
";. c #55A91E",
":. c #4EB31F",
">. c #5AB61F",
",. c #49A81D",
"<. c #69A71B",
"1. c #76A819",
"2. c #69B81B",
"3. c #7BB51B",
"4. c #428323",
"5. c #448B23",
"6. c #498C24",
"7. c #468429",
"8. c #49842C",
"9. c #4B8C2B",
"0. c #4B8625",
"q. c #568826",
"w. c #459421",
"e. c #4A9425",
"r. c #479920",
"t. c #4B9C24",
"y. c #4C952B",
"u. c #4D9B2A",
"i. c #519A2B",
"p. c #589727",
"a. c #4B8632",
"s. c #4D8B32",
"d. c #508C34",
"f. c #529333",
"g. c #539B32",
"h. c #4F9033",
"j. c #608F26",
"k. c #699A24",
"l. c #639831",
"z. c #4BA421",
"x. c #4DAB22",
"c. c #4EA228",
"v. c #51A426",
"b. c #5DA224",
"n. c #51AC25",
"m. c #52A32C",
"M. c #53AA29",
"N. c #5AA929",
"B. c #52B324",
"V. c #52BA21",
"C. c #5BB32C",
"Z. c #5CBC2A",
"A. c #59B427",
"S. c #5BAC32",
"D. c #58A632",
"F. c #5DB731",
"G. c #4FB420",
"H. c #68A726",
"J. c #65B828",
"K. c #75B326",
"L. c #62B833",
"P. c #71AA2C",
"I. c #79C51C",
"U. c #73CB1D",
"Y. c #5AC425",
"T. c #5CC428",
"R. c #62C42C",
"E. c #63CB2B",
"W. c #69C826",
"Q. c #75CB28",
"!. c #6CDA2E",
"~. c #66D42C",
"^. c #78D626",
"/. c #67C831",
"(. c #6CD531",
"). c #7CE32B",
"_. c #75E12E",
"`. c #70E030",
"'. c #86BC17",
"]. c #8AB314",
"[. c #83BB22",
"{. c #88C51A",
"}. c #98C715",
"|. c #8ADA1B",
" X c #93D51B",
".X c #99D918",
"XX c #94E51B",
"oX c #A4E916",
"OX c #ACF116",
"+X c #86C622",
"@X c #8BD522",
"#X c #87E424",
"$X c #94E220",
"%X c #A1DF13",
"&X c #687A85",
"*X c #6D7E90",
"=X c #718593",
"-X c #788A96",
";X c #7D919D",
":X c #71848E",
">X c #848584",
",X c #8A8B8A",
"<X c #87949B",
"1X c #989A9A",
"2X c #848F95",
"3X c #869AA7",
"4X c #8CA4B3",
"5X c #8FA8B8",
"6X c #92ACBB",
"7X c #9AAAB3",
"8X c #9FB1BC",
"9X c #8FA2AD",
"0X c #A3A4A4",
"qX c #ABABAB",
"wX c #A7A8A8",
"eX c #BDBDBD",
"rX c #B3B4B4",
"tX c #AAB2B6",
"yX c #9EBBCC",
"uX c #99B4C4",
"iX c #A2BDCC",
"pX c #B5C9D4",
"aX c #B1C2CC",
"sX c #C6C8C9",
"dX c #CAD3D9",
"fX c #D4D4D4",
"gX c #DCDCDC",
"hX c #D5DADC",
"jX c #C5CED4",
"kX c #DADFE1",
"lX c #E5E5E5",
"zX c #DBE0E2",
/* pixels */
" XD.K V s.S.n.m.I >.%.e.g 8.W..Xg.S.I t.P M - V 7.N.S.g.=..X*.C 9.P.XXf./.8.L..XL.B V f.F.M.F.I B.Y ",
").+Xz N i.+XJ.9.U I.v.p.1.J 9.t.$ o b ] O.,X>XO.X.! 1 o a A.K.t.S.c R.&.I 8.y.#Xb.z C D.L.M.9.Z N.'.",
"D.#XK.6.r.J.0.m.4.W.V.v.Q.2.r - X.wXsXgXlXlXlXlXgXfXeX,XQ t &.u.V.Z 9.u.z U M D.|.x.9.e.Z.q.S.y.M.).",
"x L.E.q.T 8.x.a.D.U :.z.Y a : qXlXlXlXlXlXlXlXlXlXlXlXlXgX1X- C c.x x w.F 1.7.v m.V.U A k. Xq.m.U Z.",
"#.u.f.0.q.z.9.4.m.7.f.V.a O <XlXlXlXlXlXlXlXlXlXlXlXlXlXlXlXO.% &.j M n.D ^.C #.u.f.j $. Xp.#.5.5.0.",
"5.K g 4.u.d.9.M.Z q.|.y.& | pXlXlXlXlXlXlXlXlXlXlXlXlXlXlXlXsXO @.y.z.A N ~.V.5.A M %.H.R 0.M.9.8.).",
"5.m x.C V.C U y.Z N ^.w.E uXpXlXlXlXlXlXlXlXlXlXlXlXlXlXlXlXlX,X# +.x.c.z A.c.6.M I.P !.U U D.-.M ).",
"w.m V.t.v.#.m U x.j :.- :XyX8XlXlXlXlXlXlXgXlXlXlXlXlXlXlXlXlXlX1 4.z.V.w.t.I w.m E.{.L.5.M 8.Q.P V.",
"8.-.S.x.8.i.:.w.s.N &.2 5XyX7XlXlXlXlXrX9 O 9 0XlXlXlXlXlX1X~ O.O.t B 9.v.0.{.5.Z y.T.8.e.B.t.h.P A.",
"z Q.[.G.j 4.D.d.4.x k 2 uXyX3XlXlXlXfX0 , 3 , ~ gXlXlXlXeX0 , * X.# l w.V I W.z .X[.!.P 5.g.s.4.x /.",
"w.R.e.Y.A.k.6.F B j t 7 yXyX<XlXlXlXwX, 0 9 3 * rXlXlXlXO., 3 < ) o D ;.{.M $Xz.W.i.Y.C.T p.F B h I ",
"N.T.4.x.+X|.=.|.C ;.G Q yXyX2XlXlXlX1X0 ) ` 9 * wXlXlXlX] 0 0 3 ^ < 5.2.).*.v.c.A.4.n.0. Xk..X%.z.z.",
"r.C.#.U J.A.u.!.!.i.S { yXyX2XlXlXlXrX3 ) ) H , eXlXlXlXO.0 ! 3 X.! p A.!.:.I w.t.@.U {.!.m.`.!.m.~.",
"D.8.$.J.#XK.J.R.m.y.@ ..yXyX<XlXlXlXgX] 9 ! < ] lXlXlXlXsX~ H O qXX.t R c.V.C u.Y #.'.#XS.A.~.i.y.g.",
"I C 6.!.!.P p.g.m '.O ;XyXyX1XlXlXlXlXlXqXO.rXgXlXlXlXlXlXsX>XeXlXO.t z.I s.N I V 6._.(.7.q.f.M u.#.",
"e.x I Y.E.q..XF c.M E 5XyX6X0XlXlXlXlXlXlXlXlXlXlXlXlXlXlXlXlXlXlX>Xs u.5.F e.r.x U T.x.K =.F &.U A.",
"m.w.z.!.R. XN.$.Y.p [ uXaX:XsXlXlXgXrXwXsXgXwXqXqXqXqXqXqXqXeXeXwX,XD I }.@XI m.M.z.G.N.}.3.y.:.m.s.",
"z.y.B.y.v.Y.5.p.p.@ 4XyXyXo.lXlXlXfX9 0 b ,X6 0 0 0 0 9 * e 9 w O >Xp %.!.C.z z.i.(.D.Q.!.m.j.d.9.I ",
"M.n.h.B 6.V.q. XD 7 yXyX5X0XlXlXlXgX` ` 0 1 ) ) ) ) ) ! 3 3 e + 0 O.r I.~.7.i.C.n.g.B k.`.p. Xy.1.N ",
"U B.D %.p.u.b.U.@ =XyXaX9XaXlXlXlXlX>X~ ) 3 ) ) ) ) ) ~ 3 w , * O.X.t A.m.N V.I n.4.Z 4.S.H._.U ^.W.",
"q.+XP S.t.m Q.$.5 yXyXyX9XlXlXlXlXlXsX9 ` ) ) ) ) ) ) 9 3 3 < + sX~ r i.A 5.m.F +X8.C.t.c ^.`.6.R.~.",
"C Q.x U A z h O 4XyXyXuXaXlXlXlXlXlXlXsX0 ~ ) ) ) ) ` 3 3 < , 0XlXO D %XC V.U 0.I.v R A l A.T.6.A.Y.",
"5.B.P C c.t > 4XyX-XyXuXaXpXlXlXlXlXlXlXgXX.6 9 ! ! 9 ; e w wXlXqXS e.Z.5.x.Z.*.:.Z V c.C y.B.Z A.9.",
"n.g.c M % O &X&X> q yXyXaXhXzXzXlXlXlXlXlXlXgX0X] 0 0 ` 0XgXlXlX} i B.9.g.V z.^.y.x C 8.y.B.u.9.!.4.",
"W. Xa % X @ % %   &XyX6X3XaXpXlXlXlXlXlXlXlXlXlXlXlXlXlXlXlXlXsX$ z C.z.x 4.I A.z.a C t.n.u.4.U H.I.",
"U ^.U.Y N 5.Z & 7 =X/ > | yXdXlXlXfXfXlXlXlXlXlXlXgX1XlXlXlXjXQ u Z A 9.m N j U B.V.f.7.m.H.u.w.c.#X",
"z D.W.P C C @   O + # $ 4XpXzXlX1XX.sXlXlXlXsXhXfX&X&XlXlXgX*X+ m.z m x.C &.7.z g.V.C C 1.Q.V [.V /.",
"w.e.R Y h S % p f 5.o | aXkXtX-X&Xo.8XjXlXrX4XsX<XuX1XlXhX8Xw %.w.4.Z y.C :.5.m.m.R %.k.F.I {.6.e.P.",
"8.3.j 0.N.K y.g.A %  .uX8X3XuXyX| } iXsXwX;XyX6X..uX5XdX6XQ G t X.X.J y g A.:.Y K 3.C k = Z N - J $X",
"w.J.V.5.|.5.B e.S E yXyXyX5X..:   { [ E ) / :X8 8 yXiX5X1 t J qXqXX.+ 5 ~ k y.$.y D . O + * 4 * a !.",
"w.y.M.c.g.5.Z t O 6X5X;XQ . o 5.o o.Q dXlXqX~ . ( yX5X5 p t.- 1 6 &X6 7X,X@ $ O w 4 O < O   X t h T.",
"I 3.y.:.Z y.f   2 b 2 % G Y z t Q &X} zXlXlXgX>X&X:X2 t M k 8 3XQ 6Xe _ , ; * * - .   e : . o N M V.",
"M R.m.V.5.C J t r t 5.P ^.OXM @ &X} :XgXlXlXlX>X5   $ - * ; 3 sX~ hX^ aX' = ;.a {.# O 7 W W + c z u.",
"&.R.e.V.u.=.K.1.v ].q.7.`.`.k   w o | pXlXlXlX] * ; ; * * - $ 1X^ 0X) ] ' g `.&./.d 1 E /  .: - 5.C ",
"C./.p.N.k.XX=.#X5.R.oXA R.V.k u k & Q iXkXlXlX>Xo % d k h Q.-.n l v y f k ,.w.w.:.a : E / =X7 p z.V.",
"v.S.e.p.$XZ.M.T.:.M.R.Y.8.B.&.i.K.% O | 8XfXdX3Xg u.|.Y.x.A.Y.c.9.Y.C u.:.B.U c.m.a 1 ( ..4Xq h m.x.",
"9.P $.|.~.5.m.B.8.l.8.x.x e.6.L U &.r.r r ..( ( f Z Z.M.s.7.c.P z B.M F y.A.U y.C p 5  .=X4X> x y.U ",
"J M P T.V.Z k.q.m {.=.v.x j.j.{.1.R U -.V $.u k z.c s.A N n.6.N z g.L oXU R C A M = E  .*X=X+ r t.5.",
"m.M Z V.Z.}.@XL z.I n.q.].J. XT f.F ].P.4.c z.E.9.g 9.$.5.g.I..XF #Xr.f.8.].H.m.m % 7 (  .&X@ z.I n.",
"c.c.:.V.M.~.r.5.M.M.U  X:.u.~.m.1.|.p.<.p.V.Y.C..XoXY M.M.9.9.!.e.@XR.h OXQ.x c.i.% 7  .-X{ p M.c.I ",
"A.u.A.9.M.:.;.b.8.s.I 7.c.9.B.8.x.x.N 6.'.H.M.s.#XI.Y k.y.h.x C.A.D.m.-.!.m.r x.t :  .;XuXe p.9.a.V ",
"S.n.8.x 7.V.p.W.=..X$.j I V w.r.V.N.3.K.J.4.K Y S.;.{.p./.L.a 4.h.4.C W.V.7.2.9.. Q =X;X{ & #XZ x.$.",
"A m.#.w.w.7.v.Y.P Q.XXP M M.B c.S.B c.#.g.B.F  XT b.!.J.g.#X{.J w.Z M M.y.N ~.% E / &XQ o c.`.P >.XX",
"C M.P S.y.x :.|.=.R.^.3.M ~.z 9.4.t.D.U {.H.q.^.I q._._.7.#X|.%..X=.x F.C S.A + E { 5 o i A.E.4.;.^.",
"C x.m M Z z H.^.4.2.>.b.t.:.&.j 4.G.;.G Z.e.z 7.a N E.`.Y _.(.9.!.~.M z.N f   5 Q e % Z z C.`.6.x.R.",
"e.B.A A g.w.c.x.V 2.D =.M u.&.t.5.w.y.3.t.e.r P y.6.y.n.P R.e.M J.M.z.M.f   O > % t B g.w.m./.U n.9.",
"oXP.V C 5.f.z.4.g $.f =.G s Z +.a M p p.=.z - g M Z +.x $.&.J #.f.A +.#     @ k s.z C q.g.n.i.P n.$.",
"/.$X2.Z t.V.$.=.a j *.F *.h t +.i t r a *.h u p +.h h u x <.;.t.G.t t p - C m m.V.u.Z 3.U.5.5.U b.|.",
"I A.V.s.R h.{.N.e.#.A.D C Z t j = f t f U &.k z V Z 5.a.#.M.Z.Z n.A M Z P N $.V V.`.d.U h.c.g.u.D.XX",
"A g.v.C Z w.D.q.k.N y.x.N h m @.j x.#.N M u.C @.m B.U v.I 8.J.n.Q.m M B.%.I.A M y.C.C C r.u.C y.P A."
};
