/* XPM */
static char *result[] = {
/* columns rows colors chars-per-pixel */
"50 50 226 2 ",
"   c #1C1C0B",
".  c #171708",
"X  c #201F0C",
"o  c #1B260F",
"O  c #1D2A0E",
"+  c #1F2F12",
"@  c #1D3513",
"#  c #24230E",
"$  c #28270F",
"%  c #212A0E",
"&  c #292B0F",
"*  c #2C360E",
"=  c #2C2B11",
"-  c #272B11",
";  c #312F13",
":  c #2B3413",
">  c #2C3D16",
",  c #2D3D18",
"<  c #253715",
"1  c #353315",
"2  c #393617",
"3  c #343C13",
"4  c #3B3B16",
"5  c #3B3718",
"6  c #343E19",
"7  c #3D3B19",
"8  c #413E1A",
"9  c #38460F",
"0  c #2A4514",
"q  c #25441A",
"w  c #2B4319",
"e  c #2D4B1B",
"r  c #294A16",
"t  c #354313",
"y  c #3B4413",
"u  c #3C4B13",
"i  c #34451B",
"p  c #3C431A",
"a  c #334B1C",
"s  c #3B4B1B",
"d  c #364912",
"f  c #2D501A",
"g  c #2E5917",
"h  c #34531D",
"j  c #3B541E",
"k  c #325C1E",
"l  c #3B5B1C",
"z  c #365815",
"x  c #35641C",
"c  c #3B631C",
"v  c #366B1D",
"b  c #3B6C1D",
"n  c #3A741D",
"m  c #3B7A1D",
"M  c #3C4B20",
"N  c #3D5222",
"B  c #3B6320",
"V  c #376921",
"C  c #3C6E23",
"Z  c #3D7523",
"A  c #3E7C21",
"S  c #414C13",
"D  c #44431B",
"F  c #49461D",
"G  c #434B1C",
"H  c #4C4B1E",
"J  c #404616",
"K  c #504C1F",
"L  c #455210",
"P  c #485314",
"I  c #4B531D",
"U  c #425A1D",
"Y  c #45581A",
"T  c #535C1E",
"R  c #45641E",
"E  c #46671B",
"W  c #417B1E",
"Q  c #46781E",
"!  c #517A1E",
"~  c #52771D",
"^  c #434C21",
"/  c #4D4B21",
"(  c #4C4720",
")  c #524D22",
"_  c #435423",
"`  c #4C5222",
"'  c #455B23",
"]  c #4E5629",
"[  c #555224",
"{  c #595526",
"}  c #5B5B27",
"|  c #5C5628",
" . c #545929",
".. c #5D592A",
"X. c #555B26",
"o. c #625D2C",
"O. c #4D6922",
"+. c #446822",
"@. c #5E612E",
"#. c #576928",
"$. c #417324",
"%. c #437D25",
"&. c #4A7B22",
"*. c #417628",
"=. c #447E28",
"-. c #4B7726",
";. c #587B27",
":. c #5A6130",
">. c #477B30",
",. c #66612E",
"<. c #68622F",
"1. c #657F2F",
"2. c #6B6531",
"3. c #656832",
"4. c #6E6834",
"5. c #676532",
"6. c #716B36",
"7. c #756E39",
"8. c #77703A",
"9. c #7A743C",
"0. c #757C3A",
"q. c #7F7840",
"w. c #837C42",
"e. c #3E821E",
"r. c #3E8A1C",
"t. c #3E8021",
"y. c #42851D",
"u. c #4C841D",
"i. c #4C8C1E",
"p. c #52841E",
"a. c #538C1C",
"s. c #4C931E",
"d. c #44951D",
"f. c #57961D",
"g. c #5CA41F",
"h. c #65A81F",
"j. c #68A61E",
"k. c #72B81E",
"l. c #69BB1F",
"z. c #448425",
"x. c #4B8424",
"c. c #468B25",
"v. c #4B8C24",
"b. c #468429",
"n. c #48862B",
"m. c #478928",
"M. c #4A8C29",
"N. c #518523",
"B. c #538D24",
"V. c #518B2B",
"C. c #578429",
"Z. c #469322",
"A. c #4A9425",
"S. c #4B9B25",
"D. c #4C9329",
"F. c #4D9B29",
"G. c #479821",
"H. c #549423",
"J. c #5A9523",
"K. c #539B24",
"L. c #5B9D24",
"P. c #53932A",
"I. c #539B2A",
"U. c #5C9C29",
"Y. c #5A9629",
"T. c #539134",
"R. c #5C933D",
"E. c #4B8432",
"W. c #6A8A2C",
"Q. c #629D23",
"!. c #699B21",
"~. c #629621",
"^. c #698933",
"/. c #649B3C",
"(. c #738439",
"). c #4DA324",
"_. c #4EAA24",
"`. c #4FA129",
"'. c #53A425",
"]. c #5CA424",
"[. c #52AB25",
"{. c #5CAC25",
"}. c #53A429",
"|. c #5BA329",
" X c #55AA29",
".X c #5BAC2A",
"XX c #55B325",
"oX c #5CB325",
"OX c #5CB826",
"+X c #57B129",
"@X c #5CB42B",
"#X c #5CBB29",
"$X c #54BA24",
"%X c #5EAA32",
"&X c #5DB230",
"*X c #63A422",
"=X c #6AA422",
"-X c #63AC25",
";X c #6AAC23",
":X c #62A429",
">X c #65AC28",
",X c #6AAB2A",
"<X c #6BA628",
"1X c #64B425",
"2X c #6AB325",
"3X c #65BB25",
"4X c #6BBD24",
"5X c #64B22A",
"6X c #64BD2B",
"7X c #6BBC28",
"8X c #6BB42A",
"9X c #75BC22",
"0X c #74B624",
"qX c #6AA13D",
"wX c #68BD31",
"eX c #5FC328",
"rX c #6BC125",
"tX c #6CC428",
"yX c #64C729",
"uX c #72C222",
"iX c #76CB26",
"pX c #69CE30",
"aX c #75D427",
"sX c #898247",
"dX c #8F884B",
"fX c #918A4C",
/* pixels */
"8X=. XH.L.v.U.M.&XM.wXL.].B.1XM.>Xb.}.D.].M.I.=.W.0.(.U.>XV.Y.b.}.=.}.J.{.B.|.M.,X=.+XD.].M.I.b.>X=.",
">XH.'.P.[.%.%.b.&XP.&XT.).%.c.x.}.M.0XM.1X-.O.w.6.w.6.#.#.7.[ %.F.M.}.n._.Z %.x.'.b.0XM.oX%.M.&.>XB.",
"b.A.n.z.oXS.x.yXx.j.n.m.3XZ.z._.m.J.M.x.^.fXs I w.sX8.F ,.I D X.O.j.m.z.7XA.z.XXb.H.V.b.6XF.m.6Xb.A.",
"z.F.b.%.>Xz.6X,XM.}.z.%.5Xc.[.m.z.5Xn.;.2.fX7.d p I P y @.L 9 u y S.z.%..Xc._.M.b..Xz.x..Xc.[..Xb.S.",
";XS.I.C Z.h.B. X;XG.D.$.L.'.$.k.;X}.x.w.4.2.8...o.G T S } H D u G K $.Z K.].Y.k.h.S.D.Z H.].v.@X2XK.",
"XX].L.K.K.$XOXS.XXB.k.].j.$XK.L. XC.w.9.8.) 4.D e i F 2 y F K F H L L ! j.$X3XL.XXH.*XL.G.yX3X%XXX].",
"D.rX7XI.].S.n.K.v.rX].F.'.L.*.c.M.~.9.7.o.' N , ` 4.,.{ { 6.6.[ K [ F G H.K.b.c.M.rX@XK.`.S.b.Z.M.tX",
"b.yX;XK.;X'.:X!.M.XX!.}. X1X:XB.M.W.2.{ 8.2._ M _ e J F H u o.4 [ 4.4.[ R oXL.H.c.OX=Xc.}.@XD.B.c.pX",
"`.A.H.<XH.I.{.x.oXM.K.<XD..XK.c.I...sX| [ { 8 1 s a e M / y d J 3 D F H F U {.b.}.I.|.%XA.D.2XM.&XU.",
":XA.-X1Xs.v.M.-XL.*X{.{.Z.A.b.^.| 2.) 6.8.<.) K / [ ) o.9.{ J ) T L P 2.| | +.F.:XD.-X).Z.e.M.}.-XD.",
"F.%.S.}.uXoXz._.A.B.K.'.D..XW.7.fX[ S I ) [ F [ M i a M / F F o.2.F y { ) ) D '.S.%.G.G.c._.c.[. Xb.",
"1Xc.F.M.rXb.A.-.'.J.{.c.L.#.w.7.| ..S 3 P 9 4 4 D p w ] | 6.4.D { 8 ( / o.{ s Z .XP.F.m.A.M.M.Z 8XM.",
"|.x.S.M.1Xb.A *XD.z.<X;.0.9.2.w.) o.4.[ H X.} J o.<./ | | D i i 6./ <.<.o.{ 8 U D.v.<XP.'.b.Z A.:Xx.",
"].*Xb.$.rX*Xb.3XB.Z.-.w.w.{ o.{ 2.H K F ) F 9 u 5 / D s ^ 5 N p 8 8 [ { 7 F 7.7.` B.b.N.#XS.z._.-X].",
"K.F.A.%.].u.}.L.B. X;.4.w...dX2.8 [ o.2.2.8 [ D / 4.| ` N a  .:.5 F 7.2.) F 4.8.,.s A.%.].x.F.c.U.S.",
"oXS.L.-.P.yX*X'.[.Z.2.q.sX_ j [ K 5 D { 8 1 7.,.| | | | 4.M e w a / 8 F 1 2 ) { F p O.C A.l.*X). XS.",
"oX;X1X}.{.XX-XK.S.Q.H ,.[ ^ e ' { U ..) D F / 7.( F F F [ 7 s p ]  .8 | ,.F D 1 o.8.{ R `.eX.XD.'.;X",
"b.XX;XH.].Q.J.x.&.,.dXw./ +.N e e h 7 F 7 F | { [ R ~ i u M > G / p { o.7.o.7.F o.o.F / K.Q.I.z.M.XX",
"F.[.1XA.].OXQ.~.B.{ 7.o. .e h q h l s 3.o.D [ 4 l ).7X}.b.qX#.+ w ` 8.) ) { F 2 F 7 ) F %.6X:XB.I._.",
"I.=.'.;Xv.b.[.=X;.8.2./ o.{ U , h q l N 3.} 4 c .Xb..X].C qXp 1 ; 8 K ) 4.2.F 2.9.| | [ Y P.1XA.F.z.",
"S.D.S.-X*X'.%.}.I [ o.8 8 F D 1 6 s N w D | +.S.S.F..XL.E./.0 = X 1 ; 8 [ 8 F o.) F F { ) B.z.S.A.D.",
"U.A '.S.j.D.Z. XN.2 8 8 o.7.7.U 6 / N a D %.M.S.|.*.'.K.8XR.0 5 ; . 8 o.8.o.7 H { ( F ) p P.D.S.L.=.",
"uXc.-Xv.1Xu.z.Z p.{ K 8 F | ) h @.o./ s Y A z.*.4XP.8Xx.P./.O.= 2 X ; o.<.{ 7 ,.| { 2.2.{ c M.$.tXD.",
"M.%.I.H.{.H.Z S.R D K 8 | o.[ D ..6.4.^ 7XH.x.d.M.z.Y.N.J.R., # X # & D F 8 t 5.2.F ) 8 { O.x.).D.t.",
"B.].M.%.oXZ.}.}.x.J H 5 8 { H ) 5 F F t  Xc.].F.B.'.b.Z {.E.1 5 # 8 ; o.o.o.J u J F I { 2.R ].S.B..X",
"F.I.D.=.A.H.:X;XB.D F 4 D 2.o.7 ) <._ s d.v.M.;Xm.'.D.%.aX>.O 1 . 5 8 ) 6.2.F y 7 L S S H &.D.;XM..X",
"XXA.B.z.c.aXiX}.3X= H K 8 2.{ D D M h l f.rXuX}.uXK.J.v.}.].E . #   $ F ( 8 8 6 w ` { G s 3Xk.'.XX|.",
".X;X1X_.`.[.P.Z.}.z 1 8 ; [ s l N q r E  X).D.Z.S.;X1X'.`. X7 ; F = 4 |  .i ^ @.U / F 7 y y.M.Z.S.2X",
"b.XXb.z.S.<Xf.=Xm.l 4 $ 1 ,.N f q f k h A.].j.&.z.#XM.M.S.<Xl # # # 1 2.<. .a N p , [ D o.[ Y $.%.$X",
"{.).c.U.D.).8Xb.F.% 4 F a O.q N f h j h A. X8Xx..X}.A.,XD.#XE F 5 # # / ( F ) M N e e G 2.o.) c B..X",
"}.B.].1XA.x.S._.t.1 2 = 1 f N i / :.2.X.c.A .X}.S.N.].6XK.x.d 4 7 # $ 7 ) 2.{ / ] / ` 8 H ) s e.z.Q ",
"S.c.A.d.Z.).%._.S.. # F p h _ ` ^ @.,.Y Z.).z.[.S.M.S. X|._.:   = $ 7 ) o.F )  .i p i p / F 2 n m b ",
">X=. XH.L.v.L.b.F.w # 4 4 w [ D a a 5 b :Xv.A.z.>Xb. X|.].V.r ; 1 3 9 y S H H { o._ e [ o.<.{ s a.V ",
"8XH.}.P.'.%.A A `.i 4 = X i 6 2 a ^ ,._ {.%.%.%.>XH.}.V.{.&.% 2 8 1 1 { S F y K o.( ) ..F [ / 6 B.u.",
"b.A.n.z.oXA.x.oXb.d 7 7 = H N h @. .2.H '.Z.z.oXz.c.n.b.6Xy.2 & 1 & D ,.{ J L S / [ o.| 4 < q '.n.M.",
"z.F.z.%.{.z._.2Xx.> # # = / | D e e e 0 }.c. X-XA ).x.%.8Xf   = X   = K D [ [ p 7.2.7 , x n )..Xz.S.",
";XZ.H.$.Z.*XB. X;X* 1 1 # 1 7 5 1 ] ] a L.'.P.+X;XG.B.c n g & 7 # # ; ) { 6.<.) | 6 e B s.].v.[.2X}.",
"XXL.*XA.K.$XXXF.$X1 F F = 7 | 2.> ] / a S.eX3XS.XXv.u.W u.d.r O 1 4 / o.{ 2.` > q k *XK.A.pX3X).#X|.",
"m.OX1XK.].A.z.i.A.Y 8 8 9 L ` I H ^ e f S.A.A A Z s.a.x.y.z.x g @ - D ,./ i h C b.rX.XF.F.S.M.c.D.7X",
"z.XX*XS.-X'.H.!.v.&   # & 3 y P 3  .D u z.e.b Q v r.a.n a.i.Q ! v y.0 > q %.*XY.c.XX!.Z.S.S.D.B.M.yX",
"}.P.A.,Xv.A.{.M.oX= = 8 $ $ 7 3 4 y 3 U n n a.v t.n W p.W %.i.b H.n u.Y.z..X1Xz.}.H.|.Y.c.D.1XM. XI.",
"-XI.-X1XK.x.A.-XK.d . = = X F ) } u S H m x Z m u.W a.a.W v Z a.v.~.{.{.c.H.D.S.].M.-X[.Z.t.D. X-XP.",
"}.%.S.S.k.oXz.[.S.= 1 ; 4 & [ <.,.F D l %.e.n e.z.x m m f.s.b ).'.x.].Z.A._.J.).K.%.Z.G.z._.z.[.F.b.",
"2XM.S.c.rXc.m.&.[.6 5 ; * 3 4 D F 2.o.s z.v n k f.v m n g.x.D.&.'.U.-XM..Xm.A.*._.b.F.m.S.z.D.*.8XD.",
":XM.D.M.oXx.Z L.%.5 # 8 & 9 y L L S [ G y.x x n x.E t.m.{.z.%.L.D.b.-XP.4X%.Z c.D.x.-XV.'.A =.F.U.x.",
"].-Xb.*.tX*Xz.oXb   # 1 X 8 <.,.D u 7 u s.m u.r.H.f.b.Z 7X*XD.oXB.s.M.&.iXZ.B._.B.].b.N.#XZ.c.#X{.*X",
"K.S.c.b.].u.).f.l 4 =   . 1 F D D o.{ p c n c.z.L.A.D.b.].v..X*XB.}.M.%.].v.{.U.v.F.c.b.].x.F.m.U.}.",
" XG.L.~ K.tXj.'.v o # ; 8 1 1 D ..../ , n uX*X). XS.Q.&.K.rX*X'.[.}.H.! H.XXf.3X2XS.J.C A.l.*X).oXG.",
").=X1X}.'.[.1XK.G.Q 0 : = 2  .^ / e x f.{.#X.X}.#X;X2X}. X[.-X:X).*X1X}.'._.S.Z.+X9X[.}.)._.@XZ.oX=X",
"z.XX;XB.-XQ.J.B.x.OXc.v @ > ` M N y.I.c.S.Q.M.n.M.OX2XB.-XQ.f.B.x.oXA.b.S.A.J.%.z.XXJ.M.S.L.c.b.n.XX"
};
