/* XPM */
static char *result[] = {
/* columns rows colors chars-per-pixel */
"50 50 237 2 ",
"   c #321B1C",
".  c #211C1B",
"X  c #37251D",
"o  c #2D2C2C",
"O  c #272625",
"+  c #362A28",
"@  c #383929",
"#  c #333433",
"$  c #3B3C3B",
"%  c #393836",
"&  c #1B1C1C",
"*  c #461919",
"=  c #531D1D",
"-  c #463629",
";  c #463B36",
":  c #543734",
">  c #4A2423",
",  c #6F2A29",
"<  c #40211D",
"1  c #3C641F",
"2  c #3B472C",
"3  c #325521",
"4  c #355B23",
"5  c #3B5829",
"6  c #3D4437",
"7  c #3E5632",
"8  c #366321",
"9  c #3A6524",
"0  c #3B6C24",
"q  c #3D6829",
"w  c #3D7324",
"e  c #3E7B22",
"r  c #3F7028",
"t  c #446A1E",
"y  c #4A7B1F",
"u  c #557B1E",
"i  c #47482B",
"p  c #57472D",
"a  c #455B2C",
"s  c #474639",
"d  c #584738",
"f  c #475638",
"g  c #57573A",
"h  c #674A39",
"j  c #685537",
"k  c #795F3D",
"l  c #436D24",
"z  c #426D2C",
"x  c #427425",
"c  c #427C25",
"v  c #4A7D24",
"b  c #42742A",
"n  c #447B2A",
"m  c #4B7827",
"M  c #527D26",
"N  c #496737",
"B  c #59683A",
"V  c #4C7736",
"C  c #55783B",
"Z  c #75663B",
"A  c #656A3C",
"S  c #454645",
"D  c #4C5747",
"F  c #57544B",
"G  c #575555",
"H  c #504C50",
"J  c #675546",
"K  c #68534B",
"L  c #576948",
"P  c #5B7847",
"I  c #56694E",
"U  c #696548",
"Y  c #7A6543",
"T  c #647649",
"R  c #786858",
"E  c #76785A",
"W  c #696952",
"Q  c #676466",
"!  c #777A68",
"~  c #787577",
"^  c #736D6D",
"/  c #5F5B66",
"(  c #B93739",
")  c #8D2D2E",
"_  c #C03B3D",
"`  c #877547",
"'  c #8A745B",
"]  c #8E724A",
"[  c #977B67",
"{  c #87786C",
"}  c #3F8020",
"|  c #59881D",
" . c #59951F",
".. c #4B891F",
"X. c #6B9C1C",
"o. c #65971D",
"O. c #66901C",
"+. c #5AA51E",
"@. c #57B91F",
"#. c #68A81D",
"$. c #77AB1C",
"%. c #68B91D",
"&. c #78B81C",
"*. c #438324",
"=. c #4A8325",
"-. c #448C23",
";. c #4B8C25",
":. c #468229",
">. c #4A852C",
",. c #478A29",
"<. c #4A8B2B",
"1. c #558727",
"2. c #469222",
"3. c #4A9425",
"4. c #4A9C23",
"5. c #4C932A",
"6. c #4D9B2A",
"7. c #479B20",
"8. c #52952D",
"9. c #529C2B",
"0. c #5B9C2C",
"q. c #579724",
"w. c #4C8732",
"e. c #558938",
"r. c #529433",
"t. c #579A36",
"y. c #4E9030",
"u. c #618E24",
"i. c #649523",
"p. c #689D27",
"a. c #658838",
"s. c #6A9B33",
"d. c #4CA323",
"f. c #4EAB23",
"g. c #4FA329",
"h. c #54A225",
"j. c #51AB26",
"k. c #53A42A",
"l. c #5BA32B",
"z. c #54AB2A",
"x. c #59AC2C",
"c. c #5DA623",
"v. c #4FB320",
"b. c #52B324",
"n. c #53BA22",
"m. c #59BD26",
"M. c #56B329",
"N. c #5AB32C",
"B. c #5CBB2B",
"V. c #5BAB31",
"C. c #59A534",
"Z. c #5DB431",
"A. c #65A424",
"S. c #6BAB24",
"D. c #67A726",
"F. c #74AB25",
"G. c #6EBD21",
"H. c #68B728",
"J. c #76B825",
"K. c #62BB32",
"L. c #64B736",
"P. c #6BA732",
"I. c #7AC61C",
"U. c #6CC81E",
"Y. c #5BC526",
"T. c #5EC329",
"R. c #5DC826",
"E. c #63C42C",
"W. c #63CB2C",
"Q. c #69C725",
"!. c #76C725",
"~. c #69D42C",
"^. c #6CDA2D",
"/. c #66D22A",
"(. c #79D726",
"). c #68C632",
"_. c #6CD631",
"`. c #70CF34",
"'. c #76E12D",
"]. c #5A8344",
"[. c #5C9541",
"{. c #63854B",
"}. c #6E8B52",
"|. c #6EA950",
" X c #728063",
".X c #83B91A",
"XX c #84A13A",
"oX c #87C71A",
"OX c #89D61C",
"+X c #97DB19",
"@X c #90CE1A",
"#X c #98E61B",
"$X c #8CE21E",
"%X c #89D822",
"&X c #86CE24",
"*X c #88E123",
"=X c #93E620",
"-X c #97864B",
";X c #948B50",
":X c #A28752",
">X c #AE9C58",
",X c #B8A75B",
"<X c #95846D",
"1X c #988874",
"2X c #8B8566",
"3X c #A48B73",
"4X c #A7947C",
"5X c #B2977F",
"6X c #CAB965",
"7X c #D0B967",
"8X c #D7C56B",
"9X c #CEC066",
"0X c #EDDC77",
"qX c #E7D473",
"wX c #7B7980",
"eX c #827E86",
"rX c #979595",
"tX c #8E8C8E",
"yX c #AE9C8B",
"uX c #BBA389",
"iX c #9C97A4",
"pX c #9FA0A0",
"aX c #A8A6AB",
"sX c #ACABB1",
"dX c #B6B5B9",
"fX c #A79FB3",
"gX c #CAB195",
"hX c #D5BEA1",
"jX c #DEC4A4",
"kX c #F1D2B0",
"lX c #BFBBC6",
"zX c #C1BFC6",
"xX c #C6C6C8",
"cX c #CCC9D1",
"vX c #D7D7D9",
"bX c #E6E6E7",
"nX c #F1F1F3",
/* pixels */
"*X(.x.z.v.2.B.W.0 9 ).W.0.9 0 +.y m.f.8 } r.r.q 9 Q.#XK.z.b.e 7.f.0 9 M.Y.g.0 0 +.y z.).0 *.r.C.M 3 ",
"n.j.0.=.f.2.K._.E.3.h.p.S.l 0 (.H.g.b.-.8 w ,.4.*.E.`.9.>.b.*.4.m.f.w 2.5.2.e 8 G.I.S.W.*.0 b D.G.=.",
"@.2.&.$.;.=.9 V K.x.9.#XH.v | P.n.,.>.3.d.d.,.w.c M.j.#.q.;.w 9 n 6.f.1.o.G.w c 6.B.z.w.-.7.M.*.t.n ",
"3.-.h.(.oXX.3 t F.b b /.*.y I.J.j.d.w e C.t.e.V L [.C.J.+XI.c 3 8 ;.>.c &.#.3 &.&.H.^.l ,.k.8.<.x 4 ",
"c l 7.n.m.v.-.y W.7.0 B.n.-.B.k.-.v.<.a.s.N f 6 6 D 7 w.).T.n.*.y oX%.w A.(.c m.k.-.Y.9.i.S.y u.q 0 ",
"@Xo.,.b.Q.v.q.oX/.Y.d.*.j.*.j.h.,.<.u.a.@ o % o o $ $ $ f 6.b.4.9./.$X+.*.b.c d.2.*.6.i.OX0.oX%Xo.2.",
"j.v.f.,.j.v.e 4.j.T.R.x ;.c 4.-.l F.P.@ $ Q rXpXpXrX~ D # 7 r.:.-.N.W.b.-.,.e 3.-.l O.*X`.k._.^.W.M.",
"=.6.5.9 ,.f.w r :.k.T.6.w ,.,.-.X.!.a.# Q dXbXbXbXbXcXrXH % V z q n g.v.4.e 5.*.*. .OX'.9.3.E.M.5.5.",
"&.8.o.t c V.n K.M.x m 1.O.m q *.C.L.q % eXxXbXnXnXnXvXxX^ 6 C M 2.4.b b x c b q :.6./.B.x l p.v 9 c ",
"z.k.I..X*.W.K.n 0.1..X.XS.3.0 *.T.z.5 o G tXtXdXxXdXrXeXH # s.XX1.8.M $.c.5.4.w *.d.n.g.t X.i.=.d.,.",
"n i.(.T.2.j.E.V.X.#XH.5 q.J.z.h.C.[.L O O S / rXdXsX~ S o O V L.V.S.#X!.>.e ;.V.T.R.x.!.#X*X=.x.k.x.",
"n 8 x.Z.6.,.6.=.I.W.3.1 F.!.e.}. X XW % & o G tXrXrX~ S O % P t.1.!./.9.x *.f.g.Z.L.b %X'.K.1.$.l.q.",
".Xt -.w 1.c :.v.n.f.y +XC.e.T 4XuX<X[ R - S 4X1XR 1XyX[ F s e.n h.Y.T.;.N.K.L.j.:.z 4 y._.<.+XH.9.%X",
"(.&.r l &.x 9 v.g.;.l K.w.L <XuX3X3XuX[ : K [ uXuXgXyX{ W : U E {.t.>.w 4.-.*.x.3.w d.*.8.D.^.E.n x.",
"R.n.w l R.-.4 5.;.O.oXt.B 2XuX1Xh J ' h : ; : ' [ ' K F K R uXgX2XT V 8.t.n #.@X>.b k.:.4 c.^.^.;.k.",
"%XOX.X&.n.v.e 7.2.6.L.}.1XjXyXU s f ; - H O < ' [ ; ; Q : [ hXkXhX{ g C 8.-.q.b.e 4 :.} 8 :.b.v.} 2.",
"+. .(.A.g.6.f.f.<.r.C { gXgX' N a a.a % S O % K F + Q { K K [ uXgXgX5XR T J.P.k.w 3 <.<.3.g.g.g.c z.",
"%..XQ.!.,.q N.E.e.T 2XgXjX<XC 4 0 p.u.s S o Q H . Q sXrX: > F R 3XgX5X[ ! P C.6.9 8 :.2.g.6.4.x >.C.",
"Q.(.9.g.k.e :.|.W 1XkXkXjXE e.7.3.n V G wX# # o G vXnXlXQ ; { iXG % # o ; d N h.d.g.n g.j.q.6.6.,.3.",
"N./.k.:.6.9 4 |.U { uX4X1XW ].N.5.n N D eXwX$ O ~ bXcXfXiX^ Q ^ F ; # o o o D t.v.3.=.b p.&X9.i.D.>.",
"0.B.G.X.+.c e r.C U <XR J L ].e.r :.q Q sXtX# S aXcXfXfXsX^ R [ 4X[ R ; O o f e.<.r #.v H.0.1.oXq.c ",
"OX!.!.%XI.4.g.-.q L T P T N m ..z r.I tXlX~ & D aXsXsXvXcXQ K R [ 3XyXW 6 f D z S.| k.3.b e C.H.v 9 ",
"/.Q.k.t.(.#.x.W.;.l 9.t.l.l y @Xp.]. XcXvXtXQ rXhXcXbXnXcX/ : : J ` ' E ].[.n l OXH.3.v.w r 1..Xo.1 ",
"v.q.A.1.4.,.:.z.m.d.5.i.&.t 0 x.P.B ^ sXlXdXdXvXbXcXlXlXiX/ ; F A A C ].e.J.*.9 x.R.5.6.} } 5.<.k.c ",
"j.2.G.&Xi.1.3 q 5.,.=.%Xl.x  .,.9.2 d U R ! tXdXcXlXdXdXrXG $ D N r.t.;.J.Q.0 | k.B.E.b 5.N.E.k.,.q ",
"=.c K.(.=XG.8 t oXO.0 n.7...G.3.>.a Z -X-X` j U ~ rXaXsXrX/ S S N t.a.n B.K.0 &.$.q.Y.*.1.J.b :.w 4 ",
"$.M x._./.Y.d.*.(.U.| 4.+.-.b.,.V B ;X9X9X,X-XZ k Y ` 2XW S # $ 7 D P P C.T.e N.c.2.b.A.&.F.y 2.9 } ",
"(.%.z.x.b.v.;.@.OX'.I.x 4.e d.,.L U ,XqXqX9X,X-XA Y ,X,X-Xs $ S D D D I P 8.c d.6.;.J.=X(.3.f.b.d.4.",
"8.b.k.l 6.v.w n 0.M.b.*.:.*.,.<.T ;X6X0X0X0X0X-X- j ] 7X7X] ; S D {.I 6 D ].y.-.-.q.*X'.V.6.v.b.g.g.",
"#.-.1.1 v D.y .X#.n <.=.M n r n B ;X8X0X0X0X0X` - Y ] :X>X] p $ S N I D D I V w e -.R._.,.x l.;.q :.",
"H.3.J.#.q.+X$.1.9.c O.$.$.=.9 V C >XqX0X0X0X0XZ - Z ] :X:X] A d 6 S G $ s P e.0 n z.^.).l u p.*.2.:.",
">.p.Q.G.;.E.(.;.i.@XoX1.p.q.5.r.B ` 6X0X0XqX9XZ @ p j j j i p e.].f @ S S D P |.).^._.H.@X%Xv 5.b.d.",
"<.x j.j.6.9.j.>.4.Q.h.3 q.&.F.e.i p ] 7X8X,XY f L f X + X   @ m <.F.H.e.f D I {.Z.).r.!.(.Q.v p.8.5.",
"q.4 ,.c ,.w c d.n.m.;.oXS.G.s.f @ p Y :X:X` j i {. X: * * * X 1 ;.Q.M.1.s.[.}.[.w.V 9 l.n.-.oXG.-.7.",
"OX+.r 0 z.*.9 v.x.9.0 Q.;.6.y.2 d ` ` ` ] ] Z p L E > * = * X - >.j.,.n H.6.<.k.} r g.:.5.-._.E.*.4.",
"U.OXy 0 Y.g.4 5.,.c x.9.m oXJ.5 g j k ] ` ` Z A C A , , , , , - N <.*.x.V.n -.f.e n g.:.4 2./.E.} 2.",
"U.x.x ,.n.f.0 -.2.} n.A.u Q.G.q f B B h j p B C t.}.h , ) , h p x *.2.n.f.w -.%.v 4 5.x 3 >.^./.,.-.",
"#.u.m r M.f.d.b.g.d.g.H.oXx.M.n 4 e.N s j - 2 C C.).<.2 a 1.w.6.h.k.d.g.g.d.I.OXy.4 >.8.-.4.Z.`.n -.",
"7. ..Xo.0.n j.b.:.<.n <.(.&Xl.4 4 a % ; G d + F }.H.1.,.*.>.n f.f.,.w.r r d.R.l.9 3 *.q.l.j.j.<.n d.",
"%.&.J.oX#.r 4.B.e 4 n q C.(.G.e b N @   + +   % e.%X&X4.j.7.1 2.f.*.4 e 0 ,.b.f.;.*.w I.G.3.5.*.e ,.",
"Q.(.;.,.4.r 0 f.q w e 0 e t.Q.n.5.C @ * = >   2 e.E./.-.5.g.9 q 2.0 q.*.0 w n x.~.K.e :.5.4.6.5.5.5.",
"5.M.d.e -.8 8 k.} e f.e r e 6.C.V N + * = = * s N r.Z.j.#.A.0 0 2.*.F.I.;.e 8 5.Z.<.-.0 7.g.:.-.5.*.",
"oXH.H.OXI.7.4.w r } b.v.4.0 b N f p <   = = * - f g.j.M.Q.@.9.k.,.q k.(.U.j.w r 0 4 -.e n n 6.j.x r ",
"*XU.j.k.v.2.7.v.:.q M.M.S.l w 6.B , , , , , = , s M.Y.f.k.n.} 7.f.e e G.U.N.w 8 2.e -.f.r e w.g.e 3 ",
"Y.x.5.q.f.2.h.).W.k.3.1.S.x 0 G.XXh ) ( ( ( ) d P j.j.>.e f.e 2.f.v.} 6.<.3.e 8 d.v.5.j.} 9 w ,.f.e ",
"Y.2.h.!.F.n q n L.Z.;.oXH.r e r.K.V 2 - : - s N w.d.7.#. .,.0 q x 6.f.,.q.%.0 w -.v.7.>.5.7.f.} ,.r ",
"3.*.d.~.Q.7.t +X.XM x '.6.| &.A.x.d.z q r N ].V 4 <.6.G.#XI.} 4 9 } n m &.H.8 +.H.h.v.w 5.z.>.,.w 3 ",
"x 0 d./.'.I.c.c.'.J.r ).M.;.Q.#.5.b.,.w 5.w w 8 w *.q j./.R.v.} e %.#.w k.n.w h.h.;.n.,.i.D.q e 1 u ",
"v.2.5.K.^.~.9.%X^._.f.n d.-.E.k.*.<.X.+Xo.7.v.-.2.v.7.5.j.v.v.g.d.R.#Xc.} d.e 7.2.} 5.#.%Xq.oXoX..4.",
"f.v.f.,.B.n.c J.B.n.v.c -.:.V.4.l $.%X`.9.v.@.v.f.j.n.g.5.N.Y.e ,.B.^.n.2.3.e -.-.9 i.%X`.Z.@.n.v.@."
};
