/* XPM */
static char *result[] = {
/* columns rows colors chars-per-pixel */
"50 50 241 2 ",
"   c #010101",
".  c #0B0B0A",
"X  c #0A0704",
"o  c #170A09",
"O  c #130D12",
"+  c #151515",
"@  c #1A1819",
"#  c #13110E",
"$  c #290909",
"%  c #261A17",
"&  c #371917",
"*  c #2E150C",
"=  c #2B2719",
"-  c #362A1A",
";  c #1B1A24",
":  c #211C24",
">  c #222223",
",  c #2C2B2B",
"<  c #292628",
"1  c #362824",
"2  c #363429",
"3  c #3B3B3B",
"4  c #363636",
"5  c #2E3132",
"6  c #1F2620",
"7  c #4E1B23",
"8  c #4A2A26",
"9  c #4B352A",
"0  c #433732",
"q  c #593532",
"w  c #662727",
"e  c #762425",
"r  c #6F3C33",
"t  c #621818",
"y  c #314D1D",
"u  c #315221",
"i  c #355B24",
"p  c #375B28",
"a  c #37462F",
"s  c #366321",
"d  c #3B6C24",
"f  c #3B6428",
"g  c #3B6826",
"h  c #3C7322",
"j  c #3D7B21",
"k  c #3A791E",
"l  c #4B7C1D",
"z  c #51751B",
"x  c #47473B",
"c  c #564637",
"v  c #465939",
"b  c #504F2C",
"n  c #695A37",
"m  c #684D31",
"M  c #426C27",
"N  c #427426",
"B  c #417B25",
"V  c #417429",
"C  c #457B2C",
"Z  c #4B7826",
"A  c #466737",
"S  c #467431",
"D  c #527733",
"F  c #726339",
"G  c #4B571C",
"H  c #3A3745",
"J  c #463E46",
"K  c #4B4B4B",
"L  c #454445",
"P  c #595759",
"I  c #514F4D",
"U  c #675649",
"Y  c #705444",
"T  c #566749",
"R  c #587748",
"E  c #55684C",
"W  c #676759",
"Q  c #647B58",
"!  c #777242",
"~  c #686668",
"^  c #6C7667",
"/  c #787778",
"(  c #716D70",
")  c #585161",
"_  c #9F2C2C",
"`  c #8E7D3E",
"'  c #8D744D",
"]  c #957A69",
"[  c #86726A",
"{  c #946E5A",
"}  c #58861E",
"|  c #5B951E",
" . c #4D871E",
".. c #68961B",
"X. c #688F19",
"o. c #58A41D",
"O. c #58B61F",
"+. c #6BA81B",
"@. c #77A91A",
"#. c #69B81B",
"$. c #7CB41A",
"%. c #428322",
"&. c #448B23",
"*. c #498D24",
"=. c #468429",
"-. c #49842C",
";. c #4B8C2B",
":. c #4C8524",
">. c #578726",
",. c #459421",
"<. c #4A9425",
"1. c #4B9C24",
"2. c #4C952B",
"3. c #4D9B2A",
"4. c #479A21",
"5. c #519B2C",
"6. c #599828",
"7. c #4B8631",
"8. c #4D8A33",
"9. c #518938",
"0. c #529333",
"q. c #529A31",
"w. c #589C38",
"e. c #4F9033",
"r. c #699924",
"t. c #64902F",
"y. c #4BA421",
"u. c #4DAB22",
"i. c #4EA228",
"p. c #51A426",
"a. c #50AC25",
"s. c #52A32C",
"d. c #53AA29",
"f. c #5CA629",
"g. c #51B324",
"h. c #52B921",
"j. c #59B629",
"k. c #5BAC33",
"l. c #58A634",
"z. c #5DB531",
"x. c #4EB220",
"c. c #69A826",
"v. c #66B627",
"b. c #62B833",
"n. c #72AC2B",
"m. c #78C51B",
"M. c #76CD1C",
"N. c #5BC425",
"B. c #5CC329",
"V. c #62C32C",
"C. c #63CB2B",
"Z. c #68C826",
"A. c #76CC27",
"S. c #6CDA2E",
"D. c #66D32C",
"F. c #78D726",
"G. c #66C732",
"H. c #6ED336",
"J. c #7BE32B",
"K. c #70E030",
"L. c #5D8948",
"P. c #63894C",
"I. c #668854",
"U. c #6F9652",
"Y. c #6EAE4B",
"T. c #778C6B",
"R. c #7AA864",
"E. c #7FB167",
"W. c #7CC659",
"Q. c #88B615",
"!. c #88BC2A",
"~. c #87C51A",
"^. c #99CA15",
"/. c #8BD81A",
"(. c #96D71A",
"). c #95E51B",
"_. c #A9EB15",
"`. c #88C724",
"'. c #83D923",
"]. c #91D023",
"[. c #89E323",
"{. c #A1DF13",
"}. c #95864C",
"|. c #988D4F",
" X c #AC9457",
".X c #B8A75B",
"XX c #98826D",
"oX c #958F76",
"OX c #AE8F73",
"+X c #87A579",
"@X c #8CA772",
"#X c #BBA162",
"$X c #C9B566",
"%X c #CEB66A",
"&X c #C69B7D",
"*X c #8BD262",
"=X c #D7C46B",
"-X c #EBD575",
";X c #EEDD77",
":X c #E9D77A",
">X c #F4DC78",
",X c #E3C971",
"<X c #F9E57B",
"1X c #7A7886",
"2X c #817C82",
"3X c #7D8288",
"4X c #87878B",
"5X c #969699",
"6X c #8C8997",
"7X c #B69681",
"8X c #96B089",
"9X c #B8A389",
"0X c #9C9CA8",
"qX c #A49BAA",
"wX c #A5A7A7",
"eX c #B6B6B6",
"rX c #B0ACAF",
"tX c #CA9F87",
"yX c #D3B799",
"uX c #C6B093",
"iX c #D2BFA2",
"pX c #A7C994",
"aX c #FBEA82",
"sX c #DCC4A3",
"dX c #FBDCB9",
"fX c #E9CEAF",
"gX c #FEE2BB",
"hX c #DDC19D",
"jX c #B5B3C4",
"kX c #C1BBCE",
"lX c #C5C5C6",
"zX c #D8D8D8",
"xX c #D1CFD5",
"cX c #FFDDC1",
"vX c #FFE6C2",
"bX c #DCDAE3",
"nX c #E8E7EC",
"mX c #FFFFFF",
"MX c #F4F5F6",
"NX c #EDEFF5",
"BX c #E1DDE1",
/* pixels */
"(.l.M g e.l.a.s.N O.} <.s -.#.(.l.k.7.C.b.w.u 0.k.G.z.q.| (.r.h <.c.).0.G.7.b.(.b.f d 0.z.d.z.V g.l ",
"J.!.u d 5.].j.;.N M.p.6.@.M 2.j.-.-.B b.G.A = y y A ;.I.s.Z.c.4.l.f G.,.S -.2.[.6.u V k.b.s.=.N j.Q.",
"k.'.m.&.4.v.-.s.%.Z.h.1.A.#.s a.V N M C 5X. , 3 L L 5 , L.j.N.3.g.j ;.2.u C s l./.y.&.<.g.6.b.2.d.J.",
"i z.C.>.>.-.d.-.k.C g.u.C :.u d.s C.R I . , 3 5 0 L 4 , < +XO.&.i.p s 4.z @.%.i s.h.C V r.(.>.i.C j.",
"j 3.2.:.} y.;.%.s.%.0.h.j B j 5.U.~ + 3 > 4 4 @ < 5 3 3 a . +X,.,.h s a.B F.h %.5.q.d  .(.6.%.&.%.;.",
"*.M s =.3.9.&.a.B :./.q.g.g.n.t.T . > I / wXzXeXzXrX( K , H ; R.h.<.y.h d D.h.&.V g } c.S =.d.;.-.J.",
"&.s u.h g.h C 2.j g F.V.s.h.C *X4 6 5 lXmXmXmXmXmXmXmXMX6X+ ; 3 g.%.y.y.i g.i.&.s m.%.S.=.C s.r.M J.",
",.s g.1.d.&.s C u.k O.0.N h.Z w.@ + 1XmXmXmXmXmXmXmXmXmXNX4 . , E.<.Y.e.L.l.j 4.i Z.~.b.%.s -.A.h h.",
"=.X.k.y.;.3.x.,.;.d h. .@.0.i p O @ / rX4XwXlXmXnXrX0X5XrX: X T.h E W ( ^ c |.L.j 2.B.-.<.h.1.;.N N.",
"i A.!.h.h *.w.e.=.i a.h '._.u U.L O O P 0X3XBXP 5XlX~ ( : O X 3 5 U sXgXdXfXXXx P I P a +X0.0.B i V.",
",.V.*.N.f...*.z g s V h h.h.4.I.H @ < + @ 1XbXeXxXlXH # < @   9 uXdXdXdXOXyXgXiX< 5 L @ K P.z A g V ",
"p.B.%.u.A./...(.h O.^.g h.N.u.~.pX  o 2 ^ ^ 2 + = c 0X( = % W uXtXyXdXtXw # Y c + + 4 4 3 @X(.} u.y.",
"4.z.%.Z v.O.1.S.S.s.g.O.2.3.R A v x 1 c cXgXhXOXfXgXgXiX1 o 9XgXdXvXtX: ^ ^ O < H K > # [ W Q H.s.C.",
"s.;.%.v.[.v.V.V.5.2.<.x.v 4 XXdXdXgXdXx 1 fXfX7XOXfXsX% @ * % yXcXvXOXL pXh.A K   # 8 OXvXdXOXa 3.5.",
"V d *.S.S.:.t.0.R F v < U OXXXU U hXdXc X o U [ XX' X   P rX  XXvXtX9 R U.9.h P.4 ] fXXXyXiX1 Q 3.%.",
"1.i V N.D.U.!.^ < x x 9XfXyXOXU uXo uX= 8 :   o { 9Xo   2 mXo c r O +Xq.&.l <.2.A < _ - ] ] 4 L.C g.",
"s.<.y.Y.x W 7XuXfXY OXoX[ XXU ] & = o o q wX> X 0 w $     eX[ $   8XJ.B ^.'.V s.s.Y.%.P.G D U.h.d.;.",
"y.2.j.I [ fXdXvXgXOXr 9 Y ] c % 8 * $ I zXMX~   5 [ 4X<   0 eX0 X @Xa.} S.v.u y.5.H.l.A.K.5.X.e.7.N ",
"d.u.0.1 ] gXdXOXfX{ 4 / K / L.T.1 o 5XMXmXmXmX6X    K 6X.   ~ jX  8X%.~.C.-.3.z.g.0.p c.K.6.(.5.@.d ",
"C g.%.T c Y = q Y Z `.d z } C Y.W 4 rXnXmXmXmXmX0X<   .     H J @Xn.d h.d.g h.N d.=.h %.k.c.S.N F.#.",
">.~.N j.1.p A.[.*.V.C.4.g N.u 2.-.K ; J qXmXmXmXmXbX0X0X1X  + + +X%.i s.N &.s.l `.:.k.4.p F.K.*.G.D.",
"N A.i S h u a.D.5.V.D.4.$.N.j V R . , 4XL ( 1X3X4XeXMXmXbXJ X +   v L.(.h h.C :.#.i C V u g.N.&.j.N.",
"%.g.%.d i.h 2.N.;.j.~.{.0.u.y.j + rX0X5XbXmXmXmXmXmXmXmXmX6X  . # + S V.&.u.j.6.g.B d i.h 3.h.j g.2.",
"g.w.p h -.l.d.s.B x.h j.!.I.P L ) NXmXmXmXmXmXmXmXMXsXBXmXmX1X( ^ R W.R.R.R 0.D.2.i h -.0.d.3.;.S.%.",
"Z.(.g h 1.g.3.=.V 5.~./.Y.4 > bX1X~ jXnXmXmXmXmXmXmXkX/ 4XrXjXK f L ^ P K ~ a A E Q P.1.x.2.=.h c.m.",
"N S.M.;.=.s.,.k.3.1.D.g.s.v @ L xXbXoXU ) ~ oXwXlXnXmXmXMXlX5X3X< + K P a a y L 4 @ 3 Q s.c.s.<.s.[.",
"u l.Z.B h =.a.g s.g V.H.9., - n K qXxXnXxXxXlXrXwXxXnXbXjX0X6X) . L I.Y.h 4.L.E v + > , v R T.Q.g G.",
",.<.S Z :.j.C y. .<.w.v.z < |.>X}.m m - + ; 5 4 ; ; + X O ) ) . , *.j 4.h x.L.T.@ ( 3 @ L I < +X<.n.",
"=.$.h :.f.d 2.w.h Z ).k.x .X-X=X X}.' }.n m |.= .X}.}. Xm 2 % < ) H p P ^ K I H ; 4 0 Q ^ I.R.h Z [.",
",.B.h.=./.&.f ,.&.d S.y 2 $X;X;X>X:X;X;X%Xb .X# = n :X<XaXhX' - O + : ( ) ; 6 % ~ [.j h.%.f Q.@.g K.",
",.;.d.i.q.<.j h u.h O.U.%  X;X;X=X|.F F m m # m .X;X;X;X-X-X<X-XX ^ P.n.8.;...f.s G.1.<.%.%.C g.h N.",
"h Q.<.h.j 3.j.d.B d x. .=  X>X:X.X%XaX X|.' @ |.aX;X;X;X,X}.:X}.  8Xi -.2.Z '.C <.s.C.=.5.V.G.C d h.",
"g V.s.h.&.B c.Z B i 2.B Q - ' -X>X<X#X X{ * ! aX>X;X;X;X;X=Xb - P y.u 4.} h S.s /.c.B.&.;.t.V ;.u 3.",
",.V.2.h.3...n...u Q.>.%.H.T = ' $X%X%X' - - $X>X-X>X-X$X-X=XF o pXx.&.,.A.h K.,.Z.| g.2...r.j i &.h ",
"z.Z.5.f.r.[...[.&.V._.d V.h.q.~ , = % , 3 # |.aX-X;X;X$X`  Xb P O.N.5.x.h.y.&.4.d.3.d.{.).&.h.*.i.h.",
"p.k.<.6.).V.d.B.h.s.V.N.-.g.,.3.A.N.R.w.U.@ 9 m $X<X;X;X;X-X,Xm y W.h s.O.x.C p.s.<.(.F.G.4.h.h.i.g.",
";.h %./.D.*.d.g.8.t.C u.i <.&.Z -.g.1.g %.2X-  X}. X>X;X;X;X:Xb   u.s z 2.j.C 0.N &.F.S.i.i.d.;.2.C ",
"h g B N.h.B r.>.s ~...6.i | t.Q.@.V C X.M 4XX F #X<X;X;X;X;X>X$X= , P _.C V h h s B N.D.;.:.>.s 4.&.",
"s.s B h.O.^.].N u.N g.6.Q.v.(.Z 0.z Q.n.U.% Y b q .X<X;X;X>X,X' = }.= T.8.Q.c.5.g -.K.D.i @.M j.V d.",
"i.i.h.g.d.D.4.&.a.d.V /.O.3.D.d.+.(.6.+.U.R n c n n  X$X;X-X.X}.}.9 v S _.F.i i.b.K.H.b._.v.&.d.s.V ",
"g.3.g.2.a.h.o.c.-.8.N %.p.;.g.-.a.g.d &.$.c.a.-.pXT   X . . L a A R.s...S.s.u u.s.V.q.#.S.6.r.;.7.d ",
"k.a.7.i =.x.6.N...(.%.h N M <.4.O.s.$.$.v.;.+X2 8 o < ] 9 . 0 a P.%.N Z.h.Z #.2.u.N i ;.j.| [.B x.l ",
"d l.%.,.*.=.a.N.N S.(.%.g d.f y.k.s 1.%.3.g.t.< $ * + , 1 & & $ T.=.s d.2.d D.d d.%.1.4.;.p.K.B O.).",
"h d.h k.2.i u./...V.F.$.s D.u ;.=.4.k.N ~.c.t.NX  O $ @ @ $ O / {...i b.h k.l.k d.h l.3.i j.C.%.u.F.",
"h u.s g j u c.F. .#.j.0.1.h.,.j =.x.O.M V.5.i / . & e t e e o P *XS.d y.h h.&.d #.s d %.y z.K.&.u.V.",
"4.a.C d q.,.d.u.N #. .@.N d.u.g.s.u.s.(.c.s.E . @ o & * $ $ & & X I l.k.y.5.u.#.'.C M 5.,.d.G.C a.;.",
"_.n.g h &.0.u.2.j u.%./.>.Z s.u.C 8.N S.'.V W   _ _ e t e e q e & a Y.;.;.g <.h.5.i d >.w.a.5.B g. .",
"G.[.+.C y.h.6.Q.V s.M.@./.f.h j.N g h e.F.| E o I 8 7 w w 7 7 7   T 3.d.u =.f p.g.5.B #.M.&.*.B f./.",
"V h.h.7.S e./.n.s.q.S.1.;.5.u 4.u ,.s j k.Z.d.Q S K p f v p u a Q R s j B g &.g h.K.8.C e.u.q.3.s._.",
"h w.d.h j ,.s.>.c.h 3.h.h h g 1.%.O.&.h V s.j ,.g h.=.d.g 7.V.d.m.s s g.} m.N s 0.z.h j ,.2.h 2.B d."
};
