/* XPM */
static char *result[] = {
/* columns rows colors chars-per-pixel */
"50 50 248 2 ",
"   c #020201",
".  c #0C0C0C",
"X  c #080608",
"o  c #150908",
"O  c #17120D",
"+  c #0C0E14",
"@  c #151414",
"#  c #1C1C1C",
"$  c #1A1619",
"%  c #0C1515",
"&  c #270B0A",
"*  c #25160D",
"=  c #261916",
"-  c #361616",
";  c #320B0A",
":  c #272319",
">  c #372A1A",
",  c #2F3216",
"<  c #1A1921",
"1  c #211D23",
"2  c #162324",
"3  c #232223",
"4  c #2A2B2B",
"5  c #262729",
"6  c #362825",
"7  c #343434",
"8  c #3B3A3B",
"9  c #393737",
"0  c #2E322F",
"q  c #1C2019",
"w  c #491718",
"e  c #561919",
"r  c #492D1D",
"t  c #482825",
"y  c #562728",
"u  c #463927",
"i  c #483837",
"p  c #55332C",
"a  c #6E2F2F",
"s  c #5E1A1C",
"d  c #325321",
"f  c #355B24",
"g  c #385929",
"h  c #3A4B30",
"j  c #366321",
"k  c #3B6B24",
"l  c #3B6727",
"z  c #3C7422",
"x  c #3E7B21",
"c  c #344F1A",
"v  c #4E7A1C",
"b  c #554729",
"n  c #44493B",
"m  c #584937",
"M  c #44573A",
"N  c #534F2D",
"B  c #675734",
"V  c #745C3B",
"C  c #724838",
"Z  c #436C27",
"A  c #427326",
"S  c #417B25",
"D  c #417329",
"F  c #457C2C",
"G  c #4A7A28",
"H  c #49663B",
"J  c #487434",
"K  c #547D2D",
"L  c #77633A",
"P  c #6A6938",
"I  c #3A3B46",
"U  c #473645",
"Y  c #603E44",
"T  c #434343",
"R  c #4A4A4B",
"E  c #484845",
"W  c #554D49",
"Q  c #4B5844",
"!  c #585758",
"~  c #4E4E54",
"^  c #66574C",
"/  c #655D59",
"(  c #6D5349",
")  c #556A47",
"_  c #577149",
"`  c #766658",
"'  c #64785A",
"]  c #736D50",
"[  c #625C67",
"{  c #625B75",
"}  c #69696A",
"|  c #6B6774",
" . c #787779",
".. c #746968",
"X. c #5B5866",
"o. c #8F2C2C",
"O. c #AA3034",
"+. c #CC393B",
"@. c #856846",
"#. c #897746",
"$. c #94794C",
"%. c #8A6757",
"&. c #AD6F59",
"*. c #8D7768",
"=. c #865A47",
"-. c #D14342",
";. c #59871D",
":. c #528D1E",
">. c #67971C",
",. c #6A9119",
"<. c #59B81F",
"1. c #57A61D",
"2. c #77A81A",
"3. c #6AB81C",
"4. c #7CB419",
"5. c #68A91B",
"6. c #438323",
"7. c #448B23",
"8. c #468429",
"9. c #49842C",
"0. c #4B8C2B",
"q. c #4B8924",
"w. c #568827",
"e. c #459421",
"r. c #4A9325",
"t. c #4B9C24",
"y. c #4C952B",
"u. c #4D9B2A",
"i. c #519B2C",
"p. c #589728",
"a. c #4C8832",
"s. c #538A35",
"d. c #519332",
"f. c #539B32",
"g. c #599C3A",
"h. c #4F9033",
"j. c #6B9A23",
"k. c #749828",
"l. c #4BA422",
"z. c #4DAB22",
"x. c #4EA128",
"c. c #50AC25",
"v. c #52A32C",
"b. c #53AA29",
"n. c #58A628",
"m. c #52B324",
"M. c #51B921",
"N. c #5AB629",
"B. c #59A934",
"V. c #5DB531",
"C. c #4EB121",
"Z. c #68A927",
"A. c #66B628",
"S. c #62B833",
"D. c #70A92D",
"F. c #77CA1C",
"G. c #5BC426",
"H. c #62C42C",
"J. c #63CB2B",
"K. c #68C824",
"L. c #76CD28",
"P. c #6CDA2E",
"I. c #67D32C",
"U. c #79D925",
"Y. c #66C731",
"T. c #6CD631",
"R. c #7DD03E",
"E. c #7CE32B",
"W. c #70E030",
"Q. c #5E9046",
"!. c #64974C",
"~. c #6A895A",
"^. c #6A9754",
"/. c #739152",
"(. c #70AF4F",
"). c #76876D",
"_. c #7CB063",
"`. c #5DA441",
"'. c #7CC254",
"]. c #86B715",
"[. c #84B728",
"{. c #87C71A",
"}. c #8AD81B",
"|. c #96D61A",
" X c #95C917",
".X c #96E51A",
"XX c #A6EB15",
"oX c #89CC25",
"OX c #88E424",
"+X c #94E220",
"@X c #998A4C",
"#X c #8B894D",
"$X c #A88655",
"%X c #AA9956",
"&X c #AC9756",
"*X c #B4A35A",
"=X c #8C9175",
"-X c #AA9278",
";X c #8BAF70",
":X c #BFB364",
">X c #85A342",
",X c #C9B366",
"<X c #C5A26D",
"1X c #8ACA48",
"2X c #8DCC6D",
"3X c #A2C84A",
"4X c #DBCA6C",
"5X c #EEDD77",
"6X c #ECD678",
"7X c #F4DC78",
"8X c #E5CC6E",
"9X c #F6E57B",
"0X c #7A7686",
"qX c #8A8A8A",
"wX c #989998",
"eX c #908999",
"rX c #B69C89",
"tX c #B9A48A",
"yX c #B8B392",
"uX c #9690AB",
"iX c #A599B3",
"pX c #A6A4A6",
"aX c #BABABB",
"sX c #AEAAB8",
"dX c #98AA96",
"fX c #CBB498",
"gX c #D5B89C",
"hX c #C4A68E",
"jX c #CCB7AF",
"kX c #E8AA88",
"lX c #B2CEA4",
"zX c #FEDDBB",
"xX c #F5D8B6",
"cX c #EACDAB",
"vX c #FEE3BD",
"bX c #DCD4A0",
"nX c #B8B3C6",
"mX c #AE9DC1",
"MX c #BFC3C3",
"NX c #C4C6C7",
"BX c #D7D7D9",
"VX c #CCCAD8",
"CX c #FDE7C4",
"ZX c #EEE3C1",
"AX c #E6E6E8",
"SX c #FEFEFF",
"DX c #F5F5F7",
"FX c #EDEDF1",
/* pixels */
"|.B.Z l h.B.c.v.D <.;.e.k 9.K.|.f.B.a.J.V.g.M 0 X X O @ 3 T ) =X0.D..Xi.Y.9.S.|.S.l k d.V.c.V.z m.G ",
"E.[.d k i.oXA.0.S F.n.w.2.k 0.N.w.9.S _.) 0 3 h T 9 9 I h 7 5 5 ~ l J.e.J 9.a.OXn.d Z B.S.b.9.z n.{.",
"B.OXF.8.e.A.q.u.6.K.<.x.L.3.l z.D A ~.@ 4 7 3 3 5 3 # 7 5 3 0 E q T 0.f.d A j B.}.l.7.t.N.w.S.y.n.E.",
"f S.G.w.w.9.c.a.B.F C.l.6.8.d n.k J._ . @ ~ pXaXSXFXFXDXBXaXR q 0 @ 4 ;Xv 2.8.f v.m.F D j.|.w.x.F N.",
"x u.d.q.:.l.0.6.i.6.d.M.x S x y.6.(.4 : 4 aXDXSXSXSXSXSXSXSXSXpX! <   _ v U.z x i.f.z 6.|.p.6.7.7.9.",
"7.Z j 8.i.s.8.b.S q.}.v.m.M.D.p.H ) @ = R AXSXSXSXSXSXSXSXSXSXFXeX@   ).k I.M.7.D k ;.Z.J 6.b.0.8.E.",
"7.j l.x M.z F y.x k U.J.v.m.8.P.6.) 3 < 7 iX0X~ [ dXAXNX} ~ 7 eXX.@ + (.d m.v.7.j F.G P.6.F B.>.Z E.",
"e.j M.t.x.7.j F z.k <.d.A M.x T.T.!.M   + < X.[ X.NXwXqXNX| | 9 # . X ' (.u.A e.f K.{.V.6.k G L.S M.",
"8.,.B.z.9.u.C.e.a.k M.:.D.Z h _ _._.).  @ q @ 3 { BXNXVXBX0X3 @ 5 $ X _ (.w.{.7.x u.G.9.r.M.t.d.S M.",
"d L.[.<.z 6.B.h.6.f z.z 9 ` rX^ ( r * ..o * u .. .9 # 6 u } fX6 , : MXe.k D K.f |.[.P.G 6.y.d.S f H.",
"e.H.e.G.N.j.q.v l k ~.! m xXcXxXfX-XbXCX` o 6 xXvXxX-XcXxXCXvX..T i R H [.z .Xe.K.p.M.V.w.p.v g k D ",
"n.G.6.z.{.}.>.}.z M.#XX hXCX%.&.` gXvXtX- i / ` gXxX-X-XfXxX@.W pXa . ^  .N ~.(.m.7.z.w.|.>.}.,.l.l.",
"e.N.6.G A.<.t.P.P.a.6 ZXCXcX&.X > bXyX& w qX9   o ( -X-X*.=   qX` & yXzXzXxXt h `.6.G {.P.i.W.P.v.I.",
"v.0.6.A.OXZ.G.2X) E fXvXfXC u n R C p ; ( E X * =.&.&.%.:   X.=Xe - CXzXzXzXzXm 0 H /.1XS.N.I.v.i.f.",
"D k 0.P.W.6.j.} W gXzXCXi 0 J n.^.7 @ o ` 4   o e &.fXW X o VX` e t xXxXzXxXCXfX( ( * _ s.s.p.f t.S ",
"t.f D G.I.w.] 9 gXzXzX^ n (.H.a.S.=Xn   qX@   0XiX- X   . qXSX^ e o = = O =.cXvXvXgX*.7 Q k.v e.F m.",
"v.e.l.I.~.^ rXvXzXvX-X# S.e.I.n.>. Xc @ MX= X ! NX4   / AXSXSX| w & t / pX/ C %.( ^ ^ yX*.m ) 2Xb.a.",
"l.u._.) ^ -XxXvXxXxX*.8 Y.0.<.s.A.M.M X sX! . # ! # . VXSXSXFXiX{ O X pXSX .X 5 8 7 . 0 ` p M /.a.z ",
"b.c.=Xn m fXgXtX` -X-X$ ^.G b.r.F.x.;Xo 3 MXqXq X   $ DXSXDXsXuXnX0X  aXwX= 1 5 I 2 q } #   yX(.3.Z ",
"F m.x /.6 = tX-Xu ` i n /.;.D l.m.A _   uXSXnX4 @ @ qXSXDXiX~ pXDXpX  ` tXfXhX=X/ B O 3 < 0 7 ' U.3.",
"w.oXz b.^.E i *.E W ~.r.l G.d y.0.[.h $ VXDX} X . O wXFXiX[ sXSXSX[ @ rX` hX%.fXcXcX` X # $ d ^.Y.I.",
"z L.g F k d ;XlXy.H.I.e.4.G.x k ^.U X DXSXBXT X . 0 aX| } AXSXSXDX0X. r p =.r rX` fXgX: ' lXlX7.m.G.",
"7.m.8.k x.z u.G.q.N.{.XXp.c.l.z.Q.4 | SXSXNXqXE ! AXMXBXSXSXSXSXDXuX4 > C p & > C C @ dXk y.m.x m.r.",
"m.f.g z 9.B.b.u.x <.z B.{.F B.z.T ~ mXVXBXFXSXSXSXSXSXNXsXsXnXmXmXmXT @ ^ M ) 1X~.n ~.9.y.z.u.0.T.G ",
"K. Xk k x.m.u.6.A u.{.}.<.6.6.G.E o o o . + 0 eXNXDXSXAXMXwXqX .R +   + Q s.D M.l.j A u.m.y.6.D Z.F.",
"F P.F.0.6.v.r.B.u.x.I.b.u.N.f t.! p *X4X6X4X@Xr > 1 U 0XnXDXSXSXSXAXuX{ I ! z F C.m.i.8.i.Z.x.r.v.OX",
"d B.K.S z 7.b.k i.Z H.I.S 6.d (.7 @X,X@X@X%X@X*X@Xu B r , > > 8 I U ~ 1 q 4 T 7 ' Q.z z 2.L.k [.k Y.",
"e.r.J G q.b.F l.6.r.B.N.>.:.u. .O %X7X9X9X9X8XN > b :X@X$.,X%X*X#.$ < + R g % I  .5 uXD.V.G {.r.r.D.",
"F ].k q.n.l u.g.z G .XZ.+XK.8._.o *X9X5X5X5X5X7X9X:XN q #.6X5X5X7XV   0X .).M.).h $ qXT ) y.B.A G +X",
"e.G.M.7..X6.l e.7.k P.m.i..X8.pX, 8X5X5X5X5X5X5X5X,X, * b B %X8X7X8X> = 5 T ~.`.).' 1 3 Q ~.].2.k P.",
"e.0.m.x.u.0.x z z.z <.w.Z m.k 8 P 5X5X5X5X5X5X7X5XL O L @.$.V &X,X<X*X* < X.1 Q H 2X# T T | F m.z G.",
"D 4.r.C.F u.N.b.S k C.G  Xp.).  ,X5X5X5X5X5X5X9X7XP O @.$X$X$X$X$X&XN #.b 8 X R / ~ / + 1 qXY.G k M.",
"j H.v.M.7.S Z.J G f y.G E.XX).  *X6X7X7X5X5X5X5X8XN O m B $.@.L ] B B b i ).v.[ 4 < | I 9 ) H ^.f y.",
"e.J.r.G.u.>.3.,.d ].w.8.W.W.(.@ B @X4X6X5X5X5X4X#.* / ).X * > u r , > : K z W.(.K n U 7 I E 8 qXQ.z ",
"N.Y.y.n.j.OXj.OX7.H.XXD Y.2X).  r #.$.bX7X8X%Xu b 0 w.(.~ w y $ . - 6 # _ z.e.e.b.u.b.3XX.9 7 5 _ N.",
"x.V.7.j.+XN.b.G.<.b.G.M.^.Q = > r L L $.&XL L #.u X _ 2XiX- e ; 6 w w @ h V.F x.v.0.|.E.Y.t.'.(.!.B.",
"0.A 6.}.P.7.z.m.a.p.G z._ 0 = #.$.$.@.m $.&X$XV B N 6 _.qX= & w t y ; + 1 _.F y.z 6.U.P.v.t.z.a.0.F ",
"z l S G.m.x k.w.j {.j.n.j c o b $.$X$X$X@.u B ] #., M f - o.% + ; - 2 o.o.7 D z l G G.I.0.w.s.j t.7.",
"v.j S M.<. X}.Z l.D m.w.].3.oX' n ^ b V $.L B m m M s.^.h s +.O.O.O.+.a - P Z.v.j 0.W.T.f 2.A <.A z.",
"x.x.M.C.b.I.t.q.b.b.J |.c.t.I.i.D.1X_ # r t = , oXXXG b.B.h W t y y y W >X1Xf l.S.W.T.A.XXA.6.b.b.A ",
"m.u.m.y.c.C.1.Z.8.s.A 6.b.0.m.9.z.u.'   ..kX( o E ;XK j.y.y.f N.m.B.v.,.P.b.d l.x.H.f.3.P.y.j.a.a.A ",
"B.b.9.j 8.C.p.G.>.|.S z A z r.t.' e ; < E n R 6 w O 0Xp.Y.A.f 6.h.6.z K.M.G 3.y.l.F f 0.M.>.OX6.z.6.",
"D v.6.e.e.8.b.G.S L..Xx k b.l t._ 6 ; o 0 4 < w 1 3 (.A.g.OX{.Z e.F k b.y.k I.k v.7.t.r.0.b.P.G <.|.",
"z b.A B.y.f C.}.>.H.U.4.j I.d 0.6.M O e 6 0 p = . ! '.P.8.OX}.;.|.>.f V.z B.B.z c.z B.y.f M.G.6.z.U.",
"z z.j l x d 5.U.6.3.N.v.t.M.e.x Q.U & & e e w e - T B.W.G W.T.9.P.J.k l.z M.6.z 3.j k G d S.W.7.l.H.",
"r.m.F k f.e.x.c.A 3.:.2.z B.z.z.' O . e y w w s & : ~.V.6.J.r.k A.z.l.B.l.i.z.3.OXF k v.e.v.Y.F c.0.",
"XXD.l z 7.d.c.r.S z.6.oX;.G lX+ w e < - ; t a $ = s t z z.N.G 7.d.z C.6.9.k e.<.i.d k w.f.c.i.S m.:.",
"Y.+X5.S l.<.p.].S i.F.2.}.1.k  .w -.O.6 o.o.w o.-.w R 8.8.oX3.x.M.k r.b.d 8.l b.m.i.S 3.F.0.7.S n.}.",
"D N.M.a.J h.}.D.v.i.U.x.0.i.d _.> a O.+.+.+.+.O.s o  .B.t.Y.I.F c.k l x z k 7.k N.W.a.F a.z.f.u.v.XX",
"z f.c.z x e.v.w.n.A f.M.z z j t.).= + $ i U i $ @ =X!.n.D 9.N.1.oXj j C.w.F.D j y.V.z x e.u.z y.S b."
};
