/* XPM */
static char *result[] = {
/* columns rows colors chars-per-pixel */
"50 50 222 2 ",
"   c #3C631F",
".  c #325521",
"X  c #355B23",
"o  c #3A5E22",
"O  c #366321",
"+  c #3A6524",
"@  c #376820",
"#  c #3C6C24",
"$  c #3C6629",
"%  c #3E6E28",
"&  c #3D7324",
"*  c #3E7B21",
"=  c #3F7128",
"-  c #436A1E",
";  c #46691E",
":  c #4D7B1F",
">  c #467A1E",
",  c #557B1E",
"<  c #426D24",
"1  c #416B28",
"2  c #427425",
"3  c #4B7421",
"4  c #427C25",
"5  c #4B7C24",
"6  c #417529",
"7  c #49762A",
"8  c #447B2A",
"9  c #4A7E2A",
"0  c #517D23",
"q  c #3F8120",
"w  c #4B891E",
"e  c #52801E",
"r  c #5C841C",
"t  c #5D8B1D",
"y  c #548C1E",
"u  c #5C941F",
"i  c #5C9C1D",
"p  c #55961E",
"a  c #618A1D",
"s  c #64941C",
"d  c #649B1D",
"f  c #6B9C1C",
"g  c #69941D",
"h  c #719D1A",
"j  c #5CA31D",
"k  c #5EAB1D",
"l  c #56A71F",
"z  c #57B91F",
"x  c #65A41D",
"c  c #6BA41C",
"v  c #64AA1E",
"b  c #6EAC1C",
"n  c #72A61C",
"m  c #75AC1C",
"M  c #7AAE1C",
"N  c #7DAA1A",
"B  c #66B51D",
"V  c #6AB91E",
"C  c #76B21F",
"Z  c #7AB51D",
"A  c #73BA1D",
"S  c #7BBB1B",
"D  c #7FB817",
"F  c #438324",
"G  c #4B8425",
"H  c #448C23",
"J  c #4B8C25",
"K  c #46832A",
"L  c #4A852B",
"P  c #478B29",
"I  c #4A8B2B",
"U  c #538324",
"Y  c #598522",
"T  c #528B24",
"R  c #5A8D23",
"E  c #548C29",
"W  c #548529",
"Q  c #469222",
"!  c #4A9425",
"~  c #479A20",
"^  c #4A9C24",
"/  c #4C932B",
"(  c #4E9B2A",
")  c #549324",
"_  c #5B9323",
"`  c #539B25",
"'  c #5B9B25",
"]  c #52952C",
"[  c #529C2B",
"{  c #5B9C2C",
"}  c #58942A",
"|  c #4C8B30",
" . c #4A8530",
".. c #518F34",
"X. c #4E9230",
"o. c #529433",
"O. c #549E33",
"+. c #618E21",
"@. c #639423",
"#. c #639C24",
"$. c #6C9E23",
"%. c #659A29",
"&. c #4CA323",
"*. c #4EAB23",
"=. c #4FA329",
"-. c #54A225",
";. c #5CA424",
":. c #52AB26",
">. c #5CAB26",
",. c #53A42A",
"<. c #5BA32B",
"1. c #54AA2A",
"2. c #5AAC2C",
"3. c #4FB221",
"4. c #51B324",
"5. c #5DB324",
"6. c #53BA22",
"7. c #5ABC25",
"8. c #55B329",
"9. c #5BB32C",
"0. c #5DBB2B",
"q. c #54A331",
"w. c #58A530",
"e. c #5BAB32",
"r. c #5DB331",
"t. c #5DBC30",
"y. c #65A324",
"u. c #6BA222",
"i. c #64AB25",
"p. c #6BAC24",
"a. c #62A62A",
"s. c #6AA629",
"d. c #63AC2B",
"f. c #6CAE29",
"g. c #73AC22",
"h. c #64B524",
"j. c #6CB423",
"k. c #64BC23",
"l. c #6DBC22",
"z. c #6BB52A",
"x. c #64BB2C",
"c. c #6CBC2A",
"v. c #64B42D",
"b. c #71B222",
"n. c #79B523",
"m. c #73BB24",
"M. c #7CBD27",
"N. c #61A333",
"B. c #62B433",
"V. c #63BB32",
"C. c #68BE30",
"Z. c #69C61E",
"A. c #74C21D",
"S. c #7CC11C",
"D. c #7CCC1D",
"F. c #71C91F",
"G. c #76D01F",
"H. c #5BC426",
"J. c #5FCA27",
"K. c #5DC329",
"L. c #59C325",
"P. c #65C324",
"I. c #6DC424",
"U. c #65CA24",
"Y. c #6BCB23",
"T. c #63C42D",
"R. c #6BC328",
"E. c #64CB2C",
"W. c #69CB2B",
"Q. c #72C221",
"!. c #7BC422",
"~. c #74CC24",
"^. c #7ACB23",
"/. c #75C329",
"(. c #6ED325",
"). c #65D22B",
"_. c #69D42C",
"`. c #6CDA2E",
"'. c #7BD423",
"]. c #7DDC25",
"[. c #73D42B",
"{. c #76DB29",
"}. c #77D726",
"|. c #65C331",
" X c #66CB30",
".X c #6BCD32",
"XX c #70CF34",
"oX c #6CD531",
"OX c #6CD930",
"+X c #74E12E",
"@X c #7FE127",
"#X c #70E030",
"$X c #82BD1B",
"%X c #84B518",
"&X c #83BC25",
"*X c #8CC416",
"=X c #83C31B",
"-X c #8BC419",
";X c #82CC1D",
":X c #89CC1C",
">X c #89C615",
",X c #91CB17",
"<X c #83D41D",
"1X c #8BD41B",
"2X c #8CDA1E",
"3X c #89D617",
"4X c #93DA1C",
"5X c #97D817",
"6X c #A1D912",
"7X c #8CE21E",
"8X c #95E41B",
"9X c #99E619",
"0X c #99E81B",
"qX c #85CC22",
"wX c #87D421",
"eX c #85DD23",
"rX c #8CDC22",
"tX c #86D925",
"yX c #84E225",
"uX c #8EE221",
"iX c #83E528",
"pX c #93E520",
/* pixels */
"yXD.e.1.3.Q 0.E.% $ T.E.;.+ # l : 0.*.  8 X.o.# + /.8XB.1.6.* ~ *.@ % 8.7.=.# # ;.: -.T.% F o.N.5 . ",
"L.:.{ G *.Q 9.OXT.J ,.%.p.< & {.h.,.3.H O & / ~ * T.[.{ L 4.F ^ 7.*.& Q ! ! *   k.;Xf.E.F # 6 a.R.5 ",
"3.Q D M I 5 $ 9 V.8.[ 0Xj.5 +.N.7.H K ! &.&.P L F 8.1.x _ J & $ 6 ( :.J d V & 4 [ K.:. .H &.8.F o.8 ",
"/ H :.'.*Xf . < g.6 2 ).F 5 S n.1.&.# F q.X./ & X / ,.m.8XS.* .   J L 5 l.i.X %Xn.v._.< H ,.X.I 4 X ",
"5 % ~ 6.L.3.H 2 J.^ # t.6.H 0.,.q 3.Q Y #.: r % 2 G 2 9.`.H.6.q > ;XB 2 a.'.F 0.,.H H.[ @.z., a < # ",
",Xf P :.U.3.-.>XOXH.^ F 4.F *.,.P / @.1Xp.$X1X#.>.3X%X{ T.6.6.^ =.Y.7Xj F 8.* &.~ F ( +.wX#.=XrXs ! ",
"*.3.*.P :.3.& =.:.H.H.6 P 4 ( H < m wX0.A.U.7.7.,.:.U.5.I =.6.* P 9.E.4.H P * Q H # s 7X.X,._.`.E.1.",
"G =./ + P *.# 6 K ,.7.` 6 H F H f yXiXm Q 3.*.| X.K / P $ q 3.& + 8 =.3.&.& ! F F t 2X+X[ / T.8./ / ",
"A ( s ; 8 e.8 V.2.& 7 R g 3 # F 1.).T.L 7 %.G & ] x.,.u - 0 &X0 ! ^ = 7 7 * 6 = K ( ).K.& < %.5 # F ",
"q.-.!.$XF E.0.8 { R N %Xs.J # F 7.6.&.3 h @.J x.o.q.,.c.-.p iX$XR ] 5 n ;./ ! & 4 &.6.-.3 f @.G &.F ",
"8 %.}.K.Q :.K.e.f 9XR.$ ` m.8.3.4.,.h.9XB 2 ` V.B.E K  XE.( E.E.1.u.0X/.L * P 2.H.J.1./.0XiX9 <.,.2.",
"5 X 9.r.[ P / G D.H./ + n '.9.r.,.4 *.7.! G T $.u.L + 2.r.[ ,./ T ^._.[ 6 F *.,.r.B.6 wX+XV.t M [ } ",
"%X; H 2 U K F 6.4.*.: 4X,.:.&.# $ @ K 4.j 6X*X;.7Xk & q 2 Y ;.F &.H.H.P 9.V.B.:.K 6 X ..oX/ 5Xx.[ rX",
"].A < 2 A & + 3.,.J 2 K.H y.2.H r Z s K ^.(.z L r.6.*.# 5 1X#.% ! =.K & ^ H K 2./ & ^ F o.y.[.E.8 2.",
"H.6.# - T.q O / J a -XO.8 h.>.& E j._ . ^ 7.6.H ,.).7.& & K.F + ) ) F ^ ,.6 m :XL 8 :.K X ;.`._.J -.",
"].1X$XZ 7.3.* ~ Q ( _.&.* &.*.& X P G + ) 4.4.H 1.E.1.& J K.).' A.x Q 4.:.H ` 4.& . F 4 O F 4.6.F Q ",
"-._ ~.y.( / *.*.I =.] ! *.i.,.# o s.s.i.=X>.( K 1.0.J K 8 [ ,.4.0.O.=.P / /.z.=.& . K X./ &.=.=.8 1.",
"B $X~.~.I % 9.7.& 1 a # 4.~.`   < g.wXm.( ^ 8 F [ 7.-.=.( F + ,.3.F $ & # ^ 6.! # O F ! ,.( ^ = L e.",
"U.].-.=.:.& K 4.= < Y X L 9.4.&.! G <.h.' { ( P ! P.<X) =.*.% K =.& O & + 6 ( 3.&.,.8 =.:.` ( / F / ",
"9.).,.K ( + O *.> _ j.8 2 4 ,.0.P 4 = _ !.a.} ,.I ` R.;.G / o @ Q * H Q * & $ ,.3.Q G = u.qX} @.i.L ",
"{ r.V x j q * X.( ) pXC ! 4 ] L & q & 1.} _ =Xd +.} ,.A.p ! F * F F H 3.&.! 4 o.| = b 5 d.<.R qX) G ",
"7X!.M.rXD.-.=.H $ K E.E.x.$ % w # ~ Q 6 4 ( w.& < qX4Xv.6.6.K B x $ & 3.3.*.% & y.t ,.! 6 4 w.v.5 + ",
"(.P.,.O.~.x :.E.H # &.q.{   > 4Xc &.3.F $ 2 ! q & /.iXB.,.7.* l.2Xi O ~ *.( & - <Xh.! 4.& & U $Xd @ ",
"4.^ u.Y ^ H L e.6.&./ @.$X< @ 8.'.{ ( H * H K ^ F 4.:.T T -.& K >.k.^ J R j.F + 9.E.! ! F q / I =.* ",
"*.Q c.:X@.U X # / / 5 <X<.2 ) H E.^ 6 P :.,.! 2 & ^ ~ S 5X!.6 . # P ! J Z c.% y -.T.T.2 / 9.|.,.L $ ",
"G 8 0.{.pXl.  < =Xs @ 7.~ T l.~ ( :.H U -.8 9 # ; 5 5 8.).).&.#   k _ 6 0.T.@ S b ! L.F T n.7 K 6 X ",
"M 3 2.OX).H.^ q G.~.t ^ *.H 4.w Q 5.n.4Xy.T c 2 f $Xr ^ 6.6.7.^ q K.5.H 1.H.* 5.>.H 4.y.Z g.* Q @ * ",
"}.l.2.e.6.3.L 7.'.].D.2 ~ > &.H 5 y.'.).` A U.&.,.[.~.( ( 3.J./ ^ 3.6.*.G ^ * =.[ G M.pX'./ *.z &.^ ",
"] 4.,.8 ( 3.& G { 4.6.F F F H H 4 Q.U.&.,.Y.E.,.( / ,.^ = ! 6.& % I 3.6.1.J ! / H u yX+Xr.( 3.4.=.=.",
"c H U o 5 a.: %Xx 8 I 9 0 8 & H H 6.6.H & ( I 6 K ^ P 4 X & q.5 h n K | I & 8 & 4 Q J.OXJ 2 { I % K ",
"9.^ Z f u 4Xn W { 4 +.N n.5 + & &.L.8.% & K * H K e.5.S s @.Y.! T v.7 t f ] / $ 8 1.`.T.% , $.G Q 8 ",
"L u.~.P.J E.[.J @.-XqXY #.' Q &.L.x.m.*X$XJ ! *.( I ` eX^.;.8Xk.! _ ,XqXs.G [ w.W.OXoXz.*XtX5 ! 8.&.",
"E < :.:.( [ :.K -.U.-.. _ b.b.:.,.' qXeXV U #.L / I 6 9.K.! x.2.J p.{.9.& * Q ,.K.|.{ ~.}.W.5 $.[ | ",
") O H 8 L & 8 &.6.7.G *Xj.l.B 8 6 5 O.P._ S m.( |.2.2 F K 8 / F ` Y.4.U c ` ,.*.K 6 + { 4.H $Xm.H ~ ",
"3Xj = # 1.K # 3.1.O.% Y.J ( =.H r $Xu.I y.}.E.o.c.eXS.3 # Q = & ~ :.P 8 0.( | :.H & =.P / P _.T.F ^ ",
"(.<X5 @ H.&.X P P * :.O.2 $XqX= E z.} . i.+X{.( 1.iXyXy N 8Xj + K ] F :.r.K q *.& 6 =.8 X Q _.U.q H ",
"I.>.2 F 6.:.& H w q 6.>.e k.W.# O ! = . P E.OX[ <.#XOXG >.}.P.& F H H 6.*.& w B 2 X I 4 . P OX_.H Q ",
"y.+.3 % 0.:.~ 4.=.&.=.c.:Xi.8.4 X I =.( ^ 1.0.P 1.E.-.# 6 r.*.&.*.[ *.,.=.&.S.eX] X I [ H ^ t. X8 H ",
"~ _ $Xg } 8 4.4.K | 8 I ].qX<.X X K I q.:.=.K K >.h.T H F | 6 *.*.K I 6 & *.Z.,.$ . F _ <.:.,.I K &.",
"Z.D m.D.p.# / K.= X 6 $ e.{.A 2 * K &.3.! / F 8 ` wXS.( *.^ @ / *.F . 6 # K *.*.H G & S.V / / F = I ",
"Y.G.J P ^ = # *.# & * # * O./.4.! & K / =.=.q.( / T.).H P =.$ # Q @ ) G # = * 1._.V.& K / ( ! / ! / ",
"/ 8.&.* H O @ =.q q *.* = * ( 1.F F & Q 2.L ( O.8 o.r.:.b x # # Q w b S.! = + ! r.I H & ^ *.K Q I F ",
"1Xh.x.:XA.^ ^ & = q 4.3.&.# = @ - c / .. .w.8.F 2 &.:.8.U.7.( ,.P $ ,.{.Z.4.& = # . Q *  .8 ( :.q 6 ",
"@X~.:.,.z Q ~ :.F $ 8.8.f.< # &.4 I.A.* * | ( = @ 8.H.*.,.6.q ~ *.* 4 k.~.2.& O Q * H &.# *  .( & . ",
"L.2./ ) *.H ,. X_.,.^ W i.< # I.1Xs.x.w + & L :.J *.:.K 4 *.* ! 3.3.q / P ! *   &.3.! :.q @ = P *.* ",
"7.Q ^ wXb.8 % 7 r.9.E -Xz.& 2 / P./ K / &.&.H K 4 &.~ c p K # $ 6 ( *.I ) j.& & Q *.^ K Q ^ *.q L & ",
"/ F &._.U.Q < 5X%XU 6 +X` e S.j 8.*.* = q.I K & X I ( l.8XD.q X O H 8 5 S.h.X l j.-.4.& / q. .I 2 . ",
"& # &.).].D.1.<.].m.2 |.8.H I.b Q 3.P & / # 2 O & F % :.).H.6.q & B v & { 7.* &.-.J 6.H @.d.# * O r ",
"3.Q / V.`.).{ '.OX).*.8 *.H T.,.4 E f 5Xd ~ 3.Q ! 3.~ / :.3.4.=.&.J.7Xk F &.* ~ Q q / f tX' >X3Xw ! ",
"*.3.*.P 0.7.5 M.0.6.3.q P F e.^ < M wX.X=.*.3.3.*.:.7.*.I 8.L.* I 9.`.7.Q H * Q H # @.eXXXe.z z 3.*."
};
