/* XPM */
static char *result[] = {
/* columns rows colors chars-per-pixel */
"50 50 177 2 ",
"   c #1B0E0B",
".  c #130F14",
"X  c #0F121B",
"o  c #161015",
"O  c #1E1317",
"+  c #15131A",
"@  c #191419",
"#  c #2C120D",
"$  c #3B150C",
"%  c #241315",
"&  c #2B1515",
"*  c #231719",
"=  c #241A1C",
"-  c #2D1C1B",
";  c #321613",
":  c #3B1711",
">  c #351915",
",  c #3C1812",
"<  c #321C1A",
"1  c #3A1F19",
"2  c #3D221C",
"3  c #4A1505",
"4  c #441609",
"5  c #45190F",
"6  c #4C1A0E",
"7  c #531805",
"8  c #5C1A06",
"9  c #541C0E",
"0  c #5A1E0D",
"q  c #431B12",
"w  c #4B1C11",
"e  c #521F10",
"r  c #661C03",
"t  c #6C1D03",
"y  c #641F0B",
"u  c #691F0A",
"i  c #731E01",
"p  c #781F01",
"a  c #57210F",
"s  c #5E200F",
"d  c #4E2216",
"f  c #44251C",
"g  c #4E261B",
"h  c #4E291D",
"j  c #532213",
"k  c #5C2413",
"l  c #562817",
"z  c #5E2817",
"x  c #50271A",
"c  c #522B1E",
"v  c #5C2D1B",
"b  c #5D311F",
"n  c #652006",
"m  c #6D2104",
"M  c #65220C",
"N  c #6C210A",
"B  c #752105",
"V  c #7C2305",
"C  c #73230A",
"Z  c #7B2408",
"A  c #7B290C",
"S  c #612513",
"D  c #6A2610",
"F  c #642916",
"G  c #6E2B14",
"H  c #642D1A",
"J  c #6D2F18",
"K  c #722B13",
"L  c #7A2F14",
"P  c #64321D",
"I  c #6C331D",
"U  c #763017",
"Y  c #7D3114",
"T  c #74341B",
"R  c #7A361A",
"E  c #75381F",
"W  c #7A3A1F",
"Q  c #412720",
"!  c #442820",
"~  c #4C2C20",
"^  c #522C20",
"/  c #5C3221",
"(  c #653521",
")  c #6A3621",
"_  c #6E3821",
"`  c #743A21",
"'  c #7A3C21",
"]  c #842405",
"[  c #8B2604",
"{  c #852806",
"}  c #8C2905",
"|  c #832608",
" . c #832A0C",
".. c #8B2A09",
"X. c #942702",
"o. c #9A2700",
"O. c #942A04",
"+. c #9C2A02",
"@. c #902C09",
"#. c #9C3106",
"$. c #94340F",
"%. c #9C3309",
"&. c #95380C",
"*. c #9D3B0E",
"=. c #823314",
"-. c #8D3312",
";. c #873B15",
":. c #8E3B13",
">. c #843719",
",. c #833B1D",
"<. c #8B3C1A",
"1. c #943B14",
"2. c #9B3C15",
"3. c #913C18",
"4. c #983E19",
"5. c #A42B02",
"6. c #A92D02",
"7. c #A43206",
"8. c #AB3205",
"9. c #A43208",
"0. c #AC3508",
"q. c #A33A0E",
"w. c #AC3A0D",
"e. c #B13406",
"r. c #B33708",
"t. c #B33B0B",
"y. c #BA3D0D",
"u. c #A33E13",
"i. c #AC3E11",
"p. c #B73F10",
"a. c #853E20",
"s. c #8D411E",
"d. c #984115",
"f. c #96441E",
"g. c #9D441D",
"h. c #B4410E",
"j. c #BD410E",
"k. c #A64017",
"l. c #A3451B",
"z. c #AE471A",
"x. c #AB4A1D",
"c. c #B44414",
"v. c #BB4514",
"b. c #B24817",
"n. c #BE4913",
"m. c #B34C1D",
"M. c #BB4B1A",
"N. c #BA501C",
"B. c #844123",
"V. c #8A4423",
"C. c #944521",
"Z. c #9B4720",
"A. c #974924",
"S. c #9C4A23",
"D. c #A14A22",
"F. c #AD4F22",
"G. c #B34E20",
"H. c #AC5227",
"J. c #B35324",
"K. c #BB5523",
"L. c #BC5827",
"P. c #C0410F",
"I. c #C34612",
"U. c #C34914",
"Y. c #CC4D16",
"T. c #C34D1A",
"R. c #C3511E",
"E. c #CC521B",
"W. c #D3591D",
"Q. c #D8581D",
"!. c #C35622",
"~. c #CA5721",
"^. c #C35B25",
"/. c #CC5C25",
"(. c #DB5E20",
"). c #DC6224",
"_. c #E46425",
/* pixels */
"E.c.v.Y.v.R.> [ [ ..[ @.[ [ { [ ..| q L.c.i.....w.b.q.i.c.i.U ,.m.b.x.1.x.L.x.m.K.J.J.- J.z.m.l.l.m.",
"6.6.5.+.6.0.5 5.5.X.6.5.6.+.+.+.} +.G ~.7.5.5.6.6.6.+.o.6.0. ...8.9.5.5.6.y.8.o.5.8._.: 8.5.5.5.6.0.",
"8.6.6.5.o.] $ +.5.5.5.6.6.5...+.6.+.D 9.5.5.+.5.O.6.o.7.7.#.B 7 o.+.6.6.5.5.X.7.8.#.c.% ] 5.5.6.6.5.",
"6.6.+.5.5.X.& +.+.5.6.5.6.o.+.#.9.%.K X.5.O.] +.o.8.+.6.6.5.Z ] +.5.+.8.5.6.O.+.5.7.5.: O.5.+.5.6.5.",
"5.5.5.+.5.+.5 e.9.5.5.6.r.r.5.+.7.I.,.X.+.V ] 5.5.o.5.6.+.+.B [ 5.+.5.6.5.5.o.+.O.} 5.: +.5.o.5.5.5.",
"C C C N N y > J.u.x.=.d.G.x.F.l.s.L.c N 8 8 Z Z | Z C Z Z Z w y [ ] ..| } ..Z | ] ] V % Z ] { ..[ | ",
"q y C N N C C C C C C 0 c ^.!.G.J.N.!.x.d.N.m.!.- v l.4.u.1.x.2.| C 2.l.H.- ' B.B.V.W V.a.T W W B.Q ",
"| O.X.5.+.o.5.5.5.o.8.o.,.v.6.+.5.r.r.5.5.5.9.6.; 4 %.6.o.6.6.5.5.5.6.5.W.) (.5.6.+.w.I.5.+.8.8.e.C ",
"| 5.5.#.O.6.6.8.+.5.+.X.U %.7.9.+.+.8.6.8.+.o.O.o u #.9.9.5.6.8.6.6.o.5.y.P U.%.7.7.5.6.6.6.5.o.6.$ ",
"$.O.0.+.O.5.5.6.6.5.X.r 9 5.8.+.} 5.5.6.+.5.5.+.: C 5.e.6.o.6.5.6.+.+.8.+.w +.e.5.+.O.6.5.6.5.5.7.u ",
"L.0.8.+.+.e.6.5.6.+.5.O.0 +.O.+.+.+.6.5.5.o.5.5.: i 5.o.5.5.5.6.5.5.[ 7.5.w 5.} o.O.+.5.5.6.+.+.5.B ",
"D.M.M.v.b.~.n.q.u.M.c.l.q C Z ] Z V | ] ] | ] Z % e | | B | ] O.[ X.] Z ] ; X.O.+.5.X.5.5.5.+.5.5.y ",
"j k z k k j < l k k k j q w 6 w w w O ; : , , : > , q q & ; & v I H e 6 F v J J T J z % : q , q , > ",
"6.5.5.5.6.+.q o.o.5.5.o.5.6.5.5.5.6.y O.o.5.5.o.5.6.5.5.[ 5.C /.r.r.5.O.6.t.9.5.e.8.p.& o.6.5.6.6.6.",
"6.8.5.o.+.o.w 5.@.O.O.5.5.7.5.5.+.o.y o.5.5.6.5.5.5.8.o.[ 5.V M.6.+.6.5.5.5.5.#.0.9.7.; o.+.o.5.5.6.",
"5.5.5.5.+.] w O.8.5.+.@.5.6.6.5.+.X.9 [ 0.6.+.o.8.5.8.+.5.6.C O.6.5.} X.} 7.o.5.6.5.O.& [ 7.5.5.6.5.",
"e.5.6.5.5.9.c I.7.#.+.7.8.6.5.+.5.r.9 w.5.9.+.5.8.6.5.5.+.r.g.[ 5.] B 0.+.5.5.6.5.5.5.. @.5.+.5.5.8.",
"P.9.9.y.r.v.P ).j.y.j.v.Y.0.O.y.t.U.L 9.7.6.5.q.e.5.O.8.8.t.F.X.5.B } 5.6.5.O.6.5.o.X.; t.6.r.5.o.e.",
"f ! ! ! ! Q X 2 f f ! Q f ! 2 ! Q Q @ ! ^ c g h c J U T a.V.( g q 6 z H d & , q q : ; % _ E T E W _ ",
"B.J.G.x.l.L.z.1.:.x.k.l.d C A Z C Z | | Z Z Z Z o $.%.w.9.q.p.9.O.O.w.t.J.> ] ..X.@.[ X.+.X.O.X.X.e ",
"L.r.8.o.5.r.6.6.5.5.7.5.n +.} o.+.+.5.5.6.o.5.5.& n %.6.+.5.5.5.5.6.5.5.m.q 5...o.@.+.6.5.6.+.5.5.y ",
"1.@.0.#.+.5.8.5.8.+.+.B y 5.7.+.} 5.6.6.+.5.5.o.% [ +.8.5.o.8.O.o.O.+.6.$.q +.8.5.O.+.6.6.6.+.5.+.9 ",
"Z 7.5.O.[ 6.6.8.5.5.7.O.Y O.7.7.O.+.6.6.6.5.+.[ o +.6.6.6.5.5.+.#.B O.5.] g t.#.9.+.+.7.5.6.5.o.+.# ",
"Z } +.5.o.5.5.+.5.o.6.+.g.v.6.o.5.r.8.6.5.5.8.8.% [ +.o.6.+.+.6.5.[ V 8.] l W.8.6.5.r.j.5.5.6.8.e.y ",
"0 ] [ [ | ] @.[ } ..[ B _ ^.~.M.N.!.R.k.1.M.c.!.* , 9 9 0 9 0 0 9 0 q $ : = A.A.S.A.C.D.Z.,.Z.C.S.f ",
"S.g.g.D.Z.A.+ H W W U E ' K a k E ' h / f.>.G S Y a.,.>.T   P = ' ` W P E ' ` ' ' ' ' = _ ` ' ' E ' ",
"0.5.5.8.8.8.% p.5.6.+.8.8.5.+.5.0.8.D.L.8.8.5.5.6.e.8.5.6.O.w.S t.0.r.+.6.I.y.8.8.e.W.W 8.8.0.5.5.y.",
"7.5.6.o.o.... 8.#.0.7.5.5.5.6.5.5.6.<.2.8.o.5.6.5.6.5.O.0.#.#.# 5.+.5.6.5.6.5.+.7.7.w.l ..5.5.5.6.6.",
"5.6.5.5.5.[ O 5.5.6.5.+.7.O.o.] 5.7.C Z 5.5.+.8.5.6.o.9.8.8.[ 6 +.5.5.5.6.5.O.O.5.r.O.s [ +.5.5.6.5.",
"o.8.5.o.7.5.% 5.5.5.6.5.5.+.8.V ] 5.m V 5.X.+.6.5.5.5.5.5.+.o.0 +.5.+.5.6.5.5.O.O.O.+.y o.5.+.5.6.5.",
"@.X.X.@.X.[ o [ X.X.+.[ X.5.o.] t X.u N [ p #.X.+.X.[ +.X.[ Z e 5.o.+.o.5.5.[ +.+.O.O.9 X.5.o.5.5.5.",
"< f f ! Q Q 2 g g c x 1 @ & > ; ; & & % & & ; ; O 1 <.<.-.=.,.,.A N =.3.Z.1 q q 6 w w : w w w 6 w ; ",
"/.T.I.y.c.Q.y.+.9.j.y.k.& +.O.5.5.O.5.6.6.5.5.6.C F 7.6.5.+.8.6.5.5.8.5.Y.I o...O.+.O.+.5.5.5.5.6.] ",
"~.9.8.+.5.8.6.6.5.+.5.| % 5.[ O.O.+.6.5.6.5.O.5.Z 9 8.7.7.5.5.#.5.6.5.5.y.H 5.5.5.+.[ X.5.8.5.+.5.Z ",
"@.+.8.+.X.5.5.6.7.5.O.t - +.8.6.+...6.6.6.+.5.+.y 9 +.e.5.+.8.+.[ Z O.8.5.j #.9.5.#.o.6.5.5.5.+.+.8 ",
"O.O.%.O.o.5.5.8.5.+.+.] 2 U.7.0.+.5.6.5.6.5.o.8.3 9 +.5.5.5.5.5.5.o.V +.5.z E.7.0.+.6.8.6.6.5.+.6.y ",
"[ #.o.6.o.o.6.6.6.+.6.[ 2 ).r.t.r.w.Y.0.+.0.w.r. .q O.o.5.o.o.5.5.5.V i +.j ).w.$.p.c.Q.y.7.t.h.P.-.",
"J U =.L L L w 0 y 0 0 w % E ,.>.,.R E s.W <.=.>.v < 2 q f f < & 2 2 1 - 2 - / ( b ) v ~ P P P _ ) ~ ",
"U.t.t.I.y.U., o.+.+.5.5.5.o.O.+.O.O.j /.I.j.7.+.y.U.y.y.y.h.-.>.n.c.c.*.c.~.c.M.M.M./.< M.c.U.c.p.U.",
"9.5.6.5.8.#.q 5.5.o.5.5.5.5.O.+.} +.M M.5.7.6.5.5.5.5.O.6.r...C 6.7.5.6.6.e.5.+.8.5.(.> 9.6.5.5.5.e.",
"+.6.5.5.5.] : +.5.5.5.6.5.5.] 5.r.+.D O.6.5.+.+.O.6.O.5.8.+.Z 3 X.5.6.6.5.7.X.7.8.+.9.& B o.5.7.5.6.",
"5.0.5.o.+.o.% +.5.+.6.5.8.6.+.7.9.0.R } +.O.V 7.5.5.5.6.6.5.Z V +.5.o.6.6.5.o.@.+.7.5., o.5.+.5.e.5.",
"5.5.5.5.5.5.q r.9.8.5.5.y.y.#.+.@.U.a.o.5.B ] 5.5.+.o.5.5.+.Z ] 6.o.5.5.5.5.O.5.+.} 5.: 5.5.o.5.6.5.",
": q , q q : @ ' _ ` v I W V.S.C.V.S.^ S j k K C k 6 w 9 6 w ; : 0 0 S 0 k 8 k 8 0 0 6 + w 0 0 0 0 s ",
"` g.1.A N  .d.<.-.1.3.;.1 M.i.M.&.q.M.R.z.c.M.m.a.; N u u N u C i C 0 4 N * V.S.F.x.f.J.l.;.3.x.D.a.",
"J.e.9.5.5.5.6.8.+.6.5.t.q 5.5.+.6.6.e.6.+.5.6.t.A.y +.+.5.+.5.6.5.+.i +.6.q L.5.6.O.5.y.6.5.5.5.6.O.",
"1.6.o.5.5.5.5.5.7.7.#.+.; ] 5.+.5.5.7.5.O.7.8.#.=.y 5.6.6.5.6.+.O.Z O.5.o.q 2.#.0.+.+.6.6.6.6.+.+.r ",
"p 9.5.[ O.} 5.+.5.6.0.t ; +.5.5.5.6.6.6.O.O.#.6.N N O.8.7.+.8.O.5.+.+.6.8.f ] 8.6.O.[ 6.5.8.+.5.+.X.",
"Z 6.[ V 5.5.5.5.5.5.o.X.: 5.6.+.5.5.6.o.#.6.5.@.u K r.6.+.5.5.5.6.5.5.7.E.g [ } O.5.o.5.5.5.5.X.6.X.",
"y [ y [ o.5.o.[ +.X.X.| & u N C u i C N u u C u ; J c.j.y.w.T.j.+.O.y.j.).f N ..[ X...X.+.X.#.[ X.Z "
};
